<?xml version="1.0" standalone="no"?>
<!DOCTYPE svg PUBLIC "-//W3C//DTD SVG 1.1//EN" "http://www.w3.org/Graphics/SVG/1.1/DTD/svg11.dtd" >
<svg>
<metadata>
Created by FontForge 20120731 at Mon Jul  1 09:05:32 2019
 By www
Copyright (c) 2015 by Carolina Marando &#38; Alejandro Paul for Sudtipos. All rights reserved.
</metadata>
<defs>
<font id="ScrapbookerScriptW00-Rg" horiz-adv-x="182" >
  <font-face 
    font-family="ScrapbookerScriptW00-Rg"
    font-weight="400"
    font-stretch="normal"
    units-per-em="1000"
    panose-1="2 0 5 3 0 0 0 2 0 4"
    ascent="800"
    descent="-200"
    x-height="359"
    cap-height="680"
    bbox="-1145 -471 1155 882"
    underline-thickness="50"
    underline-position="-75"
    unicode-range="U+000D-FB02"
  />
<missing-glyph horiz-adv-x="220" 
 />
    <glyph glyph-name="uniFB01" unicode="fi" horiz-adv-x="452" 
d="M268 128q-26 -18 -63 -18q-24 0 -48.5 14t-40.5 30q8 -43 8 -114q0 -63 -20.5 -135t-52.5 -127t-71 -80.5t-77 -25.5q-25 0 -38 17.5t-13 46.5q0 31 14 67q81 214 182 420.5t177 311.5t119 105q12 0 23 -5.5t16.5 -18t5.5 -24.5q0 -44 -29.5 -106.5t-73.5 -121.5
t-87.5 -97.5t-67.5 -38.5q-7 0 -12 3l-5 -11q5 -14 23 -35.5t35.5 -32t28.5 -10.5h2q11 0 21.5 2.5t21 8t44.5 36.5q28 71 65 134t55 63q11 0 19.5 -9t8.5 -25q0 -11 -56.5 -111t-72.5 -137.5t-16 -52.5q0 -14 12 -14q27 0 69 38t84 95q23 28 35 28q8 0 8 -8q0 -4 -5 -13.5
t-11 -16.5q-52 -72 -98.5 -115t-88.5 -43q-17 0 -30 11.5t-13 49.5q0 23 13 65zM-92 -207q-6 -14 -11.5 -34t-5.5 -33q0 -24 16 -24q29 0 60 28t59.5 92.5t43 136t14.5 108.5q0 51 -10 99q-6 0 -26.5 -43t-43 -97t-55.5 -134t-41 -99zM118 263q16 0 40 14.5t54.5 48t64 83.5
t59 105t25.5 80q0 16 -11 16q-17 0 -86 -105.5t-146 -241.5zM444 486q0 -17 9.5 -27t23.5 -10t27.5 10.5t13.5 25.5v1q0 17 -10 25.5t-22 8.5q-13 0 -27 -9.5t-15 -24.5z" />
    <glyph glyph-name="uniFB02" unicode="fl" horiz-adv-x="508" 
d="M283 141q-31 -31 -78 -31q-24 0 -48.5 14t-40.5 30q8 -43 8 -114q0 -63 -20.5 -135t-52.5 -127t-71 -80.5t-77 -25.5q-25 0 -37.5 17.5t-12.5 45.5q0 31 14 68q82 216 182.5 422t176 310.5t118.5 104.5q12 0 23 -5.5t16.5 -18t5.5 -24.5q0 -44 -29.5 -106.5t-73.5 -121.5
t-87.5 -97.5t-67.5 -38.5q-7 0 -12 3l-5 -11q5 -14 23 -35.5t35.5 -32t28.5 -10.5h2q15 0 30.5 4.5t35 22t23.5 21.5q16 75 50.5 155.5t77 146.5t86.5 106t79 40q34 0 34 -39q0 -28 -21.5 -82.5t-71.5 -135.5t-100 -134t-73 -53q-9 -25 -16 -57t-7 -54q0 -46 29 -46
q27 0 69 38t85 95q23 28 34 28q8 0 8 -8q0 -11 -15 -30q-68 -92 -111 -125t-77 -33q-17 0 -35 9t-28 29t-10 40q0 33 4 61zM-92 -207q-6 -14 -11.5 -34t-5.5 -33q0 -24 16 -24q29 0 60 28t59.5 92.5t43 136t14.5 108.5q0 51 -10 99q-6 0 -26.5 -43t-43 -97t-55.5 -134
t-41 -99zM118 263q16 0 40 14.5t54.5 48t64 83.5t59 105t25.5 80q0 16 -11 16q-17 0 -86 -105.5t-146 -241.5zM590 608q-37 0 -104 -116t-128 -265q20 0 78 79.5t108.5 174.5t50.5 119q0 8 -5 8z" />
    <glyph glyph-name="T_h.liga" unicode="Th" horiz-adv-x="953" 
d="M708 662q-17 0 -37 -11t-39 -39.5t-37 -70.5q44 -28 76.5 -46t65.5 -25q45 76 87.5 121.5t76.5 45.5q21 0 31.5 -10.5t10.5 -27.5q0 -32 -27.5 -69.5t-63 -62.5t-75.5 -32q-40 -73 -78.5 -152.5t-40.5 -88.5l4 5q58 76 111.5 125t85.5 49q59 0 59 -52q0 -29 -18 -74.5
t-60 -120.5t-42 -86q0 -3 4 -4q27 0 69.5 38t84.5 95q23 28 34 28q8 0 8 -8t-8 -20q-57 -79 -104.5 -123.5t-89.5 -44.5q-47 0 -47 42q0 13 6 35.5t21 54t55 104.5t40 90q0 10 -9 10q-18 0 -51 -27t-78.5 -83t-93 -127.5t-70.5 -122.5l-4 -1q-4 0 -14.5 2.5t-16 8t-5.5 10.5
q0 7 32.5 92t73.5 177.5t83 169.5q-24 5 -53.5 19.5t-82.5 51.5q-2 -7 -4.5 -13.5t-45 -130.5t-91 -202t-113.5 -117.5t-148 -39.5q-57 0 -96.5 17t-61 48t-21.5 74q0 34 14 69t38.5 64t56.5 46t67 17q42 0 70.5 -12.5t44.5 -36t16 -55.5q0 -36 -21 -72.5t-48 -51.5t-51 -15
q-16 0 -16 9q0 4 5 7t12 3q16 0 35.5 12.5t34 42t14.5 58.5q0 24 -11 44t-31.5 28t-40.5 8q-28 0 -59 -17.5t-55 -60.5t-24 -85q0 -22 10 -48.5t40.5 -45.5t80.5 -19q45 0 89.5 23.5t89 87.5t100.5 206.5t78 186.5q-70 46 -117.5 61.5t-87.5 15.5q-23 0 -57.5 -13.5
t-63 -48.5t-28.5 -82q0 -41 23 -61t58 -20q22 0 53.5 10.5t58 36t26.5 53.5q0 11 5 11q3 0 6 -4.5t3 -10.5q0 -22 -9 -45t-32 -44.5t-55.5 -33t-58.5 -11.5q-35 0 -61.5 15.5t-40.5 42.5t-14 66q0 52 24 89t66 58t95 21q47 0 100.5 -15.5t122.5 -59.5q68 121 155 121
q9 0 15.5 -4.5t6.5 -9.5t-7 -8.5t-18 -3.5zM901 610q-25 0 -105 -142q29 6 55 27.5t44 50.5t18 49q0 15 -12 15z" />
    <glyph glyph-name="a_s.liga" unicode="as" horiz-adv-x="733" 
d="M763 163q-53 -77 -139 -95q-26 -75 -108 -75q-14 0 -27.5 8.5t-20.5 27.5t-7 39q0 15 4 28t10 13l2 -1q35 -19 94 -19q5 30 5 61q0 33 -4.5 83.5t-4.5 51.5q-84 -125 -164.5 -204t-132.5 -79q-62 0 -62 59q0 14 4 33.5t12 41t7 21.5l-2 -3q-33 -70 -77.5 -111t-92.5 -41
q-29 0 -43.5 22.5t-14.5 59.5q0 40 18 96.5t51 103.5t65 66t59 19q37 0 63 -21t31 -47q33 40 50.5 55.5t28.5 15.5q8 0 17 -10.5t9 -17.5l-1 -3q-36 -50 -69.5 -104t-54.5 -99t-21 -72q0 -13 7 -21.5t23 -8.5q34 0 105.5 75t188.5 250q7 20 27 34t47 14q17 0 17 -11
q-1 -6 -14 -16.5t-18.5 -22.5t-5.5 -28q0 -14 6 -75t6 -95q0 -30 -5 -63q11 3 35 15t41.5 28t26.5 28q18 22 29 22q8 0 8 -8t-8 -20zM62 36q28 0 57 24.5t55 63t50 82.5t28 51q6 11 6 23q0 20 -13.5 37.5t-32.5 17.5t-44.5 -21t-52 -64t-48 -97.5t-21.5 -89.5q0 -12 4 -19.5
t12 -7.5zM511 19q39 0 54 45q-24 1 -46.5 5.5t-35.5 10.5q7 -45 14 -53t14 -8z" />
    <glyph glyph-name="a_s_s.liga" unicode="ass" horiz-adv-x="991" 
d="M581 375q8 18 27 31t45 13q18 0 18 -10l-1 -5q-1 -5 -10 -11t-13 -10t-7 -8.5t-5.5 -12.5t-2.5 -21q0 -14 6 -75t6 -95q0 -24 -3 -48q1 1 13.5 6.5t26 15t37 35t56 77t68.5 118.5q8 18 27 31t45 13q18 0 18 -10l-1 -5q-1 -5 -10 -11t-13 -10t-7 -8.5t-5.5 -12.5t-2.5 -21
q0 -14 6 -78t6 -98q0 -23 -5 -55q27 10 53 26.5t42 36.5q23 28 34 28q8 0 8 -8q0 -5 -2 -10t-4.5 -8.5l-5 -7t-3.5 -4.5q-23 -28 -58 -50t-73 -33q-9 -27 -25 -47.5t-36 -28.5t-38 -8q-27 0 -44.5 19.5t-17.5 57.5q0 15 4 27.5t10 12.5l3 -2q28 -14 71 -14l23 1q5 26 5 57
q0 14 -1.5 40t-5 67t-3.5 46l-6 -9q-66 -106 -107.5 -147t-87.5 -63q-24 -86 -111 -86q-14 0 -27.5 8.5t-20.5 27.5t-7 40q0 15 4 27.5t10 12.5l3 -2q36 -18 74 -18l21 1q4 25 4 61q0 14 -1 37t-5 64t-4 46q-53 -79 -115 -156t-110.5 -113.5t-79.5 -36.5q-62 0 -62 59
q0 14 4 33.5t12 41t7 21.5l-2 -3q-33 -70 -77.5 -111t-92.5 -41q-29 0 -43.5 22.5t-14.5 59.5q0 40 18 96.5t51 103.5t65 66t59 19q37 0 63 -21t31 -47q33 40 50.5 55.5t28.5 15.5q8 0 17 -10.5t9 -17.5l-1 -3q-36 -50 -69.5 -104t-54.5 -99t-21 -72q0 -13 7 -21.5t23 -8.5
q34 0 108.5 79t195.5 260zM62 36q28 0 57 24.5t55 63t50 82.5t28 51q6 11 6 23q0 20 -13.5 37.5t-32.5 17.5t-44.5 -21t-52 -64t-48 -97.5t-21.5 -89.5q0 -12 4 -19.5t12 -7.5zM520 29q37 0 54 45h-14q-42 0 -68 14q4 -59 28 -59zM786 28q32 0 48 42h-13q-36 0 -68 12
q1 -26 10.5 -40t22.5 -14z" />
    <glyph glyph-name="b_s.liga" unicode="bs" horiz-adv-x="691" 
d="M341 121q-52 0 -70 40l-1 -1q-66 -91 -110 -124.5t-78 -33.5q-17 0 -34.5 8.5t-28 28.5t-10.5 41q0 38 10.5 96t37 129.5t62.5 136t72 108.5t67 66t57 22q34 0 34 -39q0 -28 -21.5 -82.5t-71.5 -135.5t-99.5 -134t-72.5 -53q-9 -26 -16 -58t-7 -55q0 -45 28 -45
q57 0 173 159q0 46 20 85t42 39q7 0 11.5 -5t4.5 -12q0 -1 -0.5 -4.5t-15.5 -46t-15 -69.5q0 -34 27 -34q42 0 92 51.5t101 149.5q4 17 15 31.5t28.5 21t32.5 6.5q18 0 18 -9l-1 -5q-1 -5 -10 -11t-13 -10t-7 -9t-5.5 -13t-2.5 -21q0 -14 6 -74.5t6 -94.5q0 -38 -5 -63
q27 8 53.5 24t44.5 41q4 6 16 17t18 11q8 0 8 -8t-8 -20q-53 -79 -139 -95q-26 -75 -108 -75q-14 0 -27.5 8.5t-20.5 27.5t-7 39q0 15 4 27t10 13v1q38 -20 90 -20h8q4 24 4 61q0 25 -8 121q-28 -44 -59.5 -78t-64 -53t-64.5 -19zM320 608q-37 0 -104 -116t-128 -265
q20 0 78 79.5t108.5 174.5t50.5 119q0 8 -5 8zM472 18q39 0 54 45q-53 2 -82 16q1 -33 9.5 -47t18.5 -14z" />
    <glyph glyph-name="d_s.liga" unicode="ds" horiz-adv-x="743" 
d="M775 163q-22 -39 -59 -62.5t-79 -31.5q-25 -76 -108 -76q-14 0 -27.5 8.5t-20.5 27.5t-7 40q0 15 3.5 27.5t9.5 12.5h1q17 -9 41.5 -14.5t47.5 -5.5h7q5 23 5 62q0 33 -9 135q-49 -73 -110.5 -145.5t-109 -105t-78.5 -32.5q-55 0 -55 67q0 18 9 73l-1 2q-1 0 -2.5 -2
t-16.5 -30t-38.5 -55t-52.5 -41t-59 -14q-16 0 -31.5 8t-24.5 29t-9 49q0 30 11.5 74.5t43 99.5t75.5 87.5t85 32.5q33 0 52 -27t19 -76l-1 -17q77 147 145 261t85 114q9 0 17 -11t8 -21q0 -12 -61.5 -122.5t-96 -172.5t-61 -117.5t-37.5 -87.5t-11 -49q0 -20 15 -20
q39 0 121.5 93t173.5 232q7 19 27 33t46 14q18 0 18 -11v-4q-1 -5 -10 -11t-13 -10t-7 -8.5t-5.5 -12.5t-2.5 -21q0 -14 6 -75t6 -95q0 -30 -5 -62q27 8 53.5 25.5t43.5 38.5q23 28 34 28q8 0 8 -8t-8 -20zM524 19q37 0 54 45q-53 2 -82 17q4 -35 11 -48.5t17 -13.5zM75 30
q29 0 61.5 30.5t59.5 77t42.5 89.5t15.5 69q0 23 -10.5 35.5t-29.5 12.5q-21 0 -50.5 -30.5t-56.5 -78t-43.5 -92.5t-16.5 -75q0 -38 28 -38z" />
    <glyph glyph-name="e_s.liga" unicode="es" horiz-adv-x="597" 
d="M629 163q-53 -77 -139 -95q-26 -75 -108 -75q-14 0 -27.5 8.5t-20.5 27.5t-7 39q0 15 4 28t10 13q14 -9 41.5 -14.5t47.5 -5.5h7q5 30 5 61q0 33 -9 135q-34 -50 -74.5 -100.5t-84 -93.5t-90.5 -71.5t-86 -28.5q-23 0 -46.5 10t-37 35.5t-13.5 59.5q0 43 19.5 93.5
t53.5 94t79.5 71t93.5 27.5q41 0 41 -32q0 -18 -15.5 -48t-53.5 -71.5t-82 -67.5t-75 -26q-6 -24 -6 -48q0 -35 14 -49.5t33 -14.5q40 0 97.5 46.5t123 130t113.5 160.5q7 19 27 33t47 14q17 0 17 -11q0 -7 -13 -17t-19 -22t-6 -28q0 -14 6 -75t6 -95q0 -30 -5 -63
q28 9 54.5 26t42.5 39q23 28 35 28q8 0 8 -8t-8 -20zM244 349q-24 0 -65 -37t-74.5 -84t-33.5 -58l2 -3q14 0 41.5 16.5t63 53t55 65t19.5 40.5q0 7 -8 7zM377 19q39 0 54 45q-24 1 -46.5 5.5t-35.5 10.5q7 -45 14 -53t14 -8z" />
    <glyph glyph-name="e_s_s.liga" unicode="ess" horiz-adv-x="854" 
d="M438 308q-62 -98 -128.5 -173t-119.5 -109.5t-92 -34.5q-23 0 -46.5 10t-37 35.5t-13.5 59.5q0 43 19.5 93.5t53.5 94t79.5 71t93.5 27.5q41 0 41 -32q0 -18 -15.5 -48t-53.5 -71.5t-82 -67.5t-75 -26q-6 -24 -6 -48q0 -35 14 -49.5t33 -14.5q40 0 93.5 44.5t119 124.5
t128.5 181q8 18 27 31t45 13q18 0 18 -10l-1 -5q-1 -5 -10 -11t-13 -10t-7 -8.5t-5.5 -12.5t-2.5 -21q0 -14 6 -75t6 -95q0 -24 -3 -48q1 1 13.5 6.5t26 15t37 35t56 77t68.5 118.5q8 18 27 31t45 13q18 0 18 -10l-1 -5q-1 -5 -10 -11t-13 -10t-7 -8.5t-5.5 -12.5t-2.5 -21
q0 -14 6 -78t6 -98q0 -23 -5 -55q27 10 53 26.5t42 36.5q23 28 34 28q8 0 8 -8q0 -5 -2 -10t-4.5 -8.5l-5 -7t-3.5 -4.5q-23 -28 -58 -50t-73 -33q-9 -27 -25 -47.5t-36 -28.5t-38 -8q-27 0 -44.5 19.5t-17.5 57.5q0 15 4 27.5t10 12.5l3 -2q28 -14 71 -14l23 1q5 26 5 57
q0 14 -1.5 40t-5 67t-3.5 46l-6 -9q-66 -106 -107.5 -147t-87.5 -63q-24 -86 -111 -86q-14 0 -27.5 8.5t-20.5 27.5t-7 40q0 15 4 27.5t10 12.5l3 -2q36 -18 74 -18l21 1q4 25 4 61q0 14 -1 37t-5 64t-4 46zM244 349q-24 0 -65 -37t-74.5 -84t-33.5 -58l2 -3q14 0 41.5 16.5
t63 53t55 65t19.5 40.5q0 7 -8 7zM383 29q37 0 54 45h-14q-42 0 -68 14q4 -59 28 -59zM649 28q32 0 48 42h-13q-36 0 -68 12q1 -26 10.5 -40t22.5 -14z" />
    <glyph glyph-name="f_j.liga" unicode="fj" horiz-adv-x="567" 
d="M384 166q-83 -47 -158 -45t-119 63q17 -92 17 -144q0 -66 -22.5 -141t-58.5 -130.5t-80 -78.5q-38 -20 -63.5 -18t-36.5 21t-10 48.5t13 61.5q83 216 183.5 422t176 310.5t118.5 104.5q12 0 23 -5.5t16.5 -18t5.5 -24.5q0 -44 -29.5 -106.5t-73.5 -121.5t-87.5 -97.5
t-67.5 -38.5q-7 0 -12 3l-5 -11q46 -42 87 -56.5t91 -1t113 62.5q32 86 68.5 138t80.5 52q15 0 23 -7.5t8 -19.5q0 -28 -34 -75.5t-88 -91.5q-4 -15 -29 -107.5t-40 -139.5l39 2q4 0 7 -3t3 -7v-3q-1 -6 -7 -10.5t-12 -4.5q-21 0 -39 -3q-48 -146 -102 -212t-119 -66
q-18 0 -34 8.5t-23 25.5t-7 33v6q4 35 23.5 70.5t50 66t69 51t76.5 31.5q1 5 5 17t24.5 78.5t35.5 111.5zM-92 -207q-16 -37 -17 -63t14 -27t43 19q35 25 64.5 80t50.5 130t21 135q0 51 -10 99q-6 0 -26.5 -43t-43 -97t-55.5 -134t-41 -99zM118 263q16 0 40 14.5t54.5 48
t64 83.5t59 105t25.5 80q0 16 -11 16q-17 0 -86 -105.5t-146 -241.5zM159 -301q37 0 72 51.5t76 173.5q-74 -29 -121.5 -85t-53.5 -104v-4q0 -16 7.5 -24t19.5 -8zM548 486q0 -17 9.5 -27t23.5 -10t27.5 10.5t13.5 25.5v1q0 17 -10 25.5t-22 8.5q-13 0 -27 -9.5t-15 -24.5z
M552 386q-34 0 -67 -96q33 30 53.5 55t20.5 35q0 6 -7 6z" />
    <glyph glyph-name="f_s.liga" unicode="fs" horiz-adv-x="604" 
d="M440 286q-6 -8 -30.5 -43t-48.5 -61t-45 -40.5t-42 -22.5t-49 -8q-29 0 -57.5 11t-51.5 32q8 -43 8 -114q0 -63 -20.5 -135t-52.5 -127t-71 -80.5t-77 -25.5q-25 0 -37.5 17.5t-12.5 45.5q0 31 14 68q81 215 181.5 421t176.5 311t119 105q12 0 23 -5.5t16.5 -18
t5.5 -24.5q0 -44 -29.5 -106.5t-73.5 -121.5t-87.5 -97.5t-67.5 -38.5q-7 0 -12 3l-5 -11q13 -37 43 -57t66 -20q35 0 66 19.5t55 47.5t40 51.5t34 52t24 38.5q4 16 15.5 30t29 20t31.5 6q17 0 17 -14q-1 -5 -10 -11t-13 -10t-7 -9t-5.5 -13t-2.5 -21q0 -14 6 -74.5t6 -94.5
q0 -38 -5 -63q27 8 53.5 25.5t43.5 39.5q23 28 35 28q8 0 8 -8t-8 -20q-55 -79 -139 -95q-26 -75 -108 -75q-14 0 -27.5 8.5t-20.5 27.5t-7 39q0 15 3.5 27.5t9.5 12.5h1v1q38 -20 89 -20h8q4 24 4 61q0 32 -4.5 82.5t-4.5 53.5zM384 18q39 0 54 45q-23 1 -45.5 5.5
t-35.5 10.5q0 -25 7 -43t20 -18zM-92 -207q-6 -14 -11.5 -34t-5.5 -33q0 -24 16 -24q29 0 60 28t59.5 92.5t43 136t14.5 108.5q0 51 -10 99q-4 0 -17 -24.5t-66.5 -153.5t-82.5 -195zM118 263q16 0 40 14.5t54.5 48t64 83.5t59 105t25.5 80q0 16 -11 16q-17 0 -86 -105.5
t-146 -241.5z" />
    <glyph glyph-name="h_s.liga" unicode="hs" horiz-adv-x="679" 
d="M221 36q36 0 115 82t179 225q3 18 14.5 34.5t30.5 24t34 7.5q17 0 17 -15q-1 -5 -10 -11t-13 -10t-7 -8.5t-5.5 -12.5t-2.5 -21q0 -14 6 -75t6 -95q0 -30 -5 -63q28 9 54.5 26t42.5 39q23 28 34 28q8 0 8 -8t-8 -20q-52 -77 -138 -95q-26 -75 -108 -75q-14 0 -27.5 8.5
t-20.5 27.5t-7 40q0 15 3.5 27.5t9.5 12.5h1q17 -9 41.5 -14.5t47.5 -5.5h7q5 23 5 62q0 44 -9 127q-51 -72 -107.5 -135.5t-107 -102t-87.5 -38.5q-46 0 -46 41q0 13 6 35.5t21 54.5t54.5 105.5t39.5 90.5q0 10 -9 10q-23 0 -70.5 -42.5t-114 -134.5t-95.5 -157l-4 -1
q-4 0 -14.5 2.5t-16 8t-5.5 10.5q0 10 53 134t115.5 243t111.5 177.5t80 58.5q37 0 37 -34q0 -28 -26 -74t-77.5 -103t-116.5 -105q-53 -104 -61 -126l4 4q138 174 198 174q59 0 59 -52q0 -29 -18 -75t-60 -121t-42 -86q0 -3 4 -4zM321 610q-9 0 -28.5 -22.5t-52.5 -77
t-77 -138.5q71 66 119 133t48 94q0 11 -9 11zM460 19q37 0 54 45q-53 2 -82 17q4 -35 11 -48.5t17 -13.5z" />
    <glyph glyph-name="i_s.liga" unicode="is" horiz-adv-x="518" 
d="M28 2q-23 0 -33 15t-10 46q0 27 17.5 78t44.5 109t53 97t39 39q11 0 20 -9t9 -25q0 -11 -57 -112t-72.5 -138t-15.5 -52q0 -14 11 -14q19 0 53 23.5t89.5 82t116.5 136t68 89.5q8 17 27 29.5t44 12.5q18 0 18 -10l-1 -5q-1 -5 -10 -11t-13 -10t-7 -8.5t-5.5 -12.5
t-2.5 -21q0 -14 6 -75t6 -95q0 -30 -5 -63q28 9 55 26t43 39q4 6 16 17t18 11q8 0 8 -8t-8 -20q-53 -79 -139 -95q-26 -75 -108 -75q-14 0 -27.5 8.5t-20.5 27.5t-7 40q0 15 4 27.5t10 12.5q14 -8 38.5 -14t50.5 -6h8q5 23 5 62q0 13 -1 35t-5 62t-4 45
q-92 -125 -182.5 -208t-143.5 -83zM174 486q1 15 15 24.5t27 9.5q12 0 22 -8.5t10 -25.5v-1q0 -15 -13.5 -25.5t-27.5 -10.5t-23.5 10t-9.5 27zM299 19q37 0 54 45q-53 2 -82 17q4 -35 11 -48.5t17 -13.5z" />
    <glyph glyph-name="i_s_s.liga" unicode="iss" horiz-adv-x="775" 
d="M365 375q8 18 27 31t45 13q18 0 18 -10l-1 -5q-1 -5 -10 -11t-13 -10t-7 -8.5t-5.5 -12.5t-2.5 -21q0 -14 6 -75t6 -95q0 -24 -3 -48q1 1 13.5 6.5t26 15t37 35t56 77t68.5 118.5q8 18 27 31t45 13q18 0 18 -10l-1 -5q-1 -5 -10 -11t-13 -10t-7 -8.5t-5.5 -12.5t-2.5 -21
q0 -14 6 -78t6 -98q0 -23 -5 -55q27 10 53 26.5t42 36.5q23 28 34 28q8 0 8 -8q0 -5 -2 -10t-4.5 -8.5l-5 -7t-3.5 -4.5q-23 -28 -58 -50t-73 -33q-9 -27 -25 -47.5t-36 -28.5t-38 -8q-27 0 -44.5 19.5t-17.5 57.5q0 15 4 27.5t10 12.5l3 -2q28 -14 71 -14l23 1q5 26 5 57
q0 14 -1.5 40t-5 67t-3.5 46l-6 -9q-66 -106 -107.5 -147t-87.5 -63q-24 -86 -111 -86q-14 0 -27.5 8.5t-20.5 27.5t-7 40q0 15 4 27.5t10 12.5l3 -2q36 -18 74 -18l21 1q4 25 4 61q0 14 -1 37t-5 64t-4 46q-56 -76 -125.5 -154.5t-122 -115t-83.5 -36.5q-23 0 -33 15
t-10 46q0 27 17.5 78t44.5 109t53 97t39 39q11 0 20 -9t9 -25q0 -11 -57 -112t-72.5 -138t-15.5 -52q0 -14 11 -14q19 0 53 24t90.5 84t118.5 139.5t69 91.5zM174 486q1 15 15 24.5t27 9.5q12 0 22 -8.5t10 -25.5v-1q0 -15 -13.5 -25.5t-27.5 -10.5t-23.5 10t-9.5 27z
M304 29q37 0 54 45h-14q-42 0 -68 14q4 -59 28 -59zM570 28q32 0 48 42h-13q-36 0 -68 12q1 -26 10.5 -40t22.5 -14z" />
    <glyph glyph-name="i_t.liga" unicode="it" horiz-adv-x="380" 
d="M615 533q4 0 6 -2t2 -4q0 -7 -17 -13.5t-51 -6.5q-64 0 -106 5q-97 -162 -163 -293t-66 -168q0 -14 10 -14q27 0 69 38t85 95q4 6 16 17t18 11q2 0 4.5 -2t2.5 -5q0 -9 -15 -31q-109 -158 -187 -158q-25 0 -37 20t-12 52q0 14 2 22q-80 -94 -138 -94q-17 0 -30 11.5
t-13 49.5q0 34 31 114.5t69.5 144.5t54.5 64q11 0 19.5 -9t8.5 -25q0 -11 -56.5 -111t-72.5 -137.5t-16 -52.5q0 -14 12 -14q27 0 69 38t84 95q21 55 70 151.5t116 201.5q-33 7 -71 7q-12 0 -23.5 -5.5t-19.5 -12.5t-28.5 -27.5t-33.5 -20.5q-3 0 -8 4t-5 9q0 9 13.5 31
t38 38.5t60.5 16.5q26 0 96 -11q58 86 73 86t23.5 -11t8.5 -19l-2 -5q-2 -2 -38 -60q72 -10 147 -10z" />
    <glyph glyph-name="i_t_s.liga" unicode="its" horiz-adv-x="716" 
d="M220 50q0 -14 9 -14q23 0 60 28t75.5 68.5t68.5 75.5t50 60.5t34 42.5t22.5 29t20.5 27q8 17 26.5 29t43.5 12q18 0 18 -9l-1 -5q-1 -5 -10 -11t-13 -10t-7 -9t-5.5 -13t-2.5 -21q0 -14 6 -74.5t6 -94.5q0 -38 -5 -63q28 9 54.5 26t42.5 39q23 28 35 28q8 0 8 -8t-15 -30
q-23 -35 -57.5 -56t-74.5 -29q-26 -75 -108 -75q-14 0 -27.5 8.5t-20.5 27.5t-7 40q0 15 4 27.5t10 12.5l2 -1q37 -19 87 -19h9q4 25 4 63q0 13 -1 39t-4.5 62.5t-3.5 41.5q-54 -73 -124 -148.5t-122 -110t-84 -34.5q-25 0 -37.5 19.5t-12.5 51.5l3 23q-80 -94 -138 -94
q-17 0 -30 11.5t-13 49.5q0 34 31 114.5t69.5 144.5t54.5 64q11 0 19.5 -9t8.5 -25q0 -11 -56.5 -111t-72.5 -137.5t-16 -52.5q0 -14 12 -14q27 0 69 38t84 95q21 55 70 151.5t116 201.5q-33 7 -71 7q-12 0 -23.5 -5.5t-19.5 -12.5t-28.5 -27.5t-33.5 -20.5q-3 0 -8 4t-5 9
q0 9 13.5 31t38 38.5t60.5 16.5q26 0 96 -11q58 86 73 86t23.5 -11t8.5 -19l-2 -5q-2 -2 -38 -60q72 -10 147 -10q4 0 6 -2t2 -4q0 -7 -17 -13.5t-51 -6.5q-64 0 -106 5q-36 -61 -88 -152.5t-96.5 -184.5t-44.5 -125zM496 18q40 0 55 46q-24 0 -46.5 4.5t-35.5 11.5
q3 -27 9 -44.5t18 -17.5z" />
    <glyph glyph-name="k_s.liga" unicode="ks" horiz-adv-x="705" 
d="M86 206q-75 -201 -86 -201q-15 0 -27.5 6t-12.5 14q0 10 53 133.5t116 243t111.5 178t79.5 58.5q38 0 38 -35q0 -28 -28 -77.5t-81 -105t-110 -97.5l-17 -35q31 28 68.5 54.5t70.5 39.5t55 13t33.5 -13t11.5 -35q0 -36 -25.5 -72.5t-64.5 -58.5t-89 -22l-1 -6
q0 -14 5 -46.5t17.5 -61t24.5 -36.5t21 -8q35 0 85 47t108 124.5t107 160.5q8 17 27 29t44 12q17 0 17 -11v-4q0 -1 -1.5 -3t-12.5 -10t-15.5 -16t-6.5 -17t-2 -17q0 -14 6 -74.5t6 -94.5q0 -31 -5 -64q28 9 54.5 26t42.5 39q23 28 34 28q8 0 8 -8t-8 -20q-52 -77 -139 -95
q-26 -75 -108 -75q-14 0 -27 8.5t-20 28t-7 39.5q0 15 3.5 27.5t9.5 12.5l2 -2q38 -18 87 -18h8q5 23 5 62q0 7 -0.5 26.5t-4.5 61.5t-5 51q-71 -101 -108 -147.5t-70 -77.5t-63 -47.5t-57 -16.5q-38 0 -65.5 28.5t-42 81.5t-14.5 104v7q41 0 85 17t75.5 52t31.5 59
q0 16 -15 16q-9 0 -40.5 -15.5t-68 -40.5t-65 -52t-38.5 -52zM321 610q-34 0 -157 -237q71 66 119 132.5t48 93.5q0 11 -10 11zM486 19q37 0 54 45q-53 2 -82 17q4 -35 11 -48.5t17 -13.5z" />
    <glyph glyph-name="l_s.liga" unicode="ls" horiz-adv-x="574" 
d="M606 163q-52 -77 -139 -95q-26 -75 -108 -75q-14 0 -27.5 8.5t-20.5 27.5t-7 40q0 15 3.5 27.5t9.5 12.5h1q17 -9 41.5 -14.5t47.5 -5.5h8q4 25 4 62q0 13 -0.5 28.5t-8.5 113.5q-36 -48 -85 -105.5t-98 -102t-85 -64t-60 -19.5q-18 0 -34 7.5t-27.5 26t-11.5 44.5
q0 38 10.5 96t37 129.5t62.5 136t72 108.5t67 66t57 22q34 0 34 -39q0 -38 -31.5 -105.5t-77.5 -137t-90 -116t-67 -46.5q-9 -25 -16 -57t-7 -55q0 -46 29 -46q40 0 134 97t192 231q8 18 27.5 31t45.5 13q17 0 17 -14q-1 -5 -10 -11t-13 -10t-7 -9t-5.5 -13t-2.5 -21
q0 -14 6 -74.5t6 -94.5q0 -38 -5 -63q28 9 54.5 26t42.5 39q23 28 35 28q8 0 8 -8t-8 -20zM320 608q-37 0 -104 -116t-129 -265q20 0 78.5 79.5t109 174.5t50.5 119q0 8 -5 8zM354 18q39 0 54 46q-54 2 -81 16q4 -30 8.5 -43t10 -16t8.5 -3z" />
    <glyph glyph-name="m_s.liga" unicode="ms" horiz-adv-x="900" 
d="M256 387q39 0 55 -17.5t15 -46t-13.5 -70.5t-13.5 -47q6 9 40 63.5t64 82.5t60 28q61 0 61 -57q0 -40 -33 -125.5t-37.5 -104.5t-4.5 -28q0 -25 23 -25q24 0 61 34t95.5 114t118.5 186q9 14 26.5 24t40.5 10q18 0 18 -9l-1 -5q-1 -5 -10 -11t-13 -10t-7 -9t-5.5 -13
t-2.5 -21q0 -14 6 -74.5t6 -94.5q0 -38 -5 -63q66 21 98 65q4 6 16 17t18 11q8 0 8 -8t-8 -20q-53 -79 -139 -95q-26 -75 -108 -75q-14 0 -27.5 8.5t-20.5 27.5t-7 40q0 15 4 27.5t10 12.5l2 -1q37 -19 87 -19h9q4 25 4 62q0 32 -4.5 82t-4.5 52q-77 -118 -122 -172
t-81.5 -81t-67.5 -27q-70 0 -70 74q0 22 8 58.5t35.5 111.5t27.5 90q0 10 -7 10q-13 0 -34 -17t-51 -58t-54.5 -81t-67.5 -112.5t-50 -72.5q-15 0 -27.5 6t-12.5 14q0 5 33.5 94t49 140.5t15.5 74.5q0 18 -9 18t-25 -11.5t-41.5 -46t-50 -74.5t-79 -133t-67.5 -93
q-11 0 -25 3.5t-14 8.5l79 196q5 12 24 59.5t32 72t26.5 33t26.5 8.5q17 0 10 -17q0 -1 -2 -5t-37.5 -81.5t-38.5 -93.5q4 4 36.5 59.5t57 85t47.5 45.5t45 16zM681 18q39 0 54 46q-55 2 -82 16q4 -35 11 -48.5t17 -13.5z" />
    <glyph glyph-name="n_s.liga" unicode="ns" horiz-adv-x="713" 
d="M268 386q60 0 60 -60q0 -39 -29.5 -123.5t-33.5 -104t-4 -29.5q0 -13 6.5 -21t18.5 -8q19 0 48 22.5t65 68t65.5 89.5t49 75.5t30.5 50.5t12 20q8 17 27.5 29.5t43.5 12.5q18 0 18 -9l-1 -5q-1 -5 -10 -11t-13 -10t-7 -9t-5.5 -13t-2.5 -21q0 -14 6 -74.5t6 -94.5
q0 -38 -5 -63q28 9 55 26t43 39q4 7 15.5 17.5t18.5 10.5q8 0 8 -8t-8 -20q-53 -79 -139 -95q-26 -75 -108 -75q-14 0 -27.5 8.5t-20.5 27.5t-7 40q0 15 4 27.5t10 12.5l3 -2q36 -18 86 -18h9q4 25 4 62q0 32 -4.5 81t-4.5 52q-103 -158 -164.5 -218.5t-106.5 -60.5
q-80 0 -80 79q0 31 12 74t38.5 110.5t26.5 81.5q0 9 -6 9q-18 0 -43.5 -18t-61.5 -65.5t-90.5 -140t-63 -106t-17.5 -23.5t-13 -10q-11 0 -21 4t-10 9l87 215q39 97 49.5 115.5t23 28.5t28.5 10q17 0 10 -17q0 -1 -2 -5t-37.5 -81.5t-38.5 -93.5q4 4 34.5 51t51 72.5t35 40
t35 28t42.5 13.5zM494 18q39 0 54 46q-23 1 -46 5.5t-36 10.5q7 -45 14 -53.5t14 -8.5z" />
    <glyph glyph-name="o_s.liga" unicode="os" horiz-adv-x="606" 
d="M443 302q-30 -61 -80 -103t-90 -42q-19 0 -32 10q-37 -69 -90.5 -120.5t-86.5 -51.5q-15 0 -30.5 7.5t-24 28t-8.5 47.5q0 20 7 57t30.5 88.5t52 86.5t56 52.5t53.5 17.5q43 0 63.5 -21t20.5 -57q0 -22 -11 -62q-3 -10 -3 -22q0 -13 6 -22t17 -9q19 0 45.5 21t55.5 62.5
t49 78.5q4 17 15.5 31.5t29 21t32.5 6.5q18 0 18 -9l-1 -5q-1 -5 -10 -11t-12.5 -10t-6.5 -9t-5.5 -13t-2.5 -21q0 -14 6 -74.5t6 -93.5q0 -31 -5 -64q27 8 53 24t44 41q4 6 16 17t18 11q8 0 8 -8q0 -6 -8 -20q-20 -35 -57.5 -60t-81.5 -35q-27 -75 -108 -75q-14 0 -27 8.5
t-20 27.5t-7 39q0 15 3.5 27t8.5 13l1 1q38 -20 90 -20h7q5 30 5 61q0 69 -9 152zM72 24q28 0 72.5 54.5t75.5 121.5q-4 29 -4 44q0 21 9.5 44.5t25.5 34.5q-5 34 -37 34q-24 0 -57.5 -40t-68 -125t-34.5 -135q0 -14 5 -23.5t13 -9.5zM387 18q37 0 54 45q-53 2 -82 17
q4 -35 11 -48.5t17 -13.5z" />
    <glyph glyph-name="o_s_s.liga" unicode="oss" horiz-adv-x="865" 
d="M449 308q-30 -61 -83 -106t-93 -45q-19 0 -32 10q-37 -69 -90.5 -120.5t-86.5 -51.5q-15 0 -30.5 7.5t-24 28t-8.5 47.5q0 20 7 57t30.5 88.5t52 86.5t56 52.5t53.5 17.5q43 0 63.5 -21t20.5 -57q0 -22 -11 -62q-3 -10 -3 -22q0 -13 6 -22t17 -9q29 0 72 51t90 137
q8 18 27 31t45 13q18 0 18 -10l-1 -5q-1 -5 -10 -11t-13 -10t-7 -8.5t-5.5 -12.5t-2.5 -21q0 -14 6 -75t6 -95q0 -24 -3 -48q1 1 13.5 6.5t26 15t37 35t56 77t68.5 118.5q8 18 27 31t45 13q18 0 18 -10l-1 -5q-1 -5 -10 -11t-13 -10t-7 -8.5t-5.5 -12.5t-2.5 -21
q0 -14 6 -78t6 -98q0 -23 -5 -55q27 10 53 26.5t42 36.5q23 28 34 28q8 0 8 -8q0 -5 -2 -10t-4.5 -8.5l-5 -7t-3.5 -4.5q-23 -28 -58 -50t-73 -33q-9 -27 -25 -47.5t-36 -28.5t-38 -8q-27 0 -44.5 19.5t-17.5 57.5q0 15 4 27.5t10 12.5l3 -2q28 -14 71 -14l23 1q5 26 5 57
q0 14 -1.5 40t-5 67t-3.5 46l-6 -9q-66 -106 -107.5 -147t-87.5 -63q-24 -86 -111 -86q-14 0 -27.5 8.5t-20.5 27.5t-7 40q0 15 4 27.5t10 12.5l3 -2q36 -18 74 -18l21 1q4 25 4 61q0 14 -1 37t-5 64t-4 46zM394 29q37 0 54 45h-14q-42 0 -68 14q4 -59 28 -59zM660 28
q32 0 48 42h-13q-36 0 -68 12q1 -26 10.5 -40t22.5 -14zM72 24q28 0 72.5 54.5t75.5 121.5q-4 29 -4 44q0 21 9.5 44.5t25.5 34.5q-5 34 -37 34q-24 0 -57.5 -40t-68 -125t-34.5 -135q0 -14 5 -23.5t13 -9.5z" />
    <glyph glyph-name="p_s.liga" unicode="ps" horiz-adv-x="729" 
d="M105 260l-33 -85q1 1 13 17t32 40.5t55.5 63.5t65.5 59.5t47 20.5q46 0 46 -45q0 -35 -34.5 -121t-39.5 -107.5t-5 -31.5q0 -31 30 -31q50 0 164 145q44 56 124 177q8 19 27.5 32.5t45.5 13.5q17 0 17 -14q-1 -5 -10 -11t-13 -10t-7 -9t-5.5 -13t-2.5 -21q0 -14 6 -74.5
t6 -94.5q0 -38 -5 -63q28 9 54.5 26t42.5 39q23 28 35 28q8 0 8 -8t-8 -20q-52 -77 -139 -95q-26 -75 -108 -75q-14 0 -27.5 8.5t-20.5 27.5t-7 40q0 15 3.5 27.5t9.5 12.5l2 -1q40 -19 88 -19h8q4 25 4 62q0 32 -4.5 81t-4.5 52q-81 -124 -159.5 -201.5t-130.5 -77.5
q-79 0 -79 68q0 31 15.5 74.5t48.5 110.5t33 79q0 6 -5 6q-16 0 -62.5 -42t-105.5 -123t-117 -205t-99 -280q-1 -4 -7 -7t-12 -3q-10 0 -18.5 7.5t-8.5 24.5q0 27 71.5 224.5t129.5 330.5q47 108 82 108q17 0 10 -17zM509 18q39 0 54 46q-24 1 -46.5 5.5t-35.5 10.5
q0 -62 28 -62z" />
    <glyph glyph-name="r_s.liga" unicode="rs" horiz-adv-x="626" 
d="M407 18q39 0 54 45q-53 2 -82 17q1 -26 7.5 -44t20.5 -18zM276 394q10 0 21.5 -8t11.5 -23q0 -4 -11.5 -36t-17 -54.5t-5.5 -36.5q0 -24 8.5 -35t22.5 -11q24 0 56.5 22t65.5 67.5t36 71.5q1 16 12 30.5t29.5 20.5t34.5 6q18 0 18 -9l-1 -5q-1 -5 -10 -11t-13 -10t-7 -9
t-5.5 -13t-2.5 -21q0 -14 6 -74.5t6 -94.5q0 -38 -5 -63q61 18 97 65h1q4 6 16 17t18 11q8 0 8 -8t-8 -20q-53 -79 -139 -95q-26 -75 -108 -75q-14 0 -27.5 8.5t-20.5 27.5t-7 39q0 15 4 27t10 13v1q40 -20 90 -20h8q4 24 4 61q0 29 -8 128q-34 -50 -81 -82t-85 -32
q-39 0 -58.5 22.5t-19.5 58.5q0 22 7.5 49.5t20.5 51.5q-18 -11 -44.5 -37t-59 -71.5t-74 -113.5t-61 -98t-28.5 -30q-11 0 -21 4t-10 9l80 199q2 4 5 12t20 50t29.5 64t25 33t28.5 11q12 0 12 -9l-2 -8q0 -1 -2 -5t-37.5 -81.5t-38.5 -93.5q2 2 45 66.5t74.5 95.5t52 41
t34.5 10z" />
    <glyph glyph-name="s_s.liga" unicode="ss" horiz-adv-x="563" 
d="M319 111q28 -14 71 -14l23 1q5 26 5 57q0 14 -1.5 40t-5 67t-3.5 46l-6 -9q-66 -106 -107.5 -147t-87.5 -63q-24 -86 -111 -86q-14 0 -27.5 8.5t-20.5 27.5t-7 40q0 15 4 27.5t10 12.5l3 -2q36 -18 74 -18l21 1q4 25 4 61q0 14 -1 37t-5 64t-4 46q-10 -13 -51.5 -64.5
t-54.5 -69.5q-8 -12 -17.5 -21.5t-15.5 -9.5q-9 0 -9 10q0 11 12 28l142 194q8 18 27 31t45 13q18 0 18 -10l-1 -5q-1 -5 -10 -11t-13 -10t-7 -8.5t-5.5 -12.5t-2.5 -21q0 -14 6 -75t6 -95q0 -24 -3 -48q1 1 13.5 6.5t26 15t37 35t56 77t68.5 118.5q8 18 27 31t45 13
q18 0 18 -10l-1 -5q-1 -5 -10 -11t-13 -10t-7 -8.5t-5.5 -12.5t-2.5 -21q0 -14 6 -78t6 -98q0 -23 -5 -55q27 10 53 26.5t42 36.5q23 28 34 28q8 0 8 -8q0 -5 -2 -10t-4.5 -8.5l-5 -7t-3.5 -4.5q-23 -28 -58 -50t-73 -33q-9 -27 -25 -47.5t-36 -28.5t-38 -8
q-27 0 -44.5 19.5t-17.5 57.5q0 15 4 27.5t10 12.5zM92 29q37 0 54 45h-14q-42 0 -68 14q4 -59 28 -59zM358 28q32 0 48 42h-13q-36 0 -68 12q1 -26 10.5 -40t22.5 -14z" />
    <glyph glyph-name="t_h.liga" unicode="th" horiz-adv-x="581" 
d="M56 27q-24 0 -36.5 20t-12.5 52q0 31 25.5 99.5t87.5 179.5q-65 -5 -124 -5q-3 1 -8.5 4.5t-5.5 11.5q0 5 7 10.5t24 5.5q71 0 126 7q52 91 100.5 158.5t61.5 67.5q15 0 23 -11t8 -19l-1 -5q-5 -6 -25.5 -37.5t-83.5 -139.5q8 2 39 7.5t56 11.5t42 13q104 180 170 180
q18 0 28.5 -10t10.5 -27q0 -33 -39 -76.5t-111 -77.5q-38 -67 -83.5 -153.5t-48.5 -98.5l4 5q58 76 111.5 125t85.5 49q59 0 59 -52q0 -29 -18 -74.5t-60 -120.5t-42 -86q0 -3 4 -4q27 0 69.5 38t84.5 95q23 28 34 28q8 0 8 -8t-8 -20q-117 -168 -194 -168q-47 0 -47 42
q0 13 6 35.5t21 54t55 105t40 90.5q0 10 -9 10q-23 0 -72.5 -47t-120 -147.5t-100.5 -166.5l-4 -1q-8 0 -22 6t-14 15q0 6 30 87q-21 -24 -58.5 -41t-72.5 -17zM334 415q-24 -8 -77.5 -17t-56.5 -10q-60 -106 -103.5 -195.5t-43.5 -121.5q0 -14 10 -14q36 0 86 42.5t78 84.5
q55 133 107 231zM530 610q-15 0 -79 -106q42 28 64 56t22 42q0 8 -7 8z" />
    <glyph glyph-name="t_i.liga" unicode="ti" horiz-adv-x="386" 
d="M135 566q44 -3 90 -14q58 86 72 86q15 0 23 -11t8 -19l-1 -5q-5 -5 -42 -66q66 -17 84 -20t27 -4q27 34 61.5 58.5t64.5 24.5q22 0 33.5 -8t11.5 -20q0 -16 -18 -34t-46.5 -28.5t-54.5 -14.5q-42 -55 -67 -55q-6 0 -11.5 4t-5.5 12q0 14 15 38q-55 3 -111 20
q-97 -163 -162 -292.5t-65 -166.5q0 -14 10 -14q44 0 104.5 73t63.5 76q35 86 70.5 143t50.5 57q11 0 19.5 -9t8.5 -25q0 -11 -56.5 -111.5t-72 -137.5t-15.5 -52q0 -14 11 -14q27 0 69 38t85 95q23 28 34 28q8 0 8 -8t-8 -20q-72 -99 -116.5 -133.5t-78.5 -34.5
q-17 0 -30 11.5t-13 49.5q0 16 8 45q-87 -106 -149 -106q-25 0 -37 20t-12 52q0 22 11.5 59.5t34.5 89t69 137.5t99 168q-35 10 -65 10q-18 0 -35 -2t-30 -5t-15 -3l-5 1q-9 6 -9 12q0 7 13 14q7 4 33.5 7.5t38.5 3.5zM522 577q-5 0 -14.5 -7t-39.5 -50q31 8 50 22t19 25
q0 10 -15 10z" />
    <glyph glyph-name="t_l.liga" unicode="tl" horiz-adv-x="416" 
d="M342 -95q3 -1 9 -6t6 -12q0 -8 -18 -8h-7q-64 18 -92.5 67t-28.5 117q0 35 6 72q-32 -49 -83 -88.5t-85 -39.5q-22 0 -38 19.5t-16 57.5q0 28 20 85.5t68 150t99 174.5l-68 -1q-67 0 -67 14q0 4 4.5 7.5t32.5 3.5h5l111 4q34 52 59 84t34 32q15 0 23 -11t8 -19l-1 -5
q-6 -6 -50 -79l57 1l61 -1q39 52 75.5 83t63.5 31q34 0 34 -35t-31.5 -98t-79 -132t-95 -125t-74.5 -75q-21 -64 -21 -118t21 -94t58 -56zM59 37q32 0 87 56t88 110q23 74 61 156.5t77 138.5l-116 -2q-94 -158 -152.5 -278t-58.5 -161q0 -20 14 -20zM535 608
q-37 0 -107.5 -118.5t-136.5 -270.5q16 12 80 100t116.5 175t52.5 108q0 2 -1.5 4t-3.5 2z" />
    <glyph glyph-name="t_s.liga" unicode="ts" horiz-adv-x="541" 
d="M48 2q-25 0 -37.5 19.5t-12.5 51.5q0 47 53.5 164.5t139.5 256.5l-70 -1q-66 0 -66 14q0 4 4.5 7.5t36.5 3.5l113 4q33 52 58.5 84t33.5 32q15 0 23 -11t8 -19l-1 -5q-4 -4 -49 -79l50 1q75 0 75 -7l1 -10q0 -5 -5 -7.5t-35 -2.5l-103 -1q-98 -166 -159 -289t-61 -158
q0 -14 9 -14q23 0 60 28t75.5 68.5t68.5 75.5t50 60.5t34 42.5t22.5 29t20.5 27q8 17 26.5 29t43.5 12q18 0 18 -9l-1 -5q-1 -5 -10 -11t-13 -10t-7 -9t-5.5 -13t-2.5 -21q0 -14 6 -74.5t6 -94.5q0 -38 -5 -63q28 9 54.5 26t42.5 39q23 28 35 28q8 0 8 -8t-15 -30
q-23 -35 -57.5 -56t-74.5 -29q-26 -75 -108 -75q-14 0 -27.5 8.5t-20.5 27.5t-7 40q0 15 4 27.5t10 12.5l2 -1q37 -19 87 -19h9q4 25 4 63q0 13 -1 39t-4.5 62.5t-3.5 41.5q-54 -73 -124 -148.5t-122 -110t-84 -34.5zM321 18q40 0 55 46q-24 0 -46.5 4.5t-35.5 11.5
q3 -27 9 -44.5t18 -17.5z" />
    <glyph glyph-name="t_t.liga" unicode="tt" horiz-adv-x="364" 
d="M48 507q0 3 6 6.5t50 3.5l95 2q34 53 60 86t35 33q15 0 23.5 -11t8.5 -19l-2 -5q-8 -8 -52 -82l99 2q46 70 88.5 118.5t60.5 48.5q10 0 15.5 -6.5t5.5 -14.5q0 -10 -4 -14q-38 -38 -99 -131h45q118 0 118 -7l1 -9q0 -6 -12 -8.5t-52 -2.5l-118 -1q-32 -51 -69.5 -122
t-63 -137.5t-35.5 -115.5t-10 -83q0 -102 75 -133q3 -1 9 -6t6 -13t-15 -8l-10 1q-62 15 -91.5 59.5t-29.5 108.5q0 38 9 81q-24 -36 -52.5 -66t-52 -42.5t-39.5 -12.5q-12 0 -25.5 8t-21 26.5t-7.5 41.5q0 27 20 85t67.5 150.5t97.5 173.5h-24q-55 0 -82.5 3.5t-27.5 11.5z
M220 219q22 64 59 139.5t75 136.5l-99 -2q-95 -162 -152 -279.5t-57 -157.5q0 -20 14 -20q21 0 53.5 32.5t106.5 150.5z" />
    <glyph glyph-name="u_s.liga" unicode="us" horiz-adv-x="726" 
d="M285 2q-65 0 -65 67q0 5 1.5 21.5t9.5 46.5t8 31q-3 -3 -28 -36.5t-42 -52.5t-35.5 -36t-41.5 -29.5t-44 -12.5q-56 0 -56 64q0 36 22 98.5t65 129t63 66.5q11 0 19 -5t8 -13q0 -2 -3 -10t-50 -89t-62 -121.5t-15 -60.5q0 -27 11 -27q15 0 37 15.5t50 51.5t74.5 104.5
t65.5 92.5t33.5 36.5t25.5 12.5q5 0 10.5 -2t6.5 -13v-3q-3 -9 -27 -68t-39.5 -112t-15.5 -79q0 -15 5.5 -24t15.5 -9q25 0 70.5 43.5t105 127t97.5 146.5q6 23 26.5 39t48.5 16q18 0 18 -10v-4q-1 -5 -10 -11t-13 -10t-7 -9t-5.5 -13t-2.5 -21q0 -14 6 -74.5t6 -94.5
q0 -30 -5 -63q28 9 54.5 26t42.5 39q23 28 34 28q8 0 8 -8t-8 -20q-52 -77 -138 -95q-26 -75 -108 -75q-14 0 -27.5 8.5t-20.5 27.5t-7 40q0 15 3.5 27.5t9.5 12.5l2 -1q40 -19 88 -19h8q4 25 4 62q0 63 -8 137q-43 -69 -104 -144t-105 -108.5t-70 -33.5zM507 18q39 0 54 46
q-24 1 -46.5 5.5t-35.5 10.5q4 -62 28 -62z" />
    <glyph glyph-name="u_s_s.liga" unicode="uss" horiz-adv-x="985" 
d="M569 308q-46 -73 -107.5 -153t-106.5 -116.5t-70 -36.5q-65 0 -65 67q0 5 1.5 21.5t9.5 46.5t8 31q-3 -3 -28 -36.5t-42 -52.5t-35.5 -36t-41.5 -29.5t-44 -12.5q-56 0 -56 64q0 36 22 98.5t65 129t63 66.5q11 0 19 -5t8 -13q0 -2 -3 -10t-50 -89t-62 -121.5t-15 -60.5
q0 -27 11 -27q15 0 37 15.5t50 51.5t74.5 104.5t65.5 92.5t33.5 36.5t25.5 12.5q5 0 10.5 -2t6.5 -13v-3q-3 -9 -27 -68t-39.5 -112t-15.5 -79q0 -15 5.5 -24t15.5 -9q19 0 56.5 32t102.5 120.5t124 186.5q8 18 27 31t45 13q18 0 18 -10l-1 -5q-1 -5 -10 -11t-13 -10
t-7 -8.5t-5.5 -12.5t-2.5 -21q0 -14 6 -75t6 -95q0 -24 -3 -48q1 1 13.5 6.5t26 15t37 35t56 77t68.5 118.5q8 18 27 31t45 13q18 0 18 -10l-1 -5q-1 -5 -10 -11t-13 -10t-7 -8.5t-5.5 -12.5t-2.5 -21q0 -14 6 -78t6 -98q0 -23 -5 -55q27 10 53 26.5t42 36.5q23 28 34 28
q8 0 8 -8q0 -5 -2 -10t-4.5 -8.5l-5 -7t-3.5 -4.5q-50 -59 -131 -83q-9 -27 -25 -47.5t-36 -28.5t-38 -8q-27 0 -44.5 19.5t-17.5 57.5q0 15 4 27.5t10 12.5l3 -2q28 -14 69 -14l25 1q5 25 5 57q0 14 -1.5 40t-5 67t-3.5 46l-6 -9q-66 -106 -107.5 -147t-87.5 -63
q-24 -86 -111 -86q-14 0 -27.5 8.5t-20.5 27.5t-7 40q0 15 4 27.5t10 12.5l3 -2q36 -18 74 -18l21 1q4 25 4 61q0 14 -1 37t-5 64t-4 46zM514 29q37 0 54 45h-14q-42 0 -68 14q4 -59 28 -59zM780 28q32 0 48 42h-10q-43 0 -71 12q1 -26 10.5 -40t22.5 -14z" />
    <glyph glyph-name="v_s.liga" unicode="vs" horiz-adv-x="635" 
d="M526 330q0 -14 6 -74.5t6 -94.5q0 -30 -5 -63q27 8 54 25.5t43 39.5q23 28 34 28q8 0 8 -8t-8 -20q-53 -79 -139 -95q-26 -75 -107 -75q-14 0 -27.5 8.5t-20.5 27.5t-7 39q0 15 3.5 27.5t10.5 13.5q38 -20 89 -20h7q5 30 5 61q0 45 -9 128q-32 -46 -62.5 -72.5
t-48.5 -31.5t-24 -5q-70 0 -99 39q-21 -37 -56.5 -85t-79 -83.5t-80.5 -35.5q-19 0 -31 17.5t-12 44.5q0 16 22 60t33 68t21 55.5t15 56t6 49.5q0 5 4 8t9 3h4q38 -10 38 -53q0 -15 -6 -38.5t-21 -59t-50.5 -101.5t-35.5 -77q0 -5 4 -5q38 0 85 48.5t114 175.5v8
q0 23 11.5 55t27 48.5t31.5 16.5q5 0 10 -5.5t5 -11.5q0 -3 -9 -28l-7 -21q-12 -42 -12 -66q0 -55 54 -55q28 0 66 41.5t75 112.5q6 24 26.5 40.5t50.5 16.5q17 0 17 -10v-4q-1 -5 -10 -11t-13 -10t-7 -9t-5.5 -13t-2.5 -21zM413 18q37 0 54 45q-24 1 -46.5 5.5t-35.5 10.5
q7 -61 28 -61z" />
    <glyph glyph-name="w_s.liga" unicode="ws" horiz-adv-x="799" 
d="M89 370q3 9 14 9h3q34 -6 34 -45q0 -14 -6 -39t-22.5 -62.5t-55 -112.5t-38.5 -88q0 -6 4 -6q13 0 34.5 16t53 54t59 76.5t73.5 105.5t52 67l3 1q11 0 20 -5t9 -16q0 -10 -9 -27q-46 -83 -72 -148t-26 -100q0 -4 2 -13.5t9 -9.5q26 0 62.5 52t92.5 186q0 19 8 46.5
t26.5 50t34.5 22.5q7 0 11.5 -5t4.5 -12q0 -1 -14 -44.5t-14 -70.5q0 -55 54 -55q27 0 64 40.5t77 113.5q5 24 25.5 40.5t50.5 16.5q18 0 18 -10v-4q0 -1 -1.5 -3t-12.5 -10t-15.5 -16t-6.5 -17.5t-2 -17.5q0 -14 5.5 -73.5t5.5 -92.5q0 -40 -5 -66q27 8 54 25.5t44 39.5
q4 6 16 17t18 11q8 0 8 -8t-8 -20q-52 -77 -139 -95q-26 -75 -108 -75q-14 0 -27.5 8.5t-20.5 27.5t-7 39q0 15 4 27t9 13l1 1q36 -20 90 -20h7q5 30 5 61t-4.5 77t-4.5 52q-22 -33 -48.5 -60t-49 -38.5t-38.5 -11.5q-69 0 -97 36q-28 -58 -59.5 -104.5t-58.5 -71t-48 -24.5
q-32 0 -47 18t-15 48q0 25 10 62q-46 -60 -89 -101t-64 -41q-34 0 -51 20.5t-17 56.5q0 18 8.5 38.5t39 73.5t43.5 83t21 55t13 52zM580 18q39 0 54 45q-53 2 -82 17q4 -35 11 -48.5t17 -13.5z" />
    <glyph glyph-name="x_s.liga" unicode="xs" horiz-adv-x="670" 
d="M208 2q-35 0 -61 17.5t-39.5 43t-20.5 48.5q-60 -66 -103 -134q-4 -4 -11 -4t-14 4t-7 11q0 4 5 12q52 75 120 152q-6 32 -6 84q0 59 10.5 109t19.5 50h6q11 0 19 -4.5t8 -21.5l-2 -120v-39q45 45 97 87.5t97 68.5t55 26h2q8 0 8 -15q0 -4 -10.5 -12.5t-46 -34.5t-65 -49
t-65 -53.5t-69.5 -64.5q13 -127 80 -127q34 0 82 41t105 118t105 158q4 16 15.5 29.5t29 19.5t31.5 6q18 0 18 -10v-4q0 -1 -1.5 -3t-12.5 -10t-15.5 -16t-6.5 -17.5t-2 -17.5q0 -14 6 -74.5t6 -93.5q0 -31 -5 -64q28 9 54.5 26t42.5 39q23 28 34 28q8 0 8 -8t-8 -20
q-52 -77 -139 -95q-26 -75 -108 -75q-14 0 -27 8.5t-20 28t-7 39.5q0 15 3.5 27.5t9.5 12.5l3 -2q36 -18 86 -18h8q5 24 5 62q0 27 -8 126q-79 -124 -159 -199.5t-140 -75.5zM450 18q38 0 54 46q-24 1 -46.5 5.5t-35.5 10.5q7 -62 28 -62z" />
    <glyph glyph-name=".notdef" horiz-adv-x="220" 
 />
    <glyph glyph-name=".null" horiz-adv-x="0" 
 />
    <glyph glyph-name="uni000D" unicode="&#xd;" horiz-adv-x="220" 
 />
    <glyph glyph-name="space" unicode=" " horiz-adv-x="220" 
 />
    <glyph glyph-name="exclam" unicode="!" horiz-adv-x="308" 
d="M418 697q-244 -469 -282 -554q-1 -2 -4 -3.5t-6 -1.5q-6 0 -11 5t-5 13q0 20 64 170t131.5 274.5t94.5 124.5q7 0 12.5 -7.5t5.5 -20.5zM114 34q0 -25 -18 -41t-37 -16q-10 0 -16.5 5.5t-6.5 14.5q0 24 19.5 44t37.5 20q9 0 15 -7t6 -20z" />
    <glyph glyph-name="quotedbl" unicode="&#x22;" horiz-adv-x="236" 
d="M201 690q13 0 13 -10q0 -14 -16 -43q-20 -39 -39 -63t-28 -24q-8 0 -8 17q0 25 18 64q28 59 60 59zM301 690q13 0 13 -10q0 -14 -16 -43q-20 -39 -39 -63t-28 -24q-8 0 -8 17q0 25 18 64q28 59 60 59z" />
    <glyph glyph-name="numbersign" unicode="#" horiz-adv-x="475" 
d="M30 232q1 10 25 10l88 -1l31 79q-51 1 -73.5 4t-22.5 12v1q1 9 27 9h79l21 58q13 38 35 38q4 0 9.5 -1.5t5.5 -5.5q0 -18 -27 -89l103 -1l19 53q13 38 36 38q15 0 15 -6q0 -18 -27 -86q72 -2 70 -8q0 -2 -0.5 -10t-25.5 -8h-18l-36 1l-31 -80q65 -2 63 -8q0 -2 -0.5 -6.5
t-2.5 -7t-7.5 -3.5t-17.5 -1l-46 1l-28 -69q-5 -14 -16.5 -26.5t-20.5 -12.5h-3q-6 2 -6 11q0 20 31 98h-103l-27 -65q-5 -14 -16.5 -26.5t-20.5 -12.5h-3q-6 2 -6 11q0 16 29 93q-55 1 -78.5 4t-23.5 12v1zM321 320h-103l-31 -79h103z" />
    <glyph glyph-name="dollar" unicode="$" horiz-adv-x="375" 
d="M357 770l-23 -78q12 -5 23 -16t16.5 -27.5t5.5 -32.5q0 -3 -4 -7.5t-7 -4.5q-5 0 -5 12q0 23 -9.5 38.5t-24.5 21.5l-87 -295q36 -158 36 -230q0 -83 -36.5 -118.5t-102.5 -35.5h-13l-34 -112q-1 -3 -6 -3t-10 6t-6 18q-1 3 24 98q-21 7 -43 26.5t-34.5 54.5t-12.5 72
q0 25 8 57t26 51.5t31.5 24t23.5 4.5q5 -6 5 -10q0 -5 -5 -5q-10 0 -22.5 -13.5t-22 -46.5t-9.5 -68q0 -31 8.5 -58t23.5 -42.5t30 -20.5l85 297q-15 67 -24.5 122t-9.5 100q0 31 6.5 60t23 49.5t44 31.5t65.5 11l14 -1q31 82 42 85q7 -4 10 -15zM212 576q0 -42 14 -117
q39 127 73 223h-2q-85 0 -85 -106zM218 130q0 47 -15 120l-68 -225q83 1 83 105z" />
    <glyph glyph-name="percent" unicode="%" horiz-adv-x="525" 
d="M555 655q-154 -229 -282 -426.5t-145 -234.5l-3 -2q-7 0 -14 11t-7 30q0 18 104 196.5t198.5 317t118.5 138.5q12 0 21 -7.5t9 -22.5zM456 223q35 0 52.5 -18t17.5 -47q0 -26 -16.5 -63.5t-54 -69.5t-80.5 -32q-40 0 -60.5 19t-20.5 50q0 18 9.5 45.5t34.5 56t55.5 44
t62.5 15.5zM253 685q35 0 52.5 -18t17.5 -47q0 -38 -25 -78.5t-58 -63.5t-69 -23q-40 0 -60 19t-20 50q0 18 9.5 45.5t34.5 56t55.5 44t62.5 15.5zM172 475q24 0 46.5 22.5t40.5 60.5t18 69q0 15 -6.5 26t-19.5 12h-2q-20 0 -45 -18t-46 -58t-21 -71q0 -19 9 -31t26 -12z
M376 13q19 0 42.5 19t43 60.5t19.5 72.5q0 37 -29 37q-25 0 -49 -21t-43 -57.5t-19 -67.5q0 -19 8.5 -30.5t26.5 -12.5z" />
    <glyph glyph-name="ampersand" unicode="&#x26;" horiz-adv-x="603" 
d="M556 188q0 -31 -10 -63.5t-31.5 -62.5t-57.5 -55t-85 -40q31 -45 67 -78t68 -45t56 -12q6 0 9.5 -3.5t3.5 -8.5q0 -7 -8.5 -13.5t-22.5 -6.5q-69 0 -129.5 41t-107.5 111q-51 -7 -96 -7q-98 0 -148.5 47t-50.5 135q0 45 20 83.5t56.5 73t93.5 73.5l-1 34q0 86 19 144.5
t51.5 89.5t78.5 31q56 0 83.5 -23t27.5 -61q0 -28 -12 -58.5t-45 -66.5t-153 -112q13 -82 43 -169t71 -157q56 15 97.5 42.5t66.5 63t25 72.5q0 9 3.5 15t7.5 6t7 -5.5t3 -14.5zM187 305q-44 -30 -74 -60.5t-42 -61t-12 -55.5q0 -66 39 -100.5t116 -34.5q24 0 66 4
q-36 66 -60.5 147.5t-32.5 160.5zM400 578q0 12 -8 26.5t-21 21t-25 6.5q-61 0 -91.5 -53t-30.5 -142q0 -34 2 -52q88 57 117.5 85.5t43 54t13.5 53.5z" />
    <glyph glyph-name="quotesingle" unicode="'" horiz-adv-x="136" 
d="M201 690q13 0 13 -10q0 -14 -16 -43q-20 -39 -39 -63t-28 -24q-8 0 -8 17q0 25 18 64q28 59 60 59z" />
    <glyph glyph-name="parenleft" unicode="(" horiz-adv-x="303" 
d="M94 97q0 54 19.5 129.5t52.5 154.5t82 159t110 132.5t121 52.5q14 0 14 -7q0 -5 -8.5 -11t-19.5 -9q-34 -9 -69.5 -42.5t-74 -90t-80.5 -145t-71.5 -191t-29.5 -169.5q0 -60 25 -79q10 -7 10 -14q0 -8 -11 -8q-18 0 -34.5 17.5t-26 55t-9.5 65.5z" />
    <glyph glyph-name="parenright" unicode=")" horiz-adv-x="341" 
d="M-1 -36q-15 -5 -27 -5q-14 0 -14 7q0 5 8 11.5t20 9.5q34 9 69.5 42.5t74 90t80.5 144.5t71.5 190.5t29.5 169.5q0 60 -25 79q-10 7 -10 14q0 8 11 8q18 0 34.5 -17.5t26 -55t9.5 -65.5q0 -76 -30 -175.5t-82 -194.5t-117 -164.5t-129 -88.5z" />
    <glyph glyph-name="asterisk" unicode="*" horiz-adv-x="236" 
d="M228 722q7 0 17 -17l37 -46l19 52q11 30 18 30q4 0 8.5 -2t4.5 -5q0 -10 -21 -69l31 23q21 16 28 16q5 0 11 -10q0 -8 -56 -47q67 -2 66 -8q-1 -10 -2.5 -13t-15.5 -3h-7l-57 2q45 -58 45 -68l-1 -2l-11 -6q-3 0 -13.5 12.5t-24 31.5t-14.5 20l-23 -57q-10 -26 -18 -26
h-2q-8 2 -8 10q0 12 18 55l4 9q-37 -24 -46.5 -30t-14.5 -6l-6 2l-3 6q0 5 7.5 12t45.5 32l9 6q-38 0 -55.5 2.5t-17.5 10.5v1q1 8 12 8l72 -1q-23 29 -33 44t-10 23q0 4 2.5 6t4.5 2z" />
    <glyph glyph-name="plus" unicode="+" horiz-adv-x="357" 
d="M141 137h-3q-12 3 -12 22q0 27 27 111q-57 0 -82.5 3t-25.5 13v1q1 10 19 10l87 -1h11l28 77q13 35 36 35q19 0 19 -8q0 -17 -33 -104q114 -2 114 -10q-1 -12 -2.5 -14.5t-8 -3t-9.5 -0.5l-104 2l-40 -100q-11 -33 -21 -33z" />
    <glyph glyph-name="comma" unicode="," horiz-adv-x="153" 
d="M45 67q17 -5 28.5 -19.5t11.5 -36.5q0 -17 -11 -40.5t-37 -42.5t-52 -19q-6 0 -8 5v2q1 5 25 35t30 52q6 20 7 39.5t2 21.5q0 3 4 3z" />
    <glyph glyph-name="period" unicode="." horiz-adv-x="133" 
d="M74 42q0 -22 -14 -35t-29 -13q-8 0 -14 5t-6 13q0 22 15 38t30 16q7 0 12.5 -6.5t5.5 -17.5z" />
    <glyph glyph-name="slash" unicode="/" horiz-adv-x="338" 
d="M425 744l-436 -968q-1 -1 -4 -2.5t-5 -1.5q-7 0 -13 7.5t-6 25.5q0 15 61.5 168.5t150.5 356.5t151.5 321.5t81.5 118.5q7 -3 13 -9.5t6 -16.5z" />
    <glyph glyph-name="zero" unicode="0" horiz-adv-x="463" 
d="M390 702q27 0 51.5 -13t39 -48t14.5 -83q0 -36 -10.5 -94.5t-38.5 -131.5t-66 -139.5t-79.5 -113t-82 -71t-77.5 -24.5q-62 0 -92 42t-30 115q0 57 18.5 128.5t51 142t80 137.5t106 110t115.5 43zM135 11q24 0 54 19.5t69.5 69t84.5 139.5t74.5 189.5t29.5 164.5
q0 39 -12 61t-36 22q-19 0 -47 -12.5t-66.5 -52t-78.5 -104t-71 -137t-49 -141.5t-18 -119q0 -46 16.5 -72.5t49.5 -26.5z" />
    <glyph glyph-name="one" unicode="1" horiz-adv-x="344" 
d="M42 210q0 -6 -6 -6q-7 0 -15 9t-8 27q0 40 41.5 93t134.5 131.5t105 89.5q68 128 98 128q10 0 16.5 -4.5t6.5 -19.5q0 -47 -78 -120q-201 -479 -232 -547q-1 -3 -9 -3q-10 0 -19.5 9t-9.5 28q0 4 26 71.5t69 171t88 197.5q-141 -114 -174.5 -165.5t-33.5 -89.5z" />
    <glyph glyph-name="two" unicode="2" horiz-adv-x="509" 
d="M368 688q73 0 108 -31.5t35 -86.5q0 -52 -29 -120.5t-79.5 -139.5t-114 -134.5t-128.5 -105.5q68 -25 103 -25q41 0 72 19t48.5 43t29.5 47t15 23q8 0 13 -7.5t5 -18.5q0 -25 -21 -62.5t-63.5 -63t-93.5 -25.5q-55 0 -153 43q-39 -21 -76.5 -32t-70.5 -11q-26 0 -40 14.5
t-14 35.5q0 18 10 34.5t25.5 23.5t29.5 7q52 0 128 -26q59 42 122 108t115.5 139.5t84 141t31.5 112.5q0 33 -18.5 51.5t-57.5 18.5q-25 0 -57.5 -18.5t-70 -63t-59 -94t-21.5 -79.5q0 -41 35 -41q22 0 43.5 13t41 45t32.5 84t16 98q16 0 24.5 -17t8.5 -45q0 -31 -11 -66.5
t-32.5 -67.5t-54.5 -52t-74 -20q-33 0 -50 18.5t-17 50.5q0 18 8.5 52t36.5 82.5t61 81.5t64.5 50t59.5 17zM-16 90q-17 0 -27.5 -11t-10.5 -24q0 -10 7 -17.5t18 -7.5q42 0 98 34q-61 26 -85 26z" />
    <glyph glyph-name="three" unicode="3" horiz-adv-x="492" 
d="M152 271q39 0 58.5 -20t19.5 -50q0 -19 -10 -46.5t-35 -50t-54 -22.5q-8 0 -13.5 6t-5.5 12q0 3 3 5q17 0 36.5 10.5t32.5 34.5t13 47q0 21 -11 35.5t-33 14.5q-23 0 -48 -9.5t-49 -33t-36.5 -56.5t-12.5 -58q0 -43 28.5 -72t84.5 -29q33 0 67.5 15.5t67 54.5t48.5 89
t16 91q0 48 -20 82q-33 -12 -69 -12q-25 0 -40 13t-15 30q0 15 14 26t40 11q48 0 84 -17q55 37 96 104.5t41 121.5q0 37 -22 59t-66 22q-47 0 -90 -27.5t-66.5 -69t-23.5 -71.5q0 -19 9.5 -30.5t28.5 -11.5q25 0 49.5 19.5t40.5 62t16 73.5q0 14 10 14q9 0 16.5 -15.5
t7.5 -45.5q0 -15 -12.5 -41.5t-31.5 -46t-43 -32.5t-55 -13q-36 0 -54.5 19t-18.5 50q0 29 16 63.5t46 64t71.5 48t88.5 18.5q70 0 105 -32t35 -85q0 -32 -15.5 -75.5t-54 -91.5t-86.5 -78q20 -20 30.5 -49t10.5 -61q0 -45 -19 -94t-54.5 -89.5t-85 -65t-105.5 -24.5
q-50 0 -88 16.5t-54.5 47t-16.5 62.5q0 40 23.5 84.5t67.5 71.5t92 27zM229 343q20 0 39 6q-20 10 -41 10q-14 0 -22.5 -2.5t-8.5 -5.5t9.5 -5.5t23.5 -2.5z" />
    <glyph glyph-name="four" unicode="4" horiz-adv-x="580" 
d="M240 715q44 0 65.5 -24.5t21.5 -65.5q0 -34 -17 -88t-60.5 -122.5t-91.5 -111.5q132 -18 205 -21q87 209 151.5 331.5t86.5 122.5q7 -2 12.5 -8.5t5.5 -16.5l-193 -428q89 3 128 38l6 5q2 0 3.5 -7.5t1.5 -16.5q0 -25 -7 -31q-36 -27 -137 -27h-13l-119 -263q-2 -4 -8 -4
q-7 0 -13 7.5t-6 25.5q0 10 24.5 77t62.5 159q-89 6 -225 30q-41 -27 -76 -27q-16 0 -25 9.5t-9 20.5q0 15 12.5 25.5t36.5 10.5q13 0 51 -5q56 56 108 159.5t52 167.5q0 60 -49 60q-2 0 -4 3t-2 5q0 10 21 10zM56 288q-9 0 -14.5 -2.5t-5.5 -5.5q0 -7 16 -7q13 0 30 11z
" />
    <glyph glyph-name="five" unicode="5" horiz-adv-x="527" 
d="M564 715q8 0 12.5 -10t4.5 -25q0 -14 -14 -26.5t-52 -21.5t-75 -9q-23 0 -43.5 4t-49.5 14t-46 10h-1l-105 -254q16 9 53.5 16t90.5 7q37 0 65 -17.5t44 -51t16 -76.5q0 -48 -20 -99t-60 -93.5t-100.5 -68.5t-135.5 -26q-45 0 -77 15t-49.5 43.5t-17.5 63.5q0 26 12.5 59
t36 56t48 32t47.5 9q9 0 18.5 -6t9.5 -11q0 -8 -18 -8q-24 0 -47.5 -13.5t-39 -44t-15.5 -63.5q0 -30 13.5 -55t36.5 -35.5t45 -10.5q52 0 100 27.5t84 71t56.5 93t20.5 90.5q0 40 -21 64.5t-62 24.5q-29 0 -62 -4t-64 -17t-40 -13q-10 0 -17 13.5t-7 25.5q0 2 0.5 7
t5.5 23.5t20 55.5t27 63.5t20 44.5t24 52q23 48 71 48q23 0 72 -15.5t70 -15.5q33 0 65 17.5t50 39.5z" />
    <glyph glyph-name="six" unicode="6" horiz-adv-x="474" 
d="M509 712q8 0 13.5 -4t5.5 -8q0 -9 -22 -9q-42 0 -89.5 -24.5t-97.5 -71.5t-105 -124.5t-95 -174.5t-40 -168q0 -54 26.5 -86t80.5 -32q31 0 66 18.5t66.5 58t54 93.5t22.5 103q0 34 -13.5 54.5t-40.5 20.5q-26 0 -49 -16t-46 -50t-39.5 -89.5t-16.5 -91.5q0 -12 2.5 -20
t7.5 -8l2 -1q0 -2 -6 -5.5t-13 -3.5q-26 0 -40 18.5t-14 49.5q0 35 16.5 77.5t47 80.5t72.5 62t90 24q20 0 41 -10.5t33 -38t12 -63.5q0 -33 -12 -78.5t-42.5 -93.5t-69.5 -76.5t-74 -38t-63 -9.5q-48 0 -81 18.5t-52 55.5t-19 93q0 42 13.5 100t47.5 129.5t83.5 136
t106 110t114.5 69t116 23.5z" />
    <glyph glyph-name="seven" unicode="7" horiz-adv-x="444" 
d="M104 301q0 4 4 7.5t31 3.5l74 3q37 78 81 154.5t81 127t62 77.5q-97 5 -131 5q-198 0 -211 -66l-1 -2q-3 0 -7.5 13.5t-4.5 25.5t5 23t15 17q46 29 160 29q85 0 206 -16q38 32 65 32q16 0 25 -9.5t9 -20.5q0 -15 -12.5 -25.5t-36.5 -10.5l-33 1q-37 -49 -93.5 -146.5
t-109.5 -205.5l54 1q63 0 63 -7v-10q0 -5 -3.5 -8t-29.5 -3l-98 -2q-55 -112 -91.5 -207.5t-36.5 -137.5q0 -13 5 -20.5t13 -7.5q2 0 4 -3t2 -5q0 -10 -21 -10q-41 0 -41 64q0 52 27 139t71 185h-37q-30 0 -44.5 3.5t-14.5 11.5zM525 696q4 0 11.5 1.5t7.5 6.5q0 7 -16 7
q-8 0 -20 -14z" />
    <glyph glyph-name="eight" unicode="8" horiz-adv-x="438" 
d="M209 528q0 106 44.5 152.5t130.5 46.5q12 0 18.5 -5t6.5 -11q0 -3 -2 -6t-4 -3q-71 0 -108.5 -37t-37.5 -125q0 -50 12 -127q115 90 162.5 148t47.5 111q0 23 -3.5 43.5t-11 35t-7.5 15.5l2 4q2 2 7 2q12 0 28.5 -17t24.5 -42t8 -48q0 -30 -15.5 -69.5t-64 -92
t-169.5 -142.5q14 -84 21 -133t7 -91q0 -45 -16.5 -82.5t-44.5 -62.5t-62 -38t-68 -13q-27 0 -57 10.5t-50 32.5t-27.5 48t-7.5 52t15.5 62.5t63.5 87t171 143.5q-14 91 -14 151zM251 137q0 61 -21 189q-133 -100 -174.5 -156t-41.5 -103q0 -19 10.5 -40.5t35.5 -35.5
t55 -14q22 0 47 9.5t45 29.5t32 51t12 70z" />
    <glyph glyph-name="nine" unicode="9" horiz-adv-x="456" 
d="M16 -23q-8 0 -13.5 3.5t-5.5 7.5t6 7t17 3q28 0 64 19t86.5 68.5t109.5 139.5t99 190t40 168q0 45 -19.5 70.5t-60.5 25.5q-26 0 -57.5 -20.5t-65 -69.5t-52.5 -106t-19 -94q0 -27 10 -42.5t29 -15.5q26 0 52.5 18.5t48.5 57t36.5 87t14.5 84.5q0 12 -2.5 20t-7.5 8l-2 1
q0 2 6 5.5t12 3.5q12 0 19 -17t7 -44q0 -36 -12 -79.5t-36.5 -82.5t-62.5 -64t-86 -25q-30 0 -48.5 15.5t-24.5 39t-6 43.5q0 33 11 73t35.5 86t59.5 80.5t72 52.5t75 18q62 0 92.5 -38t30.5 -104q0 -58 -23 -132.5t-63.5 -149.5t-98.5 -146.5t-128.5 -118t-138.5 -46.5z
" />
    <glyph glyph-name="colon" unicode=":" horiz-adv-x="133" 
d="M174 346q0 -18 -14 -31.5t-28 -13.5q-7 0 -12.5 5.5t-5.5 14.5q0 19 13.5 32t28.5 13q7 0 12.5 -5.5t5.5 -14.5zM74 42q0 -22 -14 -35t-29 -13q-8 0 -14 5t-6 13q0 22 15 38t30 16q7 0 12.5 -6.5t5.5 -17.5z" />
    <glyph glyph-name="semicolon" unicode=";" horiz-adv-x="153" 
d="M45 67q-4 0 -4 -3q-1 -2 -2 -21.5t-7 -39.5q-6 -22 -30 -52t-25 -35v-2q2 -5 8 -5q26 0 52 19t37 42.5t11 40.5q0 16 -9 33t-31 23zM188 350q0 -21 -14.5 -35.5t-29.5 -14.5q-8 0 -13.5 5.5t-5.5 14.5q0 20 15.5 35.5t30.5 15.5q7 0 12 -5.5t5 -15.5z" />
    <glyph glyph-name="less" unicode="&#x3c;" horiz-adv-x="393" 
d="M54 210q-17 20 -17 32l3 21q0 30 29 55.5t90 63.5t201 114q22 12 25 13t5 1q9 0 9 -27q-8 -12 -44 -38t-151.5 -95t-141.5 -87l15 -16q23 -25 73.5 -65.5t97.5 -67.5q7 -4 15 -11t8 -11t-5 -9t-10 -5q-30 0 -106 54t-96 78z" />
    <glyph glyph-name="equal" unicode="=" horiz-adv-x="378" 
d="M45 232v1q1 10 19 10l85 -1q171 0 170 -10q-1 -12 -2.5 -14.5t-8 -3t-9.5 -0.5l-150 2q-55 0 -79.5 3t-24.5 13zM73 322v1q1 10 19 10l84 -1q172 0 171 -10q-1 -12 -2.5 -14.5t-8 -3t-9.5 -0.5l-139 2q-77 0 -96 4t-19 12z" />
    <glyph glyph-name="greater" unicode="&#x3e;" horiz-adv-x="397" 
d="M346 366q17 -21 17 -32l-4 -22q0 -22 -14 -40.5t-47.5 -42t-90.5 -57.5t-167 -92q-31 -17 -39.5 -13.5t-0.5 26.5q7 10 41 35.5t151.5 95.5t145.5 89l-15 15q-62 66 -169 133q-25 15 -25 21v1q0 4 5 9t10 5q16 0 51 -19t85.5 -57.5t65.5 -54.5z" />
    <glyph glyph-name="question" unicode="?" horiz-adv-x="432" 
d="M189 347q-37 0 -55.5 23.5t-18.5 61.5q0 39 18 87t50.5 90t74.5 68.5t87 26.5q37 0 73.5 -15t60 -54t23.5 -91q0 -14 -4 -42q-4 -24 -14 -53t-27 -56.5t-41.5 -52t-60 -47.5t-111.5 -62t-100.5 -64.5t-30 -45.5t-5.5 -35q0 -3 -6 -6t-13 -3q-9 0 -16.5 5.5t-7.5 19.5
q0 17 7 36t25 39t43.5 38t58.5 38.5t41 25.5q96 61 140.5 119.5t51.5 134.5l1 20q0 37 -12.5 65t-32.5 39t-40 11q-28 0 -59.5 -17t-60.5 -52.5t-49.5 -83.5t-20.5 -88q0 -23 9 -37t27 -14q7 0 11.5 -4.5t4.5 -9.5q0 -6 -5.5 -10.5t-15.5 -4.5zM59 -39h-1q-41 0 -41 21
q0 7 6.5 22.5t20.5 31t26 15.5q7 0 16 -13t9 -19q0 -7 -5 -23.5t-13.5 -25.5t-17.5 -9z" />
    <glyph glyph-name="at" unicode="@" horiz-adv-x="586" 
d="M307 440q49 0 94 -14.5t78.5 -42.5t53 -70t19.5 -93q0 -40 -13 -78.5t-36 -67.5q-25 -31 -60.5 -48.5t-74.5 -17.5q-27 0 -48.5 12t-30 31.5t-8.5 38.5q0 20 6 44q-15 -28 -37 -53t-46.5 -36.5t-44.5 -11.5q-24 0 -36 19.5t-12 46.5q0 33 13.5 73t32.5 70q25 41 54 61
t55 20q27 0 48 -15t27 -35l2 2q42 50 59 50q7 0 15.5 -8.5t8.5 -16.5l-1 -4q-25 -23 -51 -68t-37.5 -82.5t-11.5 -58.5q0 -22 11 -36t33 -14q44 0 76.5 31.5t44.5 73t12 72.5q0 30 -9 63t-34.5 65.5t-67 49t-86.5 16.5q-54 0 -101.5 -25.5t-82 -68t-53.5 -95.5t-19 -104
q0 -87 53.5 -139.5t142.5 -52.5q32 0 32 -14q0 -7 -11 -13t-24 -6q-50 0 -94 15t-77.5 44t-52 71.5t-18.5 95.5q0 43 15 95t46.5 96t68.5 72.5t82.5 44.5t94.5 16zM162 65q28 0 58 32t74 111l15 26q5 8 5 17q0 13 -9.5 26.5t-24.5 13.5q-19 0 -46 -28t-54 -87t-27 -93
q0 -18 9 -18z" />
    <glyph glyph-name="A" unicode="A" horiz-adv-x="730" 
d="M665 -89q4 0 6 -3t2 -6q0 -5 -5 -10t-14 -5q-32 0 -52.5 10.5t-35 27.5t-24.5 48.5t-10 77.5q0 65 21 154q-40 3 -89 3h-27q-73 -110 -140.5 -159t-135.5 -49q-49 0 -84.5 21t-56 59.5t-20.5 91.5q0 21 5 50t20 61.5t42.5 65t72.5 55t100 22.5q57 0 85.5 -27.5
t28.5 -68.5q0 -29 -13.5 -60.5t-38.5 -58t-59.5 -42.5t-73.5 -16q-11 0 -11 5q0 2 2 4t6 2q25 0 57.5 20t63 65t30.5 84q0 27 -18 43.5t-55 16.5q-38 0 -73.5 -22t-61.5 -58t-40.5 -78.5t-14.5 -80.5q0 -51 27.5 -84t81.5 -33q44 0 89.5 29t90 90t110.5 181t94.5 165
t56 78.5t57.5 57t58.5 32.5t50.5 9q20 0 42 4.5t44 19.5t29 15q5 0 9.5 -5t4.5 -12q0 -6 -13.5 -17t-35.5 -20q-52 -66 -100 -152t-84.5 -174.5t-57 -170.5t-20.5 -140q0 -55 19 -85.5t58 -30.5zM748 647q-31 0 -70 -41t-114 -178t-108 -189q30 -5 75 -5l29 1
q17 61 50.5 146t80 162t84.5 105z" />
    <glyph glyph-name="B" unicode="B" horiz-adv-x="592" 
d="M414 683q31 0 60 -10q21 16 45 25.5t45 9.5q5 0 7.5 -3t2.5 -6q0 -4 -3 -6.5t-8 -2.5q-27 0 -58 -29q42 -23 58.5 -59t16.5 -73q0 -45 -18.5 -81t-52 -61t-76.5 -33q24 -10 44 -30t28 -48.5t8 -55.5q0 -16 -4 -42q8 4 29 18.5t51 56.5l2 -6q0 -13 -11.5 -35.5t-34 -41.5
t-47.5 -30q-19 -46 -56.5 -80.5t-90 -56.5t-102.5 -22q-14 0 -34 3.5t-88 25.5q-40 -38 -73 -38q-24 0 -38.5 12.5t-14.5 28.5t14.5 27.5t40.5 11.5q31 0 50 -4q27 41 66 120q-44 35 -67.5 88t-23.5 111q0 57 22 114t64.5 102.5t106 72.5t140.5 27zM356 368q36 0 74.5 17.5
t66 57.5t27.5 82q0 77 -45 108q-20 -25 -50.5 -76t-97 -191t-94.5 -192q48 -28 114 -28q48 0 88 8q20 43 20 85q0 18 -5.5 40t-23.5 39.5t-43.5 26t-26.5 9.5q-4 4 -5 10zM192 211q89 188 124 252.5t68 111t60 72.5q-20 4 -33 4q-48 0 -90 -14t-74.5 -39t-59 -63
t-38.5 -83.5t-12 -82.5q0 -45 14 -86.5t41 -71.5zM246 13q24 0 55.5 10t63.5 36t54 59q-35 -5 -70 -5q-76 0 -131 26q-39 -67 -68 -103q3 -1 32.5 -12t63.5 -11zM52 3q15 0 33 18q-12 3 -22 3q-14 0 -22 -3t-8 -7t6 -7.5t13 -3.5z" />
    <glyph glyph-name="C" unicode="C" horiz-adv-x="484" 
d="M130 105q0 -78 44 -78q8 44 31 89t55 80.5t66.5 56.5t63.5 21q22 0 33.5 -12.5t11.5 -33.5q0 -36 -32.5 -91.5t-89 -95.5t-113.5 -44l-1 -17q0 -42 -4 -58q-12 0 -18.5 12t-6.5 44v19q-53 4 -80 43.5t-27 102.5q0 53 17 118q-39 11 -59.5 41.5t-20.5 69.5q0 27 11 57
t30.5 53t48 37t61.5 14q4 0 10.5 -1.5t6.5 -6.5q-1 -3 -4 -8t-10 -5h-1q-28 0 -56.5 -31t-41 -65t-12.5 -57q0 -24 11.5 -42.5t35.5 -25.5q29 90 78.5 168t104.5 131t108.5 76.5t98.5 23.5q44 0 65.5 -17t21.5 -46q0 -21 -13 -53.5t-45.5 -76t-78 -86t-97.5 -77.5
t-97.5 -52.5t-76.5 -22.5q-29 -89 -29 -154zM527 639q0 22 -21 22q-25 0 -58 -11t-69.5 -39t-69.5 -68t-70.5 -103t-68.5 -148q45 10 101 43t112.5 88t89.5 102.5t43.5 74t10.5 39.5zM402 231q0 3 -1.5 5.5t-3.5 2.5q-15 0 -39 -12.5t-55 -43.5t-58 -74t-38 -79q19 4 48 18
t64 48t59 75.5t24 59.5z" />
    <glyph glyph-name="D" unicode="D" horiz-adv-x="606" 
d="M339 682q52 0 101 -17q42 29 87 29q16 0 29.5 -3t13.5 -8q-3 -4 -7 -4q-21 0 -42.5 -9t-39.5 -24q35 -21 59.5 -53.5t37.5 -75.5t13 -99q0 -65 -18 -129.5t-51 -117.5q26 15 50 37t29 22q4 0 4 -4q0 -10 -18 -32.5t-46 -41.5t-55 -31q-53 -62 -125 -97t-156 -35
q-27 0 -69 11q-33 -30 -67 -30q-31 0 -50 13t-19 30q0 15 15.5 25.5t43.5 10.5q19 0 61 -10q25 33 53 97q-23 18 -46.5 49.5t-37.5 78.5t-14 96q0 59 19 117t54 104.5t84.5 73.5t106.5 27zM232 152q48 -24 114 -24q36 0 76 7q51 60 81.5 139t30.5 152q0 35 -8 73.5t-28 68.5
t-46 49q-59 -69 -130 -246.5t-90 -218.5zM411 640q-37 14 -67 14q-34 0 -71 -17.5t-69.5 -57.5t-54.5 -99t-22 -125q0 -52 16.5 -98t48.5 -76q12 30 56.5 150t82.5 194t80 115zM162 29q29 -8 48 -8q44 0 88.5 19t82.5 53q-22 -3 -48 -3q-71 0 -120 23q-24 -49 -51 -84z
M58 19h-1q-10 0 -16 -3.5t-6 -7.5t5.5 -7.5t14.5 -3.5q21 0 39 15q-24 7 -36 7z" />
    <glyph glyph-name="E" unicode="E" horiz-adv-x="517" 
d="M317 383q23 0 24 -18q0 -15 -13 -15l-10 2q-59 0 -106.5 -18.5t-79 -49t-47.5 -67t-16 -71.5q0 -49 30 -82.5t84 -33.5q58 0 108 21t85.5 54t54.5 69.5t19 66.5q0 25 -14.5 40t-41.5 15q-24 0 -51 -10.5t-49.5 -35.5t-36.5 -53.5t-28.5 -69t-19.5 -40.5q-7 0 -7 18
q0 31 17 73.5t45.5 77.5t66 52t75.5 17q19 0 38.5 -8.5t31.5 -30.5t12 -50q0 -37 -20 -79t-59 -78.5t-98 -59t-132 -22.5q-52 0 -91 19t-63 54.5t-24 83.5q0 55 32 103t86 79.5t128 41.5q-21 14 -31 35l-44 -2q-55 0 -83.5 33t-28.5 80q0 25 11.5 60t41 62.5t68.5 27.5
q4 0 11.5 -1.5t7.5 -5.5q0 -3 -6.5 -5.5t-17.5 -2.5q-30 0 -52 -40.5t-22 -87.5q0 -28 9.5 -50.5t26.5 -32t34 -9.5q24 0 35 2q-3 15 -3 31q0 37 16.5 78t47 75.5t73.5 55.5t92 21q27 0 42.5 -17.5t15.5 -45.5q0 -43 -33 -93t-84.5 -81t-103.5 -43q13 -33 39 -39h8zM263 471
l1 -19q54 16 100 52t69.5 76.5t23.5 66.5q0 13 -7 21.5t-19 8.5q-29 0 -59 -13t-54 -41.5t-39.5 -68.5t-15.5 -83z" />
    <glyph glyph-name="F" unicode="F" horiz-adv-x="588" 
d="M170 2q-52 0 -89 22t-59 62.5t-22 95.5q0 44 15.5 88t45 79.5t73 57t95.5 21.5q62 0 91.5 -22.5t29.5 -58.5l-1 -10q34 11 66 14q52 126 77.5 177t50.5 84q-128 31 -175.5 39t-85.5 8q-43 0 -72.5 -12t-44 -37t-14.5 -64q0 -40 19.5 -59t49.5 -19q18 0 44 8.5t48 28.5
t22 40q0 4 2 6t4 2t4.5 -3.5t2.5 -8.5q0 -43 -38 -70.5t-85 -27.5q-45 0 -77 26t-32 74q0 153 178 153q29 0 84 -6.5t196 -42.5q45 45 95 45q6 0 12 -3.5t7 -11.5q-19 0 -38.5 -11t-35.5 -29l56 -11q9 25 26.5 38t36.5 13q14 0 25.5 -8t11.5 -22q0 -58 -78 -58h-10v-8
q0 -9 -4 -15.5t-8 -6.5q-8 0 -8 17v14q-20 2 -73 12q-13 -21 -30.5 -55.5t-81.5 -197.5q27 -3 64 -14q5 17 15.5 29.5t24.5 12.5q8 0 15 -7t7 -15q0 -14 -5.5 -26.5t-13.5 -14.5q-5 0 -2 5q2 3 4.5 13.5t2.5 21.5v2q-11 -38 -11 -68q0 -13 2 -26.5t6.5 -26t4.5 -14.5l-3 -3
q-13 0 -25.5 8t-19.5 27t-7 41l1 19q-48 8 -70 10q-45 -109 -86.5 -176t-93.5 -106t-116 -39zM302 313q6 18 6 33q0 22 -13.5 35.5t-41.5 13.5q-36 0 -72.5 -13t-66.5 -42t-49.5 -71.5t-19.5 -90.5q0 -27 10.5 -60.5t40.5 -57t77 -23.5q27 0 60 17t73 73t97 193
q-37 -6 -61 -16q-21 -56 -78 -103.5t-111 -47.5q-15 0 -20 5q0 3 5 5q20 0 48.5 13t58 44t46.5 65l-10 -1q-4 0 -7 3q0 10 28 26zM708 622q31 0 31 18q0 9 -10 9q-8 0 -19 -7.5t-18 -18.5z" />
    <glyph glyph-name="G" unicode="G" horiz-adv-x="593" 
d="M92 187q70 0 102 -26.5t32 -66.5q0 -30 -17 -64.5t-46.5 -63.5t-67.5 -47t-76 -18q-19 0 -19 8q0 3 4 5.5t9 2.5q25 0 54 17t57 46t44 59.5t16 55.5q0 27 -21.5 43.5t-66.5 16.5q-21 0 -46.5 -14t-54.5 -49.5t-45 -80.5t-16 -81q0 -53 33 -86t101 -33q57 0 116 24.5
t114 84.5t99 149t73 201q-34 -31 -72.5 -55.5t-72 -34.5t-57.5 -10q-53 0 -80 27t-27 73q0 34 12 71q-59 24 -59 92q0 36 17.5 77.5t46.5 77.5t64.5 58.5t69.5 22.5q10 0 15.5 -3t5.5 -6q0 -2 -3 -4t-5 -2q-36 0 -77.5 -35.5t-67.5 -90t-26 -94.5q0 -44 30 -63q22 53 62 108
t92 100.5t112 72.5t118 27q27 0 41.5 -16.5t14.5 -44.5q0 -39 -26.5 -88.5t-77 -95t-112.5 -70t-107.5 -29t-62.5 -4.5h-7q-20 -45 -20 -76q0 -25 15.5 -39.5t47.5 -14.5q28 0 61.5 18t71.5 50.5t88 87t54 54.5q12 0 12 -15q-4 -48 -32.5 -143.5t-74.5 -185.5t-107 -154
t-135 -99.5t-163 -35.5q-55 0 -96 21.5t-59 60t-18 80.5t16 86.5t45 80.5t69.5 58t85.5 22zM564 649q-24 0 -55.5 -15.5t-71.5 -47t-96.5 -94.5t-94.5 -132q32 2 74.5 14t86.5 37.5t85 63t69 80.5t28 69q0 11 -6.5 18t-18.5 7z" />
    <glyph glyph-name="H" unicode="H" horiz-adv-x="801" 
d="M609 416l11 3q4 0 8.5 -3.5t4.5 -13.5v-4q0 -10 -26 -60q21 4 59 16q40 101 89.5 177.5t99.5 118.5t95 42q15 0 23.5 -9.5t10.5 -19.5l1 -15q0 -31 -17 -72.5t-50.5 -85.5t-83.5 -84t-112 -67q-34 -81 -54.5 -158.5t-20.5 -128.5q0 -81 52 -81q7 0 15 -5t8 -10
q0 -9 -26 -9q-46 0 -68.5 37t-22.5 100q0 35 9.5 94t36.5 136l-64 -14q-26 -54 -31 -94l-2 -4q-3 0 -9 14l-1 22q0 30 7 57l-46 -3q-43 -113 -94.5 -175t-109.5 -87.5t-121 -25.5q-57 0 -96.5 17t-61 48t-21.5 74q0 16 4.5 38.5t17 48t34 50.5t53.5 42.5t67 17.5
q48 0 77 -17t39 -45q66 39 153 47q3 8 46.5 130.5t77.5 174.5q-14 1 -57 6t-69.5 6.5t-45.5 1.5q-53 0 -87 -11t-58.5 -28.5t-40.5 -49.5t-16 -77q0 -28 10.5 -50t29.5 -31t38 -9q21 0 51 10.5t55 36t25 53.5q0 12 5 12q3 0 6 -4.5t3 -10.5q0 -22 -9 -45t-32 -44.5
t-55.5 -33t-58.5 -11.5q-36 0 -61.5 15.5t-40.5 45.5t-15 69q0 53 21 91.5t57 61.5t82.5 33.5t98.5 10.5q18 0 55.5 -2.5t82 -7.5t50.5 -6q38 41 81 41q20 0 31.5 -7.5t11.5 -18.5q0 -28 -21.5 -39.5t-61.5 -11.5h-18q-5 -9 -16.5 -35.5t-42.5 -131.5t-40 -132l45 4
q12 32 27 58t19 27zM182 127q0 27 21.5 64.5t61.5 67.5q-6 23 -24.5 36.5t-50.5 13.5q-28 0 -59 -18t-55 -61t-24 -85q0 -22 10 -48.5t40.5 -45.5t80.5 -19q44 0 85.5 22t82 76.5t81.5 157.5q-36 -5 -71 -18t-61 -30q0 -23 -11.5 -55.5t-36.5 -60t-48 -27.5q-10 0 -16 8.5
t-6 21.5zM946 667q-32 0 -87 -72.5t-116 -206.5q42 23 77.5 54.5t66 71.5t50 83.5t19.5 54.5v2q0 13 -10 13zM202 118q18 0 38.5 31t25.5 67q-31 -26 -49 -54t-18 -40q0 -3 3 -4zM674 672q-19 0 -34 -15h14q29 0 29 11q-3 4 -9 4z" />
    <glyph glyph-name="I" unicode="I" horiz-adv-x="536" 
d="M286 16q-20 -12 -49 -19t-56 -7q-54 0 -92.5 17.5t-61 50.5t-22.5 79q0 33 14.5 69t50.5 71t81.5 53t79.5 18q37 0 60.5 -19.5t23.5 -57.5q0 -35 -19.5 -65t-51 -47.5t-72.5 -17.5q-20 0 -20 5q0 3 5 6q27 0 55.5 14.5t48.5 45t20 58.5q0 26 -14.5 39.5t-38.5 13.5
q-25 0 -55.5 -14t-57.5 -39.5t-44 -60.5t-17 -74q0 -46 31 -78t95 -32q31 0 62.5 14.5t66.5 54.5t89 160q-44 21 -69.5 64t-25.5 93q0 48 23 95.5t70.5 87t121.5 63t168 23.5q12 0 19 -5.5t7 -10.5q0 -7 -9 -7l-32 -1q-22 -11 -46 -40.5t-47.5 -79t-60.5 -144t-55 -134.5
l17 -1q15 0 25 -3.5t10 -7.5t-9 -6.5t-24 -2.5l-28 2q-77 -172 -167 -223zM351 394q0 -38 15 -69.5t42 -48.5q6 15 42.5 103t60 135t47 80t48.5 54q-63 -12 -106.5 -35.5t-74 -53t-52.5 -73.5t-22 -92z" />
    <glyph glyph-name="J" unicode="J" horiz-adv-x="441" 
d="M592 681q11 0 19 -6.5t8 -13.5q0 -11 -17 -11q-18 0 -40.5 -12t-45.5 -43.5t-48 -84t-81.5 -211.5t-89 -228.5t-63 -118t-67.5 -85t-81.5 -57.5t-94.5 -21q-28 0 -56 8t-52 28.5t-34 51.5t-10 58q0 40 16 82t46 76.5t72 55.5t91 21q53 0 80.5 -23t27.5 -58q0 -20 -10 -47
t-38 -58t-69 -49t-81 -18q-11 0 -11 6q0 2 2 4t6 2q26 0 61.5 19.5t70 62.5t34.5 78q0 22 -17 35t-52 13q-40 0 -83 -34t-68.5 -87.5t-25.5 -95.5q0 -30 14 -53t38.5 -32t49.5 -9q53 0 98 35t79.5 89.5t63 118.5t100 255t123.5 266q-3 0 -7.5 -1t-63 -8t-105 -23
t-74.5 -44.5t-28 -73.5q0 -25 9 -37t21 -12q9 0 9 -8q0 -9 -17 -9q-26 0 -42.5 16.5t-16.5 45.5q0 42 16.5 72.5t48 52.5t77.5 35.5t111 22t78.5 11t19.5 4.5q49 47 99 47z" />
    <glyph glyph-name="K" unicode="K" horiz-adv-x="721" 
d="M195 116q16 0 35.5 12.5t34 42t14.5 58.5q0 24 -11.5 44t-32 28t-40.5 8q-43 0 -76 -28.5t-46 -65.5t-13 -63q0 -23 10 -51t40 -48.5t78 -20.5q52 0 94 27t76.5 76.5t62 114.5t73.5 195t81 185q-14 1 -57 6t-69.5 6.5t-45.5 1.5q-53 0 -91.5 -13t-60 -32.5t-35.5 -49
t-14 -74.5q0 -38 19 -62.5t58 -24.5q21 0 51 10.5t55 36t25 53.5q0 12 5 12q3 0 6 -4.5t3 -10.5q0 -22 -9 -45t-32 -44.5t-55.5 -33t-58.5 -11.5q-29 0 -56 12.5t-43.5 44.5t-16.5 71q0 54 20.5 93t56.5 62t82 33.5t99 10.5q18 0 55.5 -2.5t82 -7.5t50.5 -6q38 41 81 41
q20 0 32 -7.5t12 -18.5q0 -51 -84 -51h-17q-20 -36 -52.5 -153t-47.5 -160q45 14 92.5 54.5t116.5 128t103 121.5t69 54t72 20q23 0 34 -8.5t11 -18.5q0 -9 -7 -9q-1 0 -13.5 2t-22.5 2q-17 0 -36 -8t-44.5 -30.5t-77 -88t-66.5 -84t-34.5 -40t-40.5 -40.5t-50 -39.5
t-65 -35.5q59 -22 59 -117q0 -36 -11.5 -115t-11.5 -108q0 -77 54 -77q5 0 8.5 -3t3.5 -7t-5.5 -7.5t-15.5 -3.5q-25 0 -45 11t-30 40t-10 70q0 27 5.5 90t5.5 90q0 36 -7 62.5t-22.5 40t-32.5 17.5q-55 -142 -135 -207t-189 -65q-34 0 -66.5 8t-57.5 26.5t-39.5 47
t-14.5 65.5q0 25 8.5 55t32.5 63.5t60.5 52t73.5 18.5q42 0 70.5 -12.5t44.5 -36t16 -54.5q0 -21 -10.5 -49t-37 -50.5t-57.5 -22.5zM679 672q-19 0 -34 -15h15q29 0 29 11q-4 4 -10 4z" />
    <glyph glyph-name="L" unicode="L" horiz-adv-x="768" 
d="M187 65q64 -26 89 -34.5t52 -14t37 -6.5q8 50 34.5 93t62 72.5t76.5 42.5t80 13q24 0 50 -9.5t43 -33t17 -52.5q0 -30 -18 -60.5t-54.5 -55.5t-93.5 -40.5t-131 -15.5q-14 0 -42 4v-11q0 -37 19.5 -59t57.5 -22q10 0 10 -5q0 -4 -5.5 -8t-11.5 -4q-23 0 -46 11t-37 38.5
t-14 63.5q-35 7 -72 20t-78 29t-53 20q-54 -41 -106 -41q-24 0 -38 12t-14 28q0 19 19.5 34.5t53.5 15.5q30 0 60 -8q42 48 114 172q-37 1 -72.5 11t-62 32t-41.5 54t-15 75q0 42 15.5 85.5t42.5 79.5t62 57.5t72 21.5q62 0 93.5 -29t31.5 -73q0 -36 -21.5 -77.5t-60 -67
t-77.5 -25.5q-11 0 -17.5 3.5t-6.5 7.5q0 3 5 5.5t12 2.5q29 0 58 22t52 60.5t23 74.5q0 29 -18 46.5t-54 17.5q-33 0 -73.5 -34.5t-65.5 -89t-25 -100.5q0 -34 15.5 -64.5t53.5 -47.5t91 -18q84 146 131.5 214.5t90 110t83 62.5t79.5 21q40 0 60 -16.5t20 -44.5
q0 -39 -34 -95t-91.5 -112t-128.5 -100t-139 -61q-83 -136 -149 -198zM657 667q-26 0 -53.5 -18t-55 -50t-57.5 -77.5t-76 -125t-57 -97.5q58 20 118.5 63t110 95t78.5 100t29 77q0 33 -37 33zM426 6q45 0 91.5 9.5t87.5 33.5t60.5 54t19.5 53q0 22 -16.5 36.5t-47.5 14.5
q-49 0 -94 -27t-81 -74t-50 -99zM52 28q27 0 59 30q-21 6 -35 6q-23 0 -35 -6t-12 -14q0 -6 7 -11t16 -5z" />
    <glyph glyph-name="M" unicode="M" horiz-adv-x="934" 
d="M124 161q-42 0 -64 26t-22 70q0 56 33.5 129t86 130t106 91t108.5 51.5t115 17.5q52 0 86.5 -25t53 -71.5t18.5 -112.5q0 -67 -19 -138q52 52 139 130.5t172 142.5t110 64q11 -2 19.5 -10.5t8.5 -22.5q0 -9 -19 -39.5t-117.5 -170.5t-134.5 -202.5t-50 -97.5t-14 -56
q0 -34 36 -34q21 0 46 10t48.5 30t40.5 39t32 39t16 20q3 -2 3 -5q0 -12 -17.5 -44t-48.5 -63t-62.5 -45t-59.5 -14q-29 0 -47 14.5t-23.5 31.5t-5.5 29q0 39 21 97.5t63 128.5t79 122t82 112.5t45 64.5l-1 1q-14 0 -130 -103.5t-253 -236.5q-16 -38 -35 -66t-36.5 -38.5
t-29.5 -10.5q-13 0 -13 10q0 19 37 65q22 79 41.5 168.5t19.5 134.5q0 16 -3.5 25.5t-9.5 9.5q-28 -82 -81 -192.5t-116.5 -204t-132.5 -159t-140.5 -97t-139.5 -31.5q-12 0 -20 5t-8 11q0 5 7 9.5t19 4.5q53 0 114.5 32.5t127 92t143 160.5t133 215t55.5 181q0 64 -53 64
q-76 0 -148 -45t-126.5 -113.5t-86 -138.5t-31.5 -114t32 -44q30 0 68 17.5t81 59t68 86.5t25 69q0 11 -6 18t-17 7q-5 0 -10 3.5t-5 6.5q0 4 7.5 7t25.5 3q32 0 32 -41q0 -32 -18.5 -72t-43 -74t-57 -62t-71 -45t-78.5 -17z" />
    <glyph glyph-name="N" unicode="N" horiz-adv-x="825" 
d="M166 -18q-52 0 -88.5 21t-57 60t-20.5 93q0 41 13.5 84t38 77.5t59 55.5t73.5 21q31 0 59.5 -10.5t44.5 -37t16 -59.5t-15.5 -71t-43 -61t-53.5 -23q-3 0 -9 1.5t-6 6.5q0 8 14 8q22 0 43.5 27t30.5 59t9 53q0 33 -17 54t-51 21q-32 0 -62 -20t-53 -52.5t-36 -71
t-13 -74.5q0 -51 29 -86t91 -35q42 0 90.5 23.5t97 76.5t93 128t81.5 168q-12 83 -12 151q0 43 7 73.5t19.5 42t25.5 11.5q23 0 34.5 -20.5t11.5 -56.5q0 -66 -35 -171q23 -147 64 -320q31 111 82 228.5t103 195.5t106.5 117t106.5 39q58 0 88 -29.5t30 -74.5
q0 -22 -8.5 -50t-32.5 -60t-59.5 -50t-71.5 -18q-41 0 -61 15t-20 39q0 28 24.5 60.5t54 48t53.5 15.5q8 0 15 -4t7 -8q-2 -4 -7 -4q-31 0 -62 -20.5t-44.5 -42.5t-13.5 -36q0 -34 54 -34q32 0 63 23t48.5 60t17.5 68q0 33 -19.5 54t-57.5 21q-45 0 -102 -57t-121.5 -180.5
t-110 -256t-45.5 -182.5q0 -7 -8 -11t-17 -4q-10 0 -18 4t-9 11l-7 32q-44 194 -63 309q-32 -70 -73 -135t-89 -117t-101 -82.5t-105 -30.5zM585 645q0 18 -7 18q-19 0 -19 -59q0 -17 4 -69q22 77 22 110z" />
    <glyph glyph-name="O" unicode="O" horiz-adv-x="545" 
d="M428 684q14 0 22 -4t8 -9q0 -3 -4 -5.5t-9 -2.5q-33 0 -76 -18t-93 -65t-98.5 -120t-82.5 -164.5t-34 -160.5q0 -56 24.5 -88.5t73.5 -32.5q48 0 104 44.5t108 116.5q-16 3 -33.5 11t-29.5 26q-22 -17 -47 -27.5t-45 -10.5q-21 0 -32 17.5t-11 47.5q0 22 8 59.5t30 86.5
t61 103.5t98.5 95t124.5 40.5q34 0 51.5 -25t17.5 -68q0 -62 -33 -151.5t-86 -170.5q25 4 48 16.5t44 33t28 20.5q4 0 4 -5q0 -14 -21 -37.5t-53 -41t-74 -21.5q-28 -38 -71 -83t-97 -75.5t-108 -30.5q-46 0 -78 18t-49.5 53t-17.5 88q0 75 36.5 169.5t90 168t104 116
t99.5 64.5t98 22zM448 426q0 -14 -10 -42t-35 -67t-56 -70q5 -15 17.5 -26t28.5 -14q58 87 97 183t39 153q0 26 -9.5 40.5t-28.5 14.5q-27 0 -61.5 -23t-82 -85t-87.5 -149t-40 -124q0 -16 9 -16q26 0 67 36q-6 18 -6 41q0 28 14 68.5t47.5 73.5t73.5 33q11 0 17 -7.5
t6 -19.5zM420 433q-13 0 -30 -17t-32.5 -57t-15.5 -75q34 39 59 82t25 59q0 8 -6 8z" />
    <glyph glyph-name="P" unicode="P" horiz-adv-x="673" 
d="M552 665q30 0 60 -5q30 24 63 24q9 0 16 -5.5t7 -11.5q0 -5 -6.5 -9.5t-18.5 -4.5q-7 0 -15 -3q59 -19 90.5 -58.5t31.5 -87.5q0 -38 -19 -77t-56 -71.5t-91 -54.5t-119 -27q-59 -150 -136 -219t-179 -69q-58 0 -97 17t-60.5 47.5t-21.5 74.5q0 25 9 56t34 66t61.5 54.5
t71.5 19.5q42 0 70.5 -12.5t44.5 -36t16 -55.5q0 -36 -21 -72.5t-48 -51.5t-51 -15q-7 0 -12 2.5t-5 6.5t5 7t13 3q16 0 35.5 12.5t34 42t14.5 58.5q0 24 -11.5 44t-32 28t-40.5 8t-43 -9.5t-46 -34t-35.5 -58.5t-12.5 -61q0 -22 10 -48.5t40.5 -45.5t80.5 -19
q65 0 115.5 42.5t88 115t79.5 191.5t59 159.5t33.5 70t33.5 48.5q-21 3 -45 3q-70 0 -128 -21.5t-97 -56t-59.5 -73t-20.5 -71.5q0 -29 17 -47.5t48 -18.5q24 0 47.5 13t40.5 40t17 51q0 16 -9 26.5t-25 10.5q-17 0 -17 7q0 3 6.5 6t16.5 3q25 0 38.5 -14t13.5 -37
q0 -31 -21.5 -63t-53 -50t-70.5 -18q-31 0 -53 16t-29.5 38.5t-7.5 41.5q0 38 21 80t64.5 78t111.5 58t154 22zM633 633q-12 -14 -24.5 -38t-24 -54.5t-39 -118t-42.5 -127.5q31 6 67.5 23.5t74.5 53.5t58.5 79t20.5 77q0 37 -22.5 64.5t-68.5 40.5z" />
    <glyph glyph-name="Q" unicode="Q" horiz-adv-x="488" 
d="M204 182q-21 0 -32 17.5t-11 47.5q0 47 24.5 113.5t68.5 128.5t103.5 102.5t124.5 40.5q34 0 51.5 -25t17.5 -68q0 -34 -12.5 -86t-43.5 -120.5t-75 -133t-98 -115t-103 -70.5t-87 -20q-46 0 -78 17.5t-49.5 52.5t-17.5 88q0 75 36.5 169.5t90 168t104 116t99.5 64.5
t98 22q14 0 22.5 -4t8.5 -9q0 -3 -4 -5.5t-10 -2.5q-33 0 -76 -18t-93 -65t-98.5 -120t-82.5 -164.5t-34 -160.5q0 -55 24.5 -88t73.5 -33q45 0 93 35t93.5 93.5t88.5 137.5t66.5 153t23.5 115q0 51 -32 51q-27 0 -62 -23t-82.5 -85.5t-87.5 -149.5t-40 -124q0 -16 9 -16
q12 0 12 -9q0 -6 -7 -12t-17 -6zM-74 -90q0 7 11.5 19.5t38.5 24t56 11.5q46 0 82.5 -34t48.5 -38t21 -4q17 0 30 5.5t22 17.5t14 12q6 0 6 -12q0 -14 -10 -29.5t-28 -23t-37 -7.5q-40 0 -77 34t-49.5 38.5t-21.5 4.5q-25 0 -62 -11.5t-40 -11.5q-5 0 -5 4z" />
    <glyph glyph-name="R" unicode="R" horiz-adv-x="711" 
d="M305 344q-31 0 -53 16t-29.5 38.5t-7.5 41.5q0 38 21 80t64.5 78t111.5 58t154 22q28 0 60 -5q29 24 62 24q10 0 17 -5.5t7 -11.5q0 -5 -6.5 -9.5t-18.5 -4.5q-7 0 -15 -3q59 -19 90.5 -58.5t31.5 -87.5q0 -35 -16.5 -71t-48 -67.5t-78.5 -54.5t-103 -32q79 -13 79 -122
q0 -36 -11.5 -115.5t-11.5 -108.5q0 -76 54 -76q5 0 8.5 -3t3.5 -7t-6 -7.5t-16 -3.5q-47 0 -65.5 31.5t-18.5 87.5q0 27 5.5 91t5.5 91q0 53 -13 78.5t-28.5 33.5t-31.5 10q-58 -143 -134 -208t-174 -65q-58 0 -97 17t-60.5 47.5t-21.5 74.5q0 25 9 56t34 66t61.5 54.5
t71.5 19.5q42 0 70.5 -12.5t44.5 -36t16 -55.5q0 -36 -21 -72.5t-48 -51.5t-51 -15q-7 0 -12 2.5t-5 6.5t5 7t13 3q16 0 35.5 12.5t34 42t14.5 58.5q0 24 -11.5 44t-32 28t-40.5 8t-43 -9.5t-46 -34t-35.5 -59t-12.5 -61.5q0 -35 16 -60.5t44 -39t70 -13.5q66 0 116.5 43
t88 115.5t79.5 191.5t59 159.5t33.5 70t33.5 48.5q-21 3 -45 3q-70 0 -128 -21.5t-97 -56t-59.5 -73t-20.5 -71.5q0 -29 17 -47.5t48 -18.5q3 0 10.5 -1.5t7.5 -6.5t-11 -11t-23 -6zM647 646q-12 -14 -24.5 -38t-24 -54.5t-39 -118t-42.5 -127.5q31 6 67.5 23.5t74.5 54
t58.5 79.5t20.5 77q0 36 -22.5 63.5t-68.5 40.5z" />
    <glyph glyph-name="S" unicode="S" horiz-adv-x="635" 
d="M1 105q2 59 21 114t66 106.5t132.5 92.5t218 74.5t158.5 40.5q65 148 145 148q13 0 23.5 -7.5t10.5 -20.5v-2q-1 -38 -22.5 -66.5t-53 -45.5t-60.5 -27l-8 -24t-39 -125.5t-59 -170.5l34 -11q11 -8 11 -14q0 -5 -12 -5q-10 0 -44 6q-46 -103 -98.5 -149t-112.5 -46
q-52 0 -88.5 17.5t-57.5 50t-21 78.5q0 38 16 78t46 73t72.5 53t91.5 20q31 0 47.5 -21t16.5 -53q0 -34 -17 -66l32 2l29 -2q15 40 49.5 142.5t52.5 148.5q-3 -1 -126.5 -31.5t-191 -62t-111.5 -73.5t-68.5 -100.5t-24.5 -136.5q0 -181 108 -181l3 -2q0 -3 -9.5 -7t-23.5 -4
t-36 9t-45 31.5t-39 65t-16 103.5zM284 137q0 11 36 30.5t59 27.5q11 16 18 35.5t7 35.5q0 22 -12 35.5t-35 13.5q-24 0 -51.5 -12t-56 -42.5t-43.5 -70t-15 -71.5q0 -35 15.5 -59.5t42 -37t66.5 -12.5q30 0 55.5 18t49.5 54.5t48 92.5h-11q-32 0 -64 -7q-15 -16 -39 -27
t-53 -11q-17 0 -17 6v1zM739 657q-45 0 -85 -106q92 36 95 93q0 4 -3.5 8.5t-6.5 4.5z" />
    <glyph glyph-name="T" unicode="T" horiz-adv-x="569" 
d="M189 92q16 0 35.5 12.5t34 42t14.5 58.5q0 24 -11.5 44t-32 28t-40.5 8q-43 0 -77 -29t-47.5 -66.5t-13.5 -63.5q0 -22 10 -50t41 -48t80 -20q47 0 86 21.5t65.5 54t44.5 63t37.5 71.5t74 179t97.5 195q-76 12 -118.5 17.5t-81.5 5.5q-63 0 -105.5 -19.5t-64.5 -54
t-22 -84.5q0 -28 11 -51t29.5 -32.5t37.5 -9.5q21 0 51 10.5t55 36t25 53.5q0 12 6 12q3 0 6 -4.5t3 -10.5q0 -22 -9 -45t-32 -44.5t-56 -33t-59 -11.5q-36 0 -61 16t-40 46.5t-15 69.5q0 86 63 132t182 46q71 0 200 -19l16 -2q47 49 103 49q34 0 49.5 -8.5t15.5 -20.5
q0 -29 -21 -41.5t-61 -12.5q-33 0 -64 4q-13 -20 -28.5 -54t-52 -142t-62 -164.5t-53 -98.5t-64.5 -75.5t-85 -52.5t-106 -19q-56 0 -95 18t-61 51t-22 79q0 33 13 67t36.5 61.5t56 43.5t69.5 16q68 0 100 -30.5t32 -73.5q0 -23 -12 -54.5t-42 -58t-67 -26.5q-16 0 -16 9
q0 4 5 7t13 3zM711 605q36 0 36 16q0 5 -8.5 11.5t-30.5 6.5q-16 0 -32 -8t-28 -21q42 -5 63 -5z" />
    <glyph glyph-name="U" unicode="U" horiz-adv-x="569" 
d="M571 171q23 28 34 28q8 0 8 -8t-8 -20q-44 -66 -72 -100.5t-53.5 -52t-51.5 -17.5q-27 0 -40.5 19.5t-13.5 54.5q0 88 73 259q-74 -115 -138.5 -191.5t-107.5 -108.5t-71 -32q-70 0 -70 64q0 32 19.5 87t81.5 179.5t81 177.5t19 83q0 56 -60 56q-34 0 -75.5 -18
t-86 -61.5t-69.5 -95t-25 -85.5q0 -28 16 -44.5t48 -16.5q31 0 55.5 16t40 42.5t15.5 54.5q0 19 -8 30.5t-24 11.5q-5 0 -8.5 2t-3.5 5q0 8 19 8q23 0 36 -18t13 -45q0 -22 -10 -47.5t-28 -45.5t-46.5 -33t-64.5 -13q-33 0 -54.5 16t-28.5 39t-7 43q0 32 14.5 76t45 85
t66.5 69t80.5 44.5t92.5 16.5q64 0 92 -27.5t28 -73.5q0 -40 -18.5 -95.5t-46 -112.5t-87.5 -171t-60 -146q0 -20 19 -20q32 0 92 59.5t142.5 170t169.5 244.5q31 56 56 90t36 34q16 0 26.5 -11.5t11.5 -19.5q0 -2 -47 -89t-78 -149q-126 -246 -126 -315q0 -11 5 -18.5
t13 -7.5q18 0 47 28t92 116z" />
    <glyph glyph-name="V" unicode="V" horiz-adv-x="432" 
d="M207 668q16 0 37.5 -4.5t40.5 -20t31 -45.5t12 -77q0 -56 -18.5 -133t-52.5 -166.5t-51 -120.5q2 3 28.5 51.5t76.5 128t96 142.5q109 151 200 226t160 75q19 0 37.5 -12.5t18.5 -22.5q0 -7 -13 -7q-41 0 -91 -19t-110.5 -68t-124 -129.5t-112 -158t-100 -167.5
t-59.5 -103.5t-17 -24t-12 -10.5q-7 0 -23.5 4t-25.5 10t-10 11v1q0 14 40.5 117t58 156t26.5 85.5t16.5 70.5t7.5 74q0 50 -21 79t-65 29q-35 0 -73 -19.5t-71.5 -61t-56.5 -97.5t-23 -106q0 -32 12.5 -52t36.5 -20q36 0 64.5 19t47.5 51t19 60q0 14 -6.5 23.5t-19.5 9.5
q-9 0 -9 5q0 3 5.5 6t13.5 3q20 0 30.5 -13t10.5 -35q0 -35 -23 -74t-55.5 -61.5t-72.5 -22.5q-48 0 -74 33.5t-26 85.5q0 46 20 98t57.5 97t92.5 72.5t119 27.5z" />
    <glyph glyph-name="W" unicode="W" horiz-adv-x="676" 
d="M253 657q120 0 120 -144q0 -43 -13.5 -110t-45.5 -156t-63 -152q104 99 168 181q3 21 10 49.5t20.5 53.5t32.5 40.5t41 15.5q32 0 32 -30q0 -16 -66 -97l-18 -253q36 81 97 191.5t125 202t124 154t116.5 93.5t103.5 31q28 0 43 -8t15 -17q0 -7 -7 -11.5t-18 -4.5
q-39 0 -80.5 -17t-81.5 -46.5t-88 -79.5t-105.5 -131.5t-102.5 -160t-91.5 -168t-49.5 -89.5q-11 0 -25.5 5.5t-24.5 18.5q-9 84 -9 148l1 51q-71 -82 -137 -153t-72 -71q-31 0 -34 23q0 1 1.5 7.5t6 20t12.5 36.5t24.5 71t33.5 104t29 102t21.5 96.5t9.5 90.5q0 89 -53 89
q-25 0 -57 -10t-64.5 -35t-62.5 -64t-49.5 -89.5t-19.5 -90.5q0 -34 15 -54.5t45 -20.5q31 0 58 19.5t47 52t20 59.5q0 13 -7 21.5t-19 8.5q-10 0 -10 7q0 3 4 6t10 3q23 0 35 -15.5t12 -39.5q0 -34 -21.5 -70.5t-57 -58t-79.5 -21.5q-21 0 -43 10.5t-35 38t-13 62.5
q0 34 13.5 80.5t42.5 89.5t63.5 72t78.5 46t92 17z" />
    <glyph glyph-name="X" unicode="X" horiz-adv-x="602" 
d="M709 -177q-99 0 -165.5 34t-102.5 98t-36 158q0 30 5 68q-54 -73 -130.5 -120.5t-165.5 -47.5q-40 0 -77.5 10.5t-58.5 37.5t-21 62q0 15 5 36t19 45t38.5 48.5t61 41.5t75.5 17q5 0 14.5 -1.5t9.5 -6.5q0 -4 -7.5 -7.5t-16.5 -3.5q-30 0 -66 -19.5t-67 -64.5t-31 -89
q0 -26 14 -46t39.5 -28t51.5 -8q73 0 140 44.5t116.5 116t77.5 152t28 146.5q0 29 -8.5 63t-34 56.5t-66.5 22.5q-32 0 -68 -15t-71 -52t-53.5 -81t-18.5 -74q0 -24 11 -38t32 -14q4 0 13.5 -1.5t9.5 -6.5t-10.5 -9t-25.5 -4q-35 0 -54.5 26t-19.5 65q0 36 18.5 81.5
t57.5 81t83 50t87 14.5q54 0 91.5 -22t59 -64t21.5 -104l-1 -9q25 40 65 86.5t91 77.5t100 31q23 0 47.5 -9.5t39 -33t14.5 -51.5q0 -22 -13 -54t-52.5 -58t-94.5 -26q-5 0 -14.5 1.5t-9.5 6.5q0 4 7.5 7.5t16.5 3.5q44 0 76.5 25t44.5 53.5t12 48.5q0 29 -19 48t-54 19
q-39 0 -80.5 -29t-79 -77.5t-74.5 -122.5t-56 -155.5t-19 -142.5q0 -86 29.5 -144t84.5 -89t138 -31q25 0 25 -8q0 -5 -9.5 -10.5t-18.5 -5.5z" />
    <glyph glyph-name="Y" unicode="Y" horiz-adv-x="593" 
d="M751 681q11 0 19.5 -6.5t8.5 -13.5q0 -4 -5 -7.5t-13 -3.5q-18 0 -40.5 -12t-45.5 -43.5t-48 -84t-81 -211.5t-88.5 -228.5t-63 -118t-67.5 -85t-81.5 -57.5t-94.5 -21q-38 0 -67.5 11.5t-48.5 32t-28 48t-9 54.5q0 40 16 82t46 76.5t72.5 55.5t91.5 21q53 0 80.5 -23
t27.5 -58t-26.5 -77t-74.5 -68.5t-98 -26.5q-10 0 -10 6q0 2 2 4t6 2q26 0 61.5 19.5t69.5 62.5t34 78q0 22 -16.5 35t-51.5 13q-32 0 -64.5 -21t-61.5 -60.5t-41 -79t-12 -65.5q0 -43 25 -69.5t76 -26.5q25 0 57 11.5t68.5 48t78 110.5t101.5 235t75 198
q-26 -37 -67.5 -87.5t-92.5 -89.5t-92 -39q-83 0 -83 64q0 16 5.5 39.5t17 52t52 117.5t40.5 131q0 58 -72 58q-46 0 -94 -29t-86.5 -74.5t-61.5 -94.5t-23 -86q0 -28 15.5 -45t46.5 -17q26 0 53 14.5t46 47.5t19 61q0 17 -7.5 28t-21.5 11q-5 0 -8.5 2.5t-3.5 5.5
q0 4 5.5 7t14.5 3q23 0 36 -18t13 -45q0 -22 -10 -47.5t-28 -45.5t-46.5 -33t-64.5 -13q-33 0 -54.5 16t-28.5 39t-7 43q0 32 14.5 76t45 85t66.5 69t80.5 44.5t92.5 16.5q140 0 140 -96q0 -18 -6.5 -45.5t-21.5 -63t-56 -116t-41 -104.5q0 -21 23 -21q32 0 84.5 39.5
t120 120.5t100.5 136q43 71 82 108.5t85 37.5z" />
    <glyph glyph-name="Z" unicode="Z" horiz-adv-x="455" 
d="M344 706q29 0 58 -8.5t51 -29.5t35.5 -54.5t13.5 -80.5q0 -58 -22.5 -125t-64 -129t-100.5 -111t-127 -72q19 -32 19 -73q0 -20 -4 -36q53 7 126 7q9 0 14.5 -3.5t5.5 -8.5q0 -6 -8 -13t-16 -7q-73 0 -130 -6q-10 -31 -37 -70.5t-74.5 -68t-105.5 -28.5q-32 0 -49.5 12
t-17.5 32q0 38 59 79.5t165 63.5q14 37 14 71q0 20 -6 36q-32 -7 -72 -7q-25 0 -39.5 13.5t-14.5 30.5q0 15 11.5 26t31.5 11q70 0 110 -38q37 17 81.5 57.5t91.5 112.5t72.5 149t25.5 130q0 39 -13 67t-36 39t-49 11q-29 0 -67 -9.5t-77 -34t-74.5 -62.5t-58.5 -86.5
t-23 -87.5q0 -32 18 -51.5t52 -19.5q21 0 43 5v14q0 46 23.5 97.5t57 82.5t68.5 31q24 0 36 -13t12 -35q0 -27 -18 -61.5t-48.5 -64.5t-55 -44t-41.5 -21q7 -36 44 -36q9 0 9 -5q0 -3 -5.5 -6.5t-14.5 -3.5q-47 0 -62 42q-32 -8 -63 -8q-22 0 -45 11t-37.5 39t-14.5 64
q0 45 21.5 95t65 93t109 69.5t147.5 26.5zM308 535q-16 0 -40.5 -22.5t-50 -73t-28.5 -89.5q28 12 59.5 39t52.5 64.5t21 61.5q0 20 -14 20zM-30 -181q20 0 48 12.5t56 43.5t47 68q-55 -12 -96.5 -31t-59 -39.5t-17.5 -34.5q0 -8 6 -13.5t16 -5.5zM100 103q15 0 31 3
q-10 12 -26 19t-38 7q-8 0 -15.5 -4t-7.5 -11q0 -6 10 -10.5t31 -4.5z" />
    <glyph glyph-name="bracketleft" unicode="[" horiz-adv-x="306" 
d="M294 712l87 2q45 0 45 -7q-1 -4 -5.5 -11.5t-9.5 -7.5l-43 2l-52 -1l-214 -692l62 2q43 0 43 -8q-1 -4 -5 -11t-9 -7h-6q-14 2 -43 2l-53 -1q-13 0 -20.5 5t-8.5 21v1q0 25 56.5 217.5t108.5 343t67 150.5z" />
    <glyph glyph-name="bracketright" unicode="]" horiz-adv-x="261" 
d="M318 712h1q4 -3 4 -10q0 -33 -37 -168.5t-98 -325t-74 -208.5q-18 -26 -45 -26l-101 -1q-8 0 -8 5l3 12q3 9 49 9l61 -2q17 67 110.5 367t99.5 325h-8l-88 -1q-7 0 -7 4l3 14q3 8 52 8z" />
    <glyph glyph-name="underscore" unicode="_" horiz-adv-x="660" 
d="M35 12v1q1 12 36 12h239q298 0 296 -13q0 -2 -0.5 -8t-3 -9t-12 -4.5t-18 -1.5h-12.5q-308 0 -416.5 4.5t-108.5 18.5z" />
    <glyph glyph-name="grave" unicode="`" horiz-adv-x="426" 
d="M143 570q0 6 7 11.5t13 5.5q15 0 45 -34q22 -25 42.5 -55.5t20.5 -41.5q0 -5 -3 -5q-9 0 -39 25.5t-50 48.5q-6 7 -21 22.5t-15 22.5z" />
    <glyph glyph-name="a" unicode="a" horiz-adv-x="426" 
d="M465 171l-7 -10q-67 -91 -110.5 -124.5t-77.5 -33.5q-61 0 -61 60q0 14 4 33.5t11.5 40.5t6.5 21l-2 -3q-33 -70 -77.5 -111t-92.5 -41q-29 0 -43.5 22t-14.5 59q0 29 9 65.5t28.5 79t46.5 75.5t55 49.5t55 16.5q36 0 62 -21t31 -47q33 40 50.5 55.5t28.5 15.5
q8 0 17.5 -11.5t9.5 -17.5l-1 -2q-72 -101 -109 -171.5t-37 -102.5q0 -13 7 -21.5t23 -8.5q49 0 154 133q23 28 34 28q8 0 8 -8t-8 -20zM63 37q18 0 38 11.5t41 35t41.5 55.5t42 71.5t26.5 47.5q6 11 6 23q0 20 -13.5 37.5t-32.5 17.5t-44 -20.5t-51.5 -64t-48 -97.5
t-21.5 -89q0 -12 4 -20t12 -8z" />
    <glyph glyph-name="b" unicode="b" horiz-adv-x="360" 
d="M330 142q12 0 43 39q18 18 26 18t8 -8t-8 -20q-38 -54 -67 -54q-23 0 -38.5 12.5t-22.5 32.5l-1 -1q-66 -91 -110 -124.5t-77 -33.5q-17 0 -35 9t-28.5 29t-10.5 40q0 38 10.5 96t37 129.5t62.5 136t72 108.5t67 66t57 22q34 0 34 -39q0 -28 -21.5 -82.5t-71.5 -135.5
t-99.5 -134t-72.5 -53q-9 -26 -16 -58t-7 -54q0 -45 28 -45t73.5 42.5t101.5 118.5v9q0 30 10 59t23.5 41t25.5 12q7 0 11.5 -5t4.5 -12q0 -1 -0.5 -5t-15.5 -51t-15 -74q0 -31 22 -31zM320 609q-23 0 -59 -47.5t-85 -143t-88 -190.5q20 0 78 79.5t108.5 174.5t50.5 119
q0 8 -5 8z" />
    <glyph glyph-name="c" unicode="c" horiz-adv-x="291" 
d="M296 171q23 28 35 28q8 0 8 -9q0 -3 -2 -8.5t-15 -22.5q-31 -42 -71 -80.5t-82 -63t-81 -24.5q-21 0 -42 9t-33 33t-12 56q0 41 17.5 92t46.5 95.5t65 72.5t70 28q29 0 42.5 -12.5t13.5 -33.5q0 -18 -11.5 -47t-35 -59.5t-34.5 -30.5q-6 0 -6 6q0 10 27.5 62t27.5 68
q0 12 -12 12q-22 0 -55.5 -33.5t-68 -107t-34.5 -125.5q0 -53 40 -53q43 0 102 47.5t100 100.5z" />
    <glyph glyph-name="d" unicode="d" horiz-adv-x="436" 
d="M235 146q-2 -2 -20.5 -34.5t-32.5 -49t-28 -28t-35.5 -22t-51.5 -10.5q-24 0 -40 14t-21 34.5t-5 38.5q0 30 11.5 74.5t43 99.5t75.5 87.5t85 32.5q33 0 52 -27t19 -76l-1 -17q77 147 145.5 261t84.5 114q8 0 17.5 -9t9.5 -17q0 -6 -11.5 -29t-80 -142.5t-98.5 -177
t-44.5 -91t-24.5 -63.5t-10 -51q0 -20 15 -20q19 0 50.5 25.5t102.5 108.5q21 21 26 24.5t9 3.5q8 0 8 -9q0 -7 -8 -19q-29 -44 -62 -82t-67 -62.5t-66 -24.5q-55 0 -55 68q0 18 9 73zM75 30q29 0 61.5 30.5t59.5 77t42.5 89.5t15.5 69q0 23 -10.5 35.5t-29.5 12.5
q-21 0 -50.5 -30.5t-56.5 -78t-43.5 -92.5t-16.5 -75q0 -38 28 -38z" />
    <glyph glyph-name="e" unicode="e" horiz-adv-x="295" 
d="M334 199q8 0 8 -8q0 -6 -15 -29q-44 -62 -87 -99.5t-76.5 -54t-65.5 -16.5q-23 0 -46.5 10t-37 35.5t-13.5 59.5q0 20 6.5 50.5t23.5 67.5t47 75t75 65.5t94 27.5q41 0 41 -32q0 -18 -15.5 -48t-53.5 -71.5t-82 -67.5t-75 -26q-6 -24 -6 -49q0 -36 14 -50.5t33 -14.5
q23 0 56 17t73 55.5t68 75.5q19 19 25 23t9 4zM244 350q-20 0 -48.5 -22.5t-58 -57t-48.5 -63t-19 -36.5l2 -3q14 0 41.5 16.5t63.5 53t55.5 65t19.5 40.5q0 7 -8 7z" />
    <glyph glyph-name="f" unicode="f" horiz-adv-x="270" 
d="M295 155q-34 -45 -90 -45q-24 0 -48.5 14t-40.5 30q8 -43 8 -114q0 -63 -20.5 -135t-52.5 -127t-71 -80.5t-77 -25.5q-25 0 -38 17.5t-13 46.5q0 31 14 67q81 214 182 420.5t177 311.5t119 105q12 0 23 -5.5t16.5 -18t5.5 -24.5q0 -44 -29.5 -106.5t-73.5 -121.5
t-87.5 -97.5t-67.5 -38.5q-7 0 -12 3l-5 -11q5 -14 23 -35.5t35.5 -32t28.5 -10.5h2q19 0 36 4.5t33 23.5q23 28 35 28q8 0 8 -8q0 -4 -2.5 -10t-9.5 -14.5t-8 -10.5zM-92 -207q-6 -14 -11.5 -34t-5.5 -33q0 -24 16 -24q29 0 60 28t59.5 92.5t43 136t14.5 108.5q0 51 -10 99
q-6 0 -26.5 -43t-43 -97t-55.5 -134t-41 -99zM118 263q16 0 40 14.5t54.5 48t64 83.5t59 105t25.5 80q0 16 -11 16q-17 0 -86 -105.5t-146 -241.5z" />
    <glyph glyph-name="g" unicode="g" horiz-adv-x="395" 
d="M267 223q-5 -9 -43.5 -76t-69 -99.5t-55 -41.5t-41.5 -9q-29 0 -43.5 22t-14.5 59q0 29 9 65.5t28.5 79t46.5 75.5t55 49.5t55 16.5q36 0 62 -21.5t31 -46.5q33 40 50.5 55.5t28.5 15.5q8 0 17 -11.5t9 -17.5v-2q-38 -67 -68.5 -133.5t-58 -163.5t-33.5 -115
q1 0 29.5 7.5t38.5 8.5h2q5 0 8.5 -4t3.5 -8q0 -5 -4 -11t-9 -6q-17 -2 -77 -23q-41 -123 -88.5 -181.5t-107.5 -58.5q-18 0 -34 8.5t-23 25.5t-7 33q0 26 21 59.5t73.5 71t112.5 62.5q1 4 5 16t31.5 113.5t59.5 185.5zM70 31q14 0 35 10t48.5 44.5t61 97t36.5 68.5
q6 11 6 24q0 21 -13.5 38t-32.5 17q-25 0 -58.5 -35.5t-66.5 -111.5t-33 -122q0 -13 4.5 -21.5t12.5 -8.5zM23 -320q30 0 64.5 45t66.5 132q-158 -79 -158 -147q0 -10 6 -20t21 -10z" />
    <glyph glyph-name="h" unicode="h" horiz-adv-x="369" 
d="M320 638q37 0 37 -34t-36 -90t-88 -107.5t-96 -83.5q-55 -110 -61 -128l4 5q138 174 198 174q59 0 59 -52q0 -29 -18 -74.5t-60 -120.5t-42 -86q0 -3 4 -4q27 0 69 38t84 95q23 28 35 28q8 0 8 -8t-15 -30q-52 -72 -99 -115t-89 -43q-46 0 -46 41q0 13 6 35.5t21 54
t54.5 105t39.5 90.5q0 10 -9 10q-23 0 -70.5 -42.5t-114 -134.5t-95.5 -156l-4 -1q-4 0 -14.5 2.5t-16 8t-5.5 10.5q0 9 53 133t115.5 243.5t111.5 178t80 58.5zM321 610q-9 0 -28.5 -22.5t-52.5 -77t-77 -138.5q72 67 119.5 134t47.5 93q0 11 -9 11z" />
    <glyph glyph-name="i" unicode="i" 
d="M28 2q-17 0 -30 11.5t-13 49.5q0 27 17.5 78t44.5 109t53.5 97t39.5 39q11 0 19.5 -9t8.5 -25q0 -11 -56.5 -111t-72.5 -137.5t-16 -52.5q0 -14 12 -14q27 0 69 38t84 95q23 28 35 28q8 0 8 -8q0 -4 -5 -13.5t-11 -16.5q-52 -72 -98.5 -115t-88.5 -43zM174 486
q1 15 15 24.5t27 9.5q12 0 22 -8.5t10 -25.5v-1q0 -15 -13.5 -25.5t-27.5 -10.5t-23.5 10t-9.5 27z" />
    <glyph glyph-name="j" unicode="j" horiz-adv-x="199" 
d="M70 -34v-3q-1 -6 -7 -10.5t-12 -4.5q-18 0 -35 -3q-30 -99 -59.5 -156.5t-70 -89.5t-95.5 -32q-27 0 -45.5 18t-18.5 55q0 42 30.5 88t81 81t116.5 53q11 35 53 177t65.5 183.5t43.5 41.5q29 0 29 -21q0 -13 -11 -34q-16 -33 -36 -86.5t-46.5 -147.5t-28.5 -101l36 2
q10 0 10 -10zM-241 -265q0 -36 27 -36q40 0 78 54t80 175q-42 -15 -85 -45t-71.5 -71.5t-28.5 -76.5zM156 486q1 15 15 24.5t27 9.5q12 0 22 -8.5t10 -25.5v-1q0 -15 -13.5 -25.5t-27.5 -10.5t-23.5 10t-9.5 27z" />
    <glyph glyph-name="k" unicode="k" horiz-adv-x="397" 
d="M140 324l-18 -36q61 55 111 81t83 26q22 0 33.5 -13.5t11.5 -34.5q0 -36 -25.5 -72.5t-64.5 -58.5t-89 -22l-1 -4q0 -19 10.5 -64t26 -67.5t31.5 -22.5q26 0 68 38t86 96q6 7 17 17.5t17 10.5q8 0 8 -9t-10 -23l-43 -56q-38 -50 -77 -79.5t-73 -29.5q-37 0 -64 27.5
t-42.5 80.5t-15.5 104l1 9q41 0 85 17t75.5 52t31.5 59q0 16 -15 16q-12 0 -60 -26t-92.5 -63t-58.5 -69q-76 -203 -87 -203q-15 0 -27.5 6t-12.5 14q0 9 53 133t115.5 243.5t111.5 178t80 58.5q38 0 38 -34t-35.5 -90t-87.5 -107t-95 -83zM321 610q-34 0 -157 -237
q71 66 118.5 132.5t47.5 93.5q0 11 -9 11z" />
    <glyph glyph-name="l" unicode="l" horiz-adv-x="238" 
d="M277 198q8 0 8 -8q0 -11 -15 -30q-68 -92 -111 -125t-77 -33q-17 0 -35 9t-28 29t-10 40q0 38 10.5 96t37 129.5t62.5 136t72 108.5t67 66t57 22q34 0 34 -39q0 -28 -21.5 -82.5t-71.5 -135.5t-100 -134t-73 -53q-9 -25 -16 -57t-7 -54q0 -46 29 -46q27 0 69 38t85 95
q23 28 34 28zM320 608q-37 0 -104 -116t-128 -265q20 0 78 79.5t108.5 174.5t50.5 119q0 8 -5 8z" />
    <glyph glyph-name="m" unicode="m" horiz-adv-x="585" 
d="M256 387q72 0 72 -71q0 -12 -7.5 -49t-12.5 -47q8 9 57 85t99 76q64 0 64 -62q0 -31 -15 -75.5t-47.5 -116t-32.5 -82.5q0 -5 4 -5q27 0 69 38t84 95q23 28 35 28q8 0 8 -8q0 -5 -3 -11.5t-12 -18.5q-53 -72 -99.5 -115t-88.5 -43q-39 0 -39 50q0 28 11.5 69.5t38.5 118
t27 94.5q0 12 -8 12q-20 0 -48.5 -31t-59.5 -79t-86 -144.5t-62 -96.5q-15 0 -27.5 6t-12.5 14q0 5 33 97t48.5 145.5t15.5 76.5q0 18 -9 18t-25 -11.5t-41.5 -46t-50 -74.5t-79 -133t-67.5 -93q-11 0 -25 3.5t-14 8.5l80 198q6 14 26 66t31.5 71t24 26.5t26.5 7.5
q17 0 10 -17q0 -1 -2 -5t-37.5 -81.5t-38.5 -93.5q4 4 36.5 59.5t57 85t47.5 45.5t45 16z" />
    <glyph glyph-name="n" unicode="n" horiz-adv-x="379" 
d="M138 378q17 0 10 -17q0 -1 -2 -5t-37.5 -81.5t-38.5 -93.5q1 1 45.5 64t76.5 92.5t52.5 39t34.5 9.5q56 0 56 -64q0 -15 -5.5 -39t-20 -57.5t-49 -99.5t-34.5 -79q0 -7 5 -7q27 0 69 38t84 95q23 28 35 28q8 0 8 -8q0 -4 -5.5 -15t-11.5 -17q-38 -52 -69.5 -85.5
t-60.5 -52t-56 -18.5q-52 0 -52 58q0 15 6 38.5t20.5 56.5t51.5 103.5t37 86.5q0 10 -7 10q-18 0 -44 -18t-63.5 -65.5t-96.5 -143t-65 -104.5t-16 -20t-14 -11q-11 0 -21 4t-10 9q5 11 10 23.5t34.5 86.5t43.5 107q5 11 16 37.5t18.5 44t18.5 36.5t23.5 26.5t23.5 7.5z" />
    <glyph glyph-name="o" unicode="o" horiz-adv-x="329" 
d="M201 380q43 0 63.5 -21t20.5 -57q0 -27 -11 -62q-5 -19 -5 -44q0 -22 6.5 -36t17.5 -14q16 0 41 29q19 23 29 23q8 0 8 -8q0 -15 -18 -36q-34 -38 -64 -38q-34 0 -54 39q-37 -64 -86.5 -112t-83.5 -48q-15 0 -30.5 7.5t-24 28t-8.5 47.5q0 20 7 57t30.5 88.5t52 86.5
t56 52.5t53.5 17.5zM73 24q28 0 72.5 54.5t75.5 121.5q-4 23 -4 44t9.5 44.5t25.5 34.5q-5 34 -37 34q-24 0 -57.5 -40t-68 -125t-34.5 -135q0 -14 5 -23.5t13 -9.5z" />
    <glyph glyph-name="p" unicode="p" horiz-adv-x="379" 
d="M55 267q25 56 44.5 83.5t37.5 27.5q17 0 10 -17l-46 -106l-32 -80q57 79 118.5 140t94.5 61q42 0 42 -47q0 -28 -15 -72.5t-50.5 -123t-35.5 -91.5q0 -6 4 -6q27 0 69.5 38.5t84.5 95.5q14 15 21.5 21.5t12.5 6.5q8 0 8 -8t-8 -20q-117 -169 -195 -169q-41 0 -41 43
q0 14 5.5 37.5t20 58.5t50 108t35.5 87q0 7 -5 7q-9 0 -34 -17.5t-63.5 -58.5t-87 -111.5t-104 -188t-96.5 -273.5q-1 -4 -7 -7t-12 -3q-10 0 -18.5 7.5t-8.5 24.5q0 25 70.5 216.5t130.5 335.5z" />
    <glyph glyph-name="q" unicode="q" horiz-adv-x="368" 
d="M71 -275q-9 -19 -20.5 -28t-20.5 -9q-6 0 -10 3.5t-4 8.5v1q0 22 48 143l-42 -1q-43 0 -63 3q-3 1 -8 4t-5 9t8 8.5t33 2.5l88 1q39 95 84 193q-58 -62 -115 -62q-23 0 -35 20.5t-12 55.5q0 31 9 69t29.5 83.5t50 80.5t61 53t64.5 18q24 0 41 -21t20 -66q26 48 46.5 77
t29.5 29q7 0 12 -8t5 -20q0 -11 -64 -154t-160 -346l88 2q35 0 52.5 -3.5t17.5 -11.5q0 -3 -4 -6.5t-31 -3.5q-44 0 -136 -4zM54 39q19 0 56 32t82 98.5t50 104.5l2 22q0 16 -5 30t-14 19.5t-15 5.5q-19 0 -44.5 -23t-52 -71t-48 -106.5t-21.5 -91.5q0 -20 10 -20z" />
    <glyph glyph-name="r" unicode="r" horiz-adv-x="284" 
d="M61 173q8 12 45.5 71t66.5 90t50.5 40t35.5 9q18 0 29.5 -13t11.5 -36q0 -26 -17 -64.5t-52 -84.5q-5 -5 -12.5 -9.5t-11.5 -4.5q-5 0 -5 6q0 9 8 25q14 30 24.5 62.5t10.5 51.5q0 20 -12 20q-22 -8 -48.5 -36.5t-53.5 -70t-79.5 -134.5t-64.5 -108q-10 0 -23.5 9
t-13.5 15l82 202q4 10 23 56t32 69.5t26 31.5t25 8t12 -9l-2 -8q0 -1 -1 -2.5t-21 -38t-38 -78.5t-27 -69z" />
    <glyph glyph-name="s" unicode="s" horiz-adv-x="302" 
d="M58 117q34 -17 79 -17h15q5 29 5 61q0 14 -1 37t-5 64t-4 46q-10 -13 -51.5 -64.5t-54.5 -69.5q-8 -12 -17.5 -21.5t-15.5 -9.5q-9 0 -9 10q0 11 12 28l142 194q8 18 27 31t45 13q18 0 18 -10l-1 -5q-1 -5 -10 -11t-13 -10t-7 -8.5t-5.5 -12.5t-2.5 -21q0 -14 6 -75
t6 -95q0 -29 -6 -59q58 19 96 61q23 28 34 28q8 0 8 -8q0 -15 -15 -30q-23 -24 -58.5 -47.5t-73.5 -34.5q-12 -36 -32 -54.5t-37 -22t-24 -3.5q-28 0 -47.5 21t-19.5 57q0 15 4 27.5t10 12.5zM100 29q16 0 27 12.5t17 29.5h-6q-41 0 -74 17q1 -27 11 -43t25 -16z" />
    <glyph glyph-name="t" unicode="t" horiz-adv-x="199" 
d="M44 1q-25 0 -37 20t-12 52q0 13 7 43t29.5 83.5t63 132t92.5 161.5l-68 -1q-68 0 -68 14q0 4 4.5 7.5t32.5 3.5l116 4q33 52 58.5 84.5t34.5 32.5q15 0 23 -11t8 -19l-1 -5q-7 -7 -50 -80l51 1q76 0 76 -7v-9q0 -6 -7.5 -8.5t-32.5 -2.5l-103 -2q-96 -162 -158 -286
t-62 -159q0 -14 10 -14q26 0 68 38t86 96q6 7 17 17.5t17 10.5q8 0 8 -9q0 -10 -15 -29q-39 -53 -71 -87t-61 -53t-56 -19z" />
    <glyph glyph-name="u" unicode="u" horiz-adv-x="416" 
d="M261 1q-42 0 -42 57q0 6 1.5 24t10 51.5t8.5 34.5q-3 -3 -28 -36.5t-42 -52.5t-35.5 -36t-41 -29.5t-43.5 -12.5q-29 0 -43 17t-14 47q0 36 22 98.5t65 129t63 66.5q11 0 19 -5t8 -14q0 -2 -3 -10t-49.5 -88t-62 -121.5t-15.5 -61.5q0 -26 11 -26q15 0 37 15.5t51 52
t99 140.5t99 104q6 0 11.5 -2.5t5.5 -14.5q0 -2 -27.5 -75.5t-41 -113.5t-18 -61t-4.5 -30q0 -12 6 -12q26 0 68 38t86 96q6 7 17 17.5t17 10.5q8 0 8 -9q0 -7 -8 -19q-26 -41 -62 -82.5t-70.5 -62.5t-62.5 -24z" />
    <glyph glyph-name="v" unicode="v" horiz-adv-x="300" 
d="M270 140q2 0 7 1.5t28 28.5q14 15 21.5 21.5t12.5 6.5q8 0 8 -8t-8 -20q-11 -19 -29 -36.5t-38 -17.5q-23 0 -37.5 16t-19.5 43q-47 -72 -100 -121.5t-96 -49.5q-19 0 -31 17t-12 45q0 9 5.5 23.5t17.5 39t24 48t22 52t18 58.5t10 67q0 5 4 8.5t9 3.5q20 0 31 -17t11 -36
q0 -29 -17 -73.5t-56 -118t-39 -84.5q0 -5 4 -5q80 0 192 213q10 68 30.5 103.5t46.5 35.5q5 0 10 -6t5 -11q0 -1 -1 -5.5t-17 -54t-24.5 -84t-8.5 -54.5q0 -13 4.5 -21t12.5 -8z" />
    <glyph glyph-name="w" unicode="w" horiz-adv-x="471" 
d="M90 356q2 9 16 9q17 0 25.5 -12.5t8.5 -31.5q0 -14 -6 -39t-22.5 -62.5t-55 -113t-38.5 -88.5q0 -6 4 -6q24 0 61 40.5t66.5 81t84 119.5t63.5 79q11 0 20 -5t9 -16q0 -10 -9 -27q-46 -84 -72 -149t-26 -99q0 -4 2 -13.5t9 -9.5q26 0 63 53t94 190q8 43 26 74t39 31
q7 0 11.5 -5t4.5 -12q0 -1 -1 -5t-15 -48t-21 -74t-7 -47q0 -30 19 -30q4 0 10.5 4t23.5 26q6 7 17 17.5t18 10.5q8 0 8 -9q0 -7 -8 -19q-40 -54 -67 -54q-21 0 -35.5 12.5t-20.5 34.5q-37 -73 -79 -122.5t-73 -49.5q-61 0 -61 67q0 28 9 61q-46 -60 -89 -101t-64 -41
q-34 0 -51 20.5t-17 56.5q0 18 8.5 38t39.5 73t44 83.5t21 55.5t13 52z" />
    <glyph glyph-name="x" unicode="x" horiz-adv-x="361" 
d="M214 36q19 0 51.5 26t102.5 108q14 15 21.5 21.5t12.5 6.5q8 0 8 -9q0 -7 -8 -19q-24 -38 -58 -77.5t-69.5 -65.5t-67.5 -26q-35 0 -61 17.5t-39.5 43t-20.5 48.5q-56 -62 -102 -133q-4 -4 -11 -4t-14 4t-7 11q0 4 5 12q58 82 120 152q-6 32 -6 82q0 67 10.5 114t24.5 47
q12 0 19.5 -5t7.5 -22l-2 -117v-41q46 45 98.5 87.5t98 68.5t56.5 26q7 0 7 -16q0 -5 -58.5 -47.5t-98.5 -76t-65 -57.5t-34 -33q13 -126 79 -126z" />
    <glyph glyph-name="y" unicode="y" horiz-adv-x="417" 
d="M286 -98q0 -5 -4 -9t-8 -4q-12 0 -38 -4q-41 -116 -92 -174.5t-110 -58.5q-18 0 -34 8.5t-23 26t-7 33.5v6q3 31 26.5 64.5t68.5 65t109 48.5q4 12 33 109.5t47 148t25 66.5q-18 -33 -72.5 -101.5t-96 -102.5t-64.5 -34q-29 0 -43 18.5t-14 71.5q0 45 39.5 123t71.5 117
t44 39q8 0 15.5 -3.5t7.5 -12.5q0 -5 -8 -24.5t-50.5 -100t-59 -117t-19.5 -50t-3 -17.5q0 -11 8 -11q13 0 35.5 12.5t58 50t69 81t108 145.5t94.5 102q11 0 19.5 -10.5t8.5 -33.5q0 -3 -11 -15t-18.5 -22t-15.5 -21.5t-16.5 -27t-21.5 -41.5t-30.5 -75.5t-34.5 -118.5
q-1 -2 -2.5 -8t-11.5 -49.5t-20 -75.5l26 1q5 0 9.5 -3.5t4.5 -11.5zM3 -279v-5q0 -31 27 -31q29 0 63.5 45.5t66.5 133.5q-29 -12 -64.5 -33t-62.5 -51.5t-30 -58.5z" />
    <glyph glyph-name="z" unicode="z" horiz-adv-x="296" 
d="M230 -42q11 0 11 -12q0 -6 -4 -11t-9 -5q-18 0 -28 -2q-2 -42 -22 -88.5t-52 -85.5t-73.5 -63t-83.5 -24q-18 0 -34 8.5t-23 26t-7 33.5v6q3 23 30 60t88.5 80.5t124.5 63.5l1 12q0 25 -13.5 45t-39.5 29q-42 -16 -89 -16q-5 0 -8 4.5t-3 10.5q0 10 10.5 20.5t62.5 14.5
q47 25 85 85t55 117q-40 -10 -71 -10q-41 0 -60.5 16.5t-19.5 41.5q0 13 6.5 31.5t21.5 34.5t28 16q14 0 22 -7t8 -20q0 -9 -4.5 -21.5t-17.5 -32t-16 -23.5q16 -7 39 -7q36 0 104 16h2q8 0 15 -10t7 -24q0 -6 -7.5 -31.5t-23 -59t-42.5 -68.5t-64 -58q57 -27 63 -95z
M-35 -300q18 0 51 24.5t73 81.5t54 108q-34 -12 -76 -37.5t-68.5 -51t-42 -47.5t-18.5 -42v-5q0 -31 27 -31z" />
    <glyph glyph-name="braceleft" unicode="{" horiz-adv-x="246" 
d="M322 728q5 0 10 -2.5t5 -8.5t-6 -11t-15 -5q-43 0 -67 -37.5t-24 -85.5q0 -13 3 -43.5t3 -46.5q0 -30 -10 -69q-17 -59 -61 -83l7 -8q11 -16 11 -38q0 -18 -6 -39.5t-18 -42.5t-55 -84t-43 -111q0 -10 6.5 -20t19 -16t21.5 -6q3 0 9 -2t6 -9q0 -6 -6 -10.5t-16 -4.5
q-16 0 -35.5 8t-34 29t-14.5 47q0 24 13 56t51 86t50.5 75.5t15.5 35.5t3 19q0 7 -2 10q-6 9 -23 9q-7 0 -11.5 4t-4.5 9v1q0 7 8 12.5t15 5.5q22 0 32 13q18 19 18 73q0 31 -3 62q-3 32 -3 63q0 40 19 80t55.5 62.5t76.5 22.5z" />
    <glyph glyph-name="bar" unicode="|" horiz-adv-x="231" 
d="M207 751q-22 -830 -22 -910q0 -2 -3 -4.5t-8 -2.5q-11 0 -22 21q-3 8 -5 94.5t-2 204.5q0 273 10.5 438t29.5 173h1q16 0 21 -14z" />
    <glyph glyph-name="braceright" unicode="}" horiz-adv-x="315" 
d="M262 728q35 0 59.5 -25t24.5 -62q0 -16 -4 -31q-8 -26 -50 -89.5t-54.5 -85.5t-18 -38.5t-5.5 -25.5q0 -19 25 -19q7 0 11 -4t4 -9q0 -7 -7.5 -13t-15.5 -6q-20 0 -32 -12q-17 -20 -17 -69l5 -123q0 -36 -5 -56q-13 -46 -56.5 -80.5t-88.5 -34.5q-16 0 -16 10q0 6 6.5 11
t14.5 5q25 1 49.5 18t33.5 48q9 28 9 59q0 12 -3 41.5t-3 45.5q0 34 9 66.5t26 54.5t35 33q-18 17 -18 45q0 17 6 39q11 39 56 107.5t57 108.5q4 16 4 22q0 18 -14 30t-34 12q-7 0 -10.5 3.5t-3.5 7.5q0 2 2 5.5t4 5.5q5 5 15 5z" />
    <glyph glyph-name="exclamdown" unicode="&#xa1;" horiz-adv-x="247" 
d="M-130 -316q0 -13 5.5 -20t12.5 -7q27 0 94.5 124.5t131.5 274.5t64 169q0 9 -5 13.5t-11 4.5q-9 0 -10 -4q-39 -85 -282 -555zM210 405h3q39 0 39 -20q0 -8 -6.5 -23t-20.5 -30.5t-26 -15.5q-7 0 -16 12.5t-9 18.5q0 7 5 23.5t13.5 25.5t17.5 9z" />
    <glyph glyph-name="cent" unicode="&#xa2;" horiz-adv-x="288" 
d="M237 176q9 0 9 -14q0 -16 -11 -41.5t-32 -53t-47.5 -46t-56.5 -21.5l-34 -95q-3 -4 -7 -4t-7.5 4.5t-4.5 14.5q0 5 24 81q-35 5 -52.5 31t-17.5 66q0 29 10 68.5t37 90t63.5 84t68.5 41.5q40 98 54 99q2 -1 6 -4t5 -10l-30 -83q16 -3 29 -13t13 -32q0 -18 -11.5 -47
t-35 -59.5t-34.5 -30.5q-6 0 -6 6q0 10 27.5 62t27.5 68q0 12 -12 12q-23 0 -56.5 -33.5t-68 -106.5t-34.5 -125q0 -53 41 -53q16 0 35 7.5t37 25t31 39.5t25 47t15 25z" />
    <glyph glyph-name="sterling" unicode="&#xa3;" horiz-adv-x="690" 
d="M65 260q0 4 4 7.5t31 3.5l96 4q92 162 131 221t81.5 105.5t85 69.5t83.5 23q40 0 60 -15.5t20 -43.5q0 -39 -39 -101.5t-108 -125t-137 -100.5q-10 -5 -15 -5q-6 0 -11 4t-5 9q0 9 15 18q62 36 126.5 96t101.5 118t37 89q0 33 -37 33q-27 0 -59 -22.5t-69 -75t-96 -158
t-77 -136.5h13q63 0 63 -7v-10q0 -6 -6 -8.5t-27 -2.5l-60 -1q-71 -115 -128 -171q74 -36 102.5 -47t56.5 -17t56 -6q45 0 91.5 9.5t87.5 33.5t60.5 53.5t19.5 52.5q0 22 -16.5 36.5t-47.5 14.5q-56 0 -106 -37t-90 -94q-18 -25 -33 -25q-4 0 -7.5 3.5t-3.5 8.5q0 8 7 21
q26 46 61 79.5t76.5 51.5t91.5 18q24 0 50 -9.5t43 -33.5t17 -53q0 -30 -17.5 -60.5t-54 -56t-93.5 -41t-131 -15.5q-48 0 -106 17.5t-148 66.5q-62 -47 -124 -47q-22 0 -44.5 5.5t-35 19.5t-12.5 31q0 26 24.5 48t59.5 22q49 0 113 -26q35 44 93 144l-55 -1
q-30 0 -44.5 3.5t-14.5 11.5zM-20 30q20 0 41 12.5t40 31.5q-52 28 -69 28q-32 0 -50.5 -12t-18.5 -27q0 -14 15 -23.5t42 -9.5z" />
    <glyph glyph-name="yen" unicode="&#xa5;" horiz-adv-x="678" 
d="M294 206q0 4 4.5 7.5t27.5 3.5h4l135 6q12 24 76 173q-36 -41 -76 -66.5t-77 -25.5q-80 0 -80 59q0 38 39.5 125t45 111t5.5 36q0 52 -68 52q-25 0 -55 -13t-63 -45t-51 -71t-18 -67t18 -45.5t54 -17.5q13 0 19.5 -3t6.5 -8q0 -7 -13 -14t-26 -7q-47 0 -71.5 25.5
t-24.5 65.5q0 35 17 75t48 74.5t72.5 55.5t87.5 21q128 0 128 -84q0 -30 -14 -67.5t-48 -106.5t-34 -91q0 -23 26 -23q36 0 87.5 40t113.5 126q53 110 101.5 156t102.5 46q10 0 18.5 -6.5t8.5 -13.5q0 -11 -18 -11q-42 0 -81.5 -45.5t-97.5 -198t-86 -210.5q65 0 65 -7
q0 -9 -6 -14.5t-29 -5.5l-44 -1l-31 -57h32q63 0 63 -6q0 -8 -5.5 -14.5t-28.5 -6.5l-79 -1q-63 -92 -136.5 -132.5t-157.5 -40.5q-53 0 -87.5 23.5t-46.5 56t-12 58.5q0 33 13 66t39 60t64 43t85 16q15 0 26 -6t11 -13q0 -5 -9 -9.5t-24 -4.5q-45 0 -80 -20.5t-58 -57
t-23 -77.5q0 -30 14.5 -54t40 -34t50.5 -10q122 0 215 133l-57 -1q-63 0 -63 15q0 4 4.5 7.5t32.5 3.5l102 4q19 32 32 57l-26 -1l-68 -2q-62 0 -62 15z" />
    <glyph glyph-name="section" unicode="&#xa7;" horiz-adv-x="471" 
d="M183 333q0 94 41 138t121 45q1 59 19.5 98.5t50 61t70.5 21.5q35 0 61.5 -18t26.5 -43l-2 -17q-1 -3 -5.5 -7t-7.5 -4q-4 2 -4 6l1 5l2 16q0 16 -19 28.5t-43 12.5q-26 0 -46.5 -16t-32 -46t-11.5 -76q0 -25 4 -86.5t4 -89.5q0 -96 -40.5 -139.5t-120.5 -44.5
q-1 -34 -10 -67.5t-29.5 -60t-49.5 -42.5t-63 -16q-45 0 -77 29.5t-32 79.5q0 32 14.5 68.5t41.5 58.5t55 22l3 -6q0 -6 -6 -6q-12 0 -29.5 -17.5t-32.5 -54t-15 -69.5q0 -34 23 -56t53 -22q26 0 48 17.5t34 47.5t12 73q0 25 -4.5 86.5t-4.5 89.5zM243 362q0 -27 4 -84.5
t5 -77.5q102 1 102 135q0 25 -4.5 82.5t-4.5 82.5q-22 -1 -39 -7t-30 -18.5t-23 -40t-10 -72.5z" />
    <glyph glyph-name="dieresis" unicode="&#xa8;" horiz-adv-x="426" 
d="M174 514q0 12 14 20t28 8q11 0 20 -6.5t9 -17.5q0 -15 -13 -25.5t-29 -10.5q-11 0 -20 7.5t-9 24.5zM294 513q1 13 13.5 21.5t24.5 8.5q10 0 19 -7.5t9 -22.5v-1q0 -14 -12.5 -23t-24.5 -9q-11 0 -20 8t-9 25z" />
    <glyph glyph-name="copyright" unicode="&#xa9;" horiz-adv-x="649" 
d="M425 643q68 0 115 -25.5t73.5 -73.5t26.5 -118q0 -66 -26 -137.5t-66.5 -123.5t-85.5 -84t-90 -44.5t-80 -12.5q-46 0 -91 12t-79.5 40t-55 72t-20.5 103q0 48 18.5 110t64 124t102 98t106 48t88.5 12zM258 49q67 0 128 40t106 104t70 137.5t25 136.5q0 68 -30.5 109.5
t-90.5 41.5q-90 0 -173.5 -61t-136.5 -161t-53 -188q0 -43 16 -81t53 -58t86 -20zM445 317q-3 0 -15 -25t-25 -47t-31 -39.5t-37 -25t-35 -7.5q-41 0 -41 53q0 41 26.5 107t65.5 112t67 46q12 0 12 -12q0 -16 -27.5 -67.5t-27.5 -61.5q0 -6 6 -6q9 0 27 21t36 55t18 61
q0 21 -13.5 33t-42.5 12q-26 0 -57.5 -19t-67 -65.5t-55.5 -104t-20 -98.5q0 -44 22 -71t66 -27q32 0 66.5 21.5t63 67t28.5 73.5q0 14 -9 14z" />
    <glyph glyph-name="ordfeminine" unicode="&#xaa;" horiz-adv-x="299" 
d="M335 476l-4 -6q-41 -56 -67.5 -75.5t-45.5 -19.5q-37 0 -37 36q0 24 13 56l-1 -1q-7 -16 -23 -39.5t-37 -37.5t-42 -14t-31 13t-10 35q0 36 21.5 78.5t48.5 68t53 25.5q22 0 37.5 -12.5t18.5 -28.5q14 19 27 31t20 12q5 0 14.5 -7t9.5 -10v-2q-49 -68 -68.5 -103.5
t-19.5 -53.5t18 -18q28 0 84 73q17 17 21 17q2 0 3.5 -1.5t1.5 -3.5q0 -4 -5 -12zM94 395q14 0 30 12.5t34.5 37.5t35.5 58.5t17 38.5q0 11 -8.5 22t-19.5 11q-13 0 -33 -24t-41.5 -72.5t-21.5 -71.5q0 -12 7 -12z" />
    <glyph glyph-name="guillemotleft" unicode="&#xab;" horiz-adv-x="330" 
d="M165 128q15 -9 15 -17l-6 -10q-4 -3 -9 -3q-16 0 -50.5 24.5t-43.5 35.5t-9 19l1 7q0 4 1.5 12t19.5 24.5t123 73.5q14 8 20 8q9 0 9 -20q0 -5 -16 -18t-83 -52l-44 -27q25 -27 72 -57zM345 300q10 0 10 -11l-1 -9q0 -5 -16 -18t-83 -52l-44 -27q25 -27 72 -57
q15 -9 15 -17q-1 -5 -7 -11l-8 -2q-15 0 -49.5 24.5t-44.5 35.5q-9 11 -9 19l1 7q0 4 1.5 12t19.5 24.5t123 73.5q14 8 20 8z" />
    <glyph glyph-name="registered" unicode="&#xae;" horiz-adv-x="432" 
d="M392 690q31 0 59.5 -11.5t45.5 -41.5t17 -68q0 -40 -16.5 -83.5t-45.5 -80t-69 -59t-84 -22.5q-69 0 -104.5 36t-35.5 91q0 39 17.5 81.5t49 78.5t75 57.5t91.5 21.5zM286 346q22 0 46 9.5t43 25.5l-8 6q-6 5 -19.5 44t-13.5 58l1 8l2 2q23 16 41 44.5t18 48.5
q0 11 -8.5 17.5t-21.5 7.5q-15 -23 -41.5 -85.5t-55.5 -150.5q-1 -3 -7 -3t-11 5t-5 15v3q1 8 17 58.5t40 109.5t41 66q12 3 25 3q16 0 31 -6.5t21.5 -18t6.5 -23.5q0 -25 -18.5 -55t-46.5 -49q2 -20 9.5 -47t18.5 -44q38 37 62.5 91.5t24.5 100.5q0 35 -16.5 58t-48.5 23
q-39 0 -78 -20t-70 -54t-49 -76t-18 -83q0 -39 18.5 -59.5t39.5 -25t30 -4.5z" />
    <glyph glyph-name="macron" unicode="&#xaf;" horiz-adv-x="379" 
d="M127 493v1q1 10 16 10q221 0 220 -11q-1 -12 -2.5 -15t-14.5 -3l-120 2q-67 0 -83 4t-16 12z" />
    <glyph glyph-name="degree" unicode="&#xb0;" horiz-adv-x="234" 
d="M234 662q28 0 42 -14.5t14 -37.5q0 -19 -12.5 -49.5t-43.5 -57t-65 -26.5q-32 0 -48.5 15.5t-16.5 40.5q0 30 22.5 63.5t51.5 49.5t56 16zM170 494q16 0 34.5 16t34 48t15.5 58q0 12 -5.5 21t-15.5 9q-24 0 -47.5 -24t-33.5 -51t-10 -43q0 -13 6.5 -23t21.5 -11z" />
    <glyph glyph-name="uni00B2" unicode="&#xb2;" horiz-adv-x="347" 
d="M264 666q24 0 44.5 -9.5t29 -26.5t8.5 -34q0 -35 -22.5 -81t-65.5 -97.5t-93 -87.5q27 -9 42 -9q48 0 76 57q4 8 6.5 11t6.5 3q6 0 10.5 -5t4.5 -15q0 -11 -7.5 -27t-17.5 -27q-31 -33 -76 -33q-28 0 -82 23q-44 -23 -79 -23q-17 0 -26 10t-9 23q0 16 11.5 28.5
t29.5 12.5q25 0 68 -13q33 24 76 70.5t75.5 103t32.5 88.5q0 15 -10.5 23t-24.5 8q-24 0 -51.5 -28.5t-41 -57.5t-13.5 -45q0 -7 3 -12q3 -4 10 -4q10 0 13 -2q6 -3 6 -9t-7.5 -11t-14.5 -5q-22 0 -32 13q-10 12 -10 30q0 31 23 70.5t51 63.5t56 24zM50 313q15 0 39 11
q-22 9 -32 9q-3 0 -8.5 -2.5t-5.5 -9.5l2 -6z" />
    <glyph glyph-name="uni00B3" unicode="&#xb3;" horiz-adv-x="347" 
d="M269 667q19 0 36.5 -5.5t27.5 -17.5t13 -24q3 -10 3 -22q0 -33 -22.5 -70.5t-57.5 -61.5q19 -22 19 -57q0 -27 -12 -56q-9 -22 -26 -43t-44.5 -37.5t-64.5 -16.5q-21 0 -40 6t-30 16q-10 9 -16 23t-6 29q0 17 10 41t36 43.5t58 19.5l14 -2q7 -3 7 -9t-6.5 -10t-13.5 -4
q-22 0 -40.5 -14.5t-25.5 -32.5t-7 -31q0 -21 13 -34q14 -14 42 -14q24 0 45.5 15t36.5 41q19 36 19 71q0 21 -8 37q-18 -5 -34 -5t-26 9.5t-10 19.5q0 2 1.5 7.5t7.5 10.5q4 3 12 5.5t14 2.5q24 0 45 -8q27 19 47.5 53t20.5 60l-2 15q-7 23 -39 23q-28 0 -50.5 -17.5
t-31.5 -37t-9 -29.5q0 -8 4 -12q3 -4 11 -4q7 0 11 -3q5 -3 5 -8q0 -6 -5.5 -10.5t-11.5 -4.5q-20 0 -35 13q-11 11 -11 30q0 25 20.5 54t49 42.5t56.5 13.5z" />
    <glyph glyph-name="acute" unicode="&#xb4;" 
d="M296 559q-1 -4 -21 -26.5t-46.5 -47t-41.5 -24.5q-7 0 -7 8q0 5 15.5 29.5t41 54.5t36.5 30q10 0 17.5 -4.5t7.5 -11.5z" />
    <glyph glyph-name="paragraph" unicode="&#xb6;" horiz-adv-x="552" 
d="M661 682q3 -2 9 -8.5t6 -13.5q0 -10 -14 -17q-12 -6 -30 -24.5t-40.5 -62t-64 -152t-69.5 -168.5t-55 -99t-56 -66.5t-64 -45t-64 -21t-40 -3.5q-57 0 -96.5 17t-61 48t-21.5 74q0 34 14 69t38.5 64t56.5 46t67 17q14 0 24 -4.5t10 -9.5q0 -3 -5.5 -5.5t-14.5 -2.5
q-20 0 -44 -10.5t-48.5 -36t-39 -60t-14.5 -64.5q0 -32 16 -56.5t46.5 -37.5t75.5 -13q44 0 82 19.5t68.5 54.5t59.5 87.5t79 175.5t69 161t38 66t39 47q-49 -7 -76 -9t-62 -2q-28 0 -56 -11.5t-52.5 -41t-35 -68t-10.5 -67.5q0 -28 7.5 -51t20 -32t23.5 -9q5 0 9.5 -3.5
t4.5 -6.5q0 -6 -11 -6q-54 0 -88.5 21t-46.5 51t-12 54q0 33 15 67.5t43.5 63t69 45.5t88.5 17q33 0 91.5 5t121.5 18z" />
    <glyph glyph-name="periodcentered" unicode="&#xb7;" horiz-adv-x="164" 
d="M131 204q0 -22 -14 -35t-29 -13q-8 0 -14 5t-6 13q0 22 15 38t30 16q7 0 12.5 -6.5t5.5 -17.5z" />
    <glyph glyph-name="cedilla" unicode="&#xb8;" horiz-adv-x="291" 
d="M33 -63l4 -2q-3 -5 -7 -5q-13 0 -21 -13t-8 -26q0 -10 5.5 -17t16.5 -7q21 0 35 19t14 40q0 12 -6.5 28t-6.5 23q0 8 5 15.5t12 7.5l3 -1v-1q-6 -10 -6 -17q0 -8 13.5 -22t13.5 -28q0 -22 -15.5 -42t-34.5 -28t-32 -8q-15 0 -22 9.5t-7 21.5q0 19 13 36t31 17z" />
    <glyph glyph-name="uni00B9" unicode="&#xb9;" horiz-adv-x="292" 
d="M285 657q18 0 18 -19q0 -28 -42 -67l-124 -293q-1 -2 -4.5 -3.5t-5.5 -1.5q-7 0 -14.5 6.5t-7.5 18.5q0 6 30 80.5t58 134.5q-52 -42 -70.5 -69t-18.5 -46l-3 -7q-3 -3 -7 -3q-6 0 -12 7t-6 19q0 15 10 32.5t26.5 35t82.5 75.5l33 29q38 71 57 71z" />
    <glyph glyph-name="ordmasculine" unicode="&#xba;" horiz-adv-x="208" 
d="M192 592q29 0 43 -13.5t14 -36.5q0 -18 -11 -48t-37 -64t-53.5 -52.5t-50.5 -18.5q-9 0 -19 9.5t-10 27.5q0 32 17.5 75.5t50.5 82t56 38.5zM102 377q14 0 40 24t53.5 73.5t27.5 78.5q0 11 -6 18t-16 7q-12 0 -33 -28.5t-45.5 -86t-24.5 -79.5q0 -5 4 -7z" />
    <glyph glyph-name="guillemotright" unicode="&#xbb;" horiz-adv-x="372" 
d="M224 213q0 -4 -1.5 -12t-19 -24t-122.5 -74q-14 -7 -21 -7q-8 0 -8 15v5q-1 5 14.5 17t83.5 53q36 21 44 27q-23 23 -72 56q-12 8 -14 16v1q0 5 4.5 9.5t9.5 4.5q16 0 50.5 -25t43.5 -36t9 -19zM342 211q0 -4 -1.5 -12t-19 -24t-122.5 -74q-14 -7 -21 -7q-8 0 -8 15v5
q-1 5 14.5 17t83.5 53l45 27q-21 21 -73 56q-12 8 -14 16v1q0 5 4.5 9.5t9.5 4.5q15 0 49.5 -24.5t44.5 -35.5q9 -13 9 -20z" />
    <glyph glyph-name="onequarter" unicode="&#xbc;" horiz-adv-x="744" 
d="M611 681q-108 -136 -256 -349t-271 -418l-3 -2q-7 0 -14 11t-7 30q0 9 140 220.5t257 374.5t135 163h1q5 0 11.5 -6t6.5 -24zM721 370v-3l-100 -220q42 3 57 20l5 2q6 0 8 -6l1 -12q0 -17 -6 -22q-20 -16 -77 -16h-3l-62 -137q-4 -6 -10 -6t-11 6.5t-5 17.5q0 12 44 122
q-55 4 -111 15q-22 -15 -42 -15q-11 0 -17.5 7t-6.5 15q0 10 8 18q8 7 24 7l25 -2q30 31 56 84.5t26 85.5q0 11 -2 15q-4 10 -18 10q-4 0 -6.5 3.5t-2.5 7.5q0 6 5 8q5 3 12 3q23 0 37.5 -14.5t14.5 -39.5q0 -17 -8.5 -45.5t-29.5 -63.5t-45 -60q44 -6 93 -9l23 52
q35 81 64 136t44 55h2q4 -1 9 -6t5 -13zM270 657q18 0 18 -19q0 -28 -42 -67l-124 -293q-1 -2 -4.5 -3.5t-5.5 -1.5q-7 0 -14.5 6.5t-7.5 18.5q0 6 30 80.5t58 134.5q-52 -42 -70.5 -69t-18.5 -46l-3 -7q-3 -3 -7 -3q-6 0 -12 7t-6 19q0 15 10 32.5t26.5 35t82.5 75.5l33 29
q38 71 57 71z" />
    <glyph glyph-name="onehalf" unicode="&#xbd;" horiz-adv-x="781" 
d="M647 409q24 0 44.5 -9.5t29 -26.5t8.5 -34q0 -35 -22.5 -81t-65.5 -97.5t-93 -87.5q27 -9 42 -9q48 0 76 57q4 8 6.5 11t6.5 3q6 0 10.5 -5t4.5 -15q0 -11 -7.5 -27t-17.5 -27q-31 -33 -76 -33q-28 0 -82 23q-44 -23 -79 -23q-17 0 -26 10t-9 23q0 16 11.5 28.5
t29.5 12.5q25 0 68 -13q33 24 76 70.5t75.5 103t32.5 88.5q0 15 -10.5 23t-24.5 8q-24 0 -51.5 -28.5t-41 -57.5t-13.5 -45q0 -7 3 -12q3 -4 10 -4q10 0 13 -2q6 -3 6 -9t-7.5 -11t-14.5 -5q-22 0 -32 13q-10 12 -10 30q0 31 23 70.5t51 63.5t56 24zM433 56q15 0 39 11
q-22 9 -32 9q-3 0 -8.5 -2.5t-5.5 -9.5l2 -6zM626 681q-108 -136 -256 -349t-271 -418l-3 -2q-7 0 -14 11t-7 30q0 9 140 220.5t257 374.5t135 163h1q5 0 11.5 -6t6.5 -24zM285 657q18 0 18 -19q0 -28 -42 -67l-124 -293q-1 -2 -4.5 -3.5t-5.5 -1.5q-7 0 -14.5 6.5
t-7.5 18.5q0 6 30 80.5t58 134.5q-52 -42 -70.5 -69t-18.5 -46l-3 -7q-3 -3 -7 -3q-6 0 -12 7t-6 19q0 15 9 30.5t23.5 32.5t86.5 80l33 29q38 71 57 71z" />
    <glyph glyph-name="threequarters" unicode="&#xbe;" horiz-adv-x="794" 
d="M269 667q19 0 36.5 -5.5t27.5 -17.5t13 -24q3 -10 3 -22q0 -33 -22.5 -70.5t-57.5 -61.5q19 -22 19 -57q0 -27 -12 -56q-9 -22 -26 -43t-44.5 -37.5t-64.5 -16.5q-21 0 -40 6t-30 16q-10 9 -16 23t-6 29q0 17 10 41t36 43.5t58 19.5l14 -2q7 -3 7 -9t-6.5 -10t-13.5 -4
q-22 0 -40.5 -14.5t-25.5 -32.5t-7 -31q0 -21 13 -34q14 -14 42 -14q24 0 45.5 15t36.5 41q19 36 19 71q0 21 -8 37q-18 -5 -34 -5t-26 9.5t-10 19.5q0 2 1.5 7.5t7.5 10.5q4 3 12 5.5t14 2.5q24 0 45 -8q27 19 47.5 53t20.5 60l-2 15q-7 23 -39 23q-28 0 -50.5 -17.5
t-31.5 -37t-9 -29.5q0 -8 4 -12q3 -4 11 -4q7 0 11 -3q5 -3 5 -8q0 -6 -5.5 -10.5t-11.5 -4.5q-20 0 -35 13q-11 11 -11 30q0 25 20.5 54t49 42.5t56.5 13.5zM673 678q-108 -137 -256.5 -349.5t-271.5 -417.5l-3 -2q-6 0 -13 11t-7 30q0 9 140 220.5t257 374.5t135 163h1
q5 0 11.5 -6t6.5 -24zM773 367l-1 -3l-100 -220q43 3 57 20l6 2q5 0 7 -6l1 -12q0 -17 -6 -22q-20 -16 -76 -16h-4l-62 -137q-1 -2 -4 -4t-6 -2q-6 0 -11 6.5t-5 17.5q0 12 44 122q-56 4 -111 15q-22 -15 -42 -15q-11 0 -17.5 7t-6.5 15q0 10 8 18q8 7 24 7l26 -2
q29 31 55 84.5t26 85.5q0 11 -2 15q-4 10 -18 10q-4 0 -6.5 3.5t-2.5 7.5q0 5 5 8t12 3q36 0 49 -29q4 -9 4 -25q0 -17 -8.5 -45.5t-29.5 -63.5t-45 -60q41 -6 93 -9l22 52q35 81 64.5 136t44.5 55h1q5 -1 10 -6t5 -13z" />
    <glyph glyph-name="questiondown" unicode="&#xbf;" horiz-adv-x="485" 
d="M268 43q-10 0 -15.5 -5t-5.5 -11q0 -5 4 -9t11 -4q18 0 27.5 -14t9.5 -38q0 -31 -15 -73t-41.5 -80.5t-61.5 -63t-72 -24.5q-20 0 -40 11t-32.5 39.5t-12.5 64.5q0 58 23 106t64.5 87.5t118 88t104.5 71.5t43 47.5t15 51.5q0 10 -5.5 17.5t-18.5 7.5q-7 0 -13 -3t-6 -6
q0 -34 -19.5 -60t-49.5 -46t-97 -56t-99 -59t-50.5 -42t-34 -41t-30 -61t-14.5 -93q0 -70 41.5 -115t114.5 -45q34 0 72.5 18t77.5 62t60 98.5t21 93.5q0 38 -18.5 61.5t-55.5 23.5zM361 370q0 13 5.5 28.5t15.5 22.5t20 7q38 0 38 -20q0 -8 -6.5 -23t-20.5 -30.5t-26 -15.5
q-7 0 -16.5 12.5t-9.5 18.5z" />
    <glyph glyph-name="Agrave" unicode="&#xc0;" horiz-adv-x="730" 
d="M665 -89q4 0 6 -3t2 -6q0 -5 -5 -10t-14 -5q-32 0 -52.5 10.5t-35 27.5t-24.5 48.5t-10 77.5q0 65 21 154q-40 3 -89 3h-27q-73 -110 -140.5 -159t-135.5 -49q-49 0 -84.5 21t-56 59.5t-20.5 91.5q0 21 5 50t20 61.5t42.5 65t72.5 55t100 22.5q57 0 85.5 -27.5
t28.5 -68.5q0 -29 -13.5 -60.5t-38.5 -58t-59.5 -42.5t-73.5 -16q-11 0 -11 5q0 2 2 4t6 2q25 0 57.5 20t63 65t30.5 84q0 27 -18 43.5t-55 16.5q-38 0 -73.5 -22t-61.5 -58t-40.5 -78.5t-14.5 -80.5q0 -51 27.5 -84t81.5 -33q44 0 89.5 29t90 90t110.5 181t94.5 165
t56 78.5t57.5 57t58.5 32.5t50.5 9q20 0 42 4.5t44 19.5t29 15q5 0 9.5 -5t4.5 -12q0 -6 -13.5 -17t-35.5 -20q-52 -66 -100 -152t-84.5 -174.5t-57 -170.5t-20.5 -140q0 -55 19 -85.5t58 -30.5zM748 647q-31 0 -70 -41t-114 -178t-108 -189q30 -5 75 -5l29 1
q17 61 50.5 146t80 162t84.5 105zM770 865q0 6 7 11.5t13 5.5q15 0 45 -34q22 -25 42.5 -55.5t20.5 -41.5q0 -5 -3 -5q-9 0 -39 25.5t-50 48.5q-6 7 -21 22.5t-15 22.5z" />
    <glyph glyph-name="Aacute" unicode="&#xc1;" horiz-adv-x="730" 
d="M665 -89q4 0 6 -3t2 -6q0 -5 -5 -10t-14 -5q-32 0 -52.5 10.5t-35 27.5t-24.5 48.5t-10 77.5q0 65 21 154q-40 3 -89 3h-27q-73 -110 -140.5 -159t-135.5 -49q-49 0 -84.5 21t-56 59.5t-20.5 91.5q0 21 5 50t20 61.5t42.5 65t72.5 55t100 22.5q57 0 85.5 -27.5
t28.5 -68.5q0 -29 -13.5 -60.5t-38.5 -58t-59.5 -42.5t-73.5 -16q-11 0 -11 5q0 2 2 4t6 2q25 0 57.5 20t63 65t30.5 84q0 27 -18 43.5t-55 16.5q-38 0 -73.5 -22t-61.5 -58t-40.5 -78.5t-14.5 -80.5q0 -51 27.5 -84t81.5 -33q44 0 89.5 29t90 90t110.5 181t94.5 165
t56 78.5t57.5 57t58.5 32.5t50.5 9q20 0 42 4.5t44 19.5t29 15q5 0 9.5 -5t4.5 -12q0 -6 -13.5 -17t-35.5 -20q-52 -66 -100 -152t-84.5 -174.5t-57 -170.5t-20.5 -140q0 -55 19 -85.5t58 -30.5zM748 647q-31 0 -70 -41t-114 -178t-108 -189q30 -5 75 -5l29 1
q17 61 50.5 146t80 162t84.5 105zM900 830q-1 -4 -21 -26.5t-46.5 -47t-41.5 -24.5q-7 0 -7 8q0 5 15.5 29.5t41 54.5t36.5 30q10 0 17.5 -4.5t7.5 -11.5z" />
    <glyph glyph-name="Acircumflex" unicode="&#xc2;" horiz-adv-x="730" 
d="M665 -89q4 0 6 -3t2 -6q0 -5 -5 -10t-14 -5q-32 0 -52.5 10.5t-35 27.5t-24.5 48.5t-10 77.5q0 65 21 154q-40 3 -89 3h-27q-73 -110 -140.5 -159t-135.5 -49q-49 0 -84.5 21t-56 59.5t-20.5 91.5q0 21 5 50t20 61.5t42.5 65t72.5 55t100 22.5q57 0 85.5 -27.5
t28.5 -68.5q0 -29 -13.5 -60.5t-38.5 -58t-59.5 -42.5t-73.5 -16q-11 0 -11 5q0 2 2 4t6 2q25 0 57.5 20t63 65t30.5 84q0 27 -18 43.5t-55 16.5q-38 0 -73.5 -22t-61.5 -58t-40.5 -78.5t-14.5 -80.5q0 -51 27.5 -84t81.5 -33q44 0 89.5 29t90 90t110.5 181t94.5 165
t56 78.5t57.5 57t58.5 32.5t50.5 9q20 0 42 4.5t44 19.5t29 15q5 0 9.5 -5t4.5 -12q0 -6 -13.5 -17t-35.5 -20q-52 -66 -100 -152t-84.5 -174.5t-57 -170.5t-20.5 -140q0 -55 19 -85.5t58 -30.5zM748 647q-31 0 -70 -41t-114 -178t-108 -189q30 -5 75 -5l29 1
q17 61 50.5 146t80 162t84.5 105zM857 868h7l7 2q5 0 13 -8q5 -5 16.5 -38t11.5 -50q0 -7 -4.5 -13t-10.5 -6q-7 0 -11 12q-13 40 -31 63q-10 -9 -58 -44t-53 -35h-5q-10 0 -10 5v2q2 8 11 17q7 6 23.5 21t48.5 43.5t45 28.5z" />
    <glyph glyph-name="Atilde" unicode="&#xc3;" horiz-adv-x="730" 
d="M722 769q0 9 10 19.5t30.5 17t34.5 6.5q23 0 49.5 -18.5t36 -21t15.5 -2.5q22 2 31.5 15t12.5 13q5 0 5 -10q0 -14 -12 -28.5t-36 -14.5q-17 0 -30 5.5t-35.5 21.5t-37.5 16t-42 -11t-30 -11zM665 -89q4 0 6 -3t2 -6q0 -5 -5 -10t-14 -5q-32 0 -52.5 10.5t-35 27.5
t-24.5 48.5t-10 77.5q0 65 21 154q-40 3 -89 3h-27q-73 -110 -140.5 -159t-135.5 -49q-49 0 -84.5 21t-56 59.5t-20.5 91.5q0 21 5 50t20 61.5t42.5 65t72.5 55t100 22.5q57 0 85.5 -27.5t28.5 -68.5q0 -29 -13.5 -60.5t-38.5 -58t-59.5 -42.5t-73.5 -16q-11 0 -11 5
q0 2 2 4t6 2q25 0 57.5 20t63 65t30.5 84q0 27 -18 43.5t-55 16.5q-38 0 -73.5 -22t-61.5 -58t-40.5 -78.5t-14.5 -80.5q0 -51 27.5 -84t81.5 -33q44 0 89.5 29t90 90t110.5 181t94.5 165t56 78.5t57.5 57t58.5 32.5t50.5 9q20 0 42 4.5t44 19.5t29 15q5 0 9.5 -5t4.5 -12
q0 -6 -13.5 -17t-35.5 -20q-52 -66 -100 -152t-84.5 -174.5t-57 -170.5t-20.5 -140q0 -55 19 -85.5t58 -30.5zM748 647q-31 0 -70 -41t-114 -178t-108 -189q30 -5 75 -5l29 1q17 61 50.5 146t80 162t84.5 105z" />
    <glyph glyph-name="Adieresis" unicode="&#xc4;" horiz-adv-x="730" 
d="M665 -89q4 0 6 -3t2 -6q0 -5 -5 -10t-14 -5q-32 0 -52.5 10.5t-35 27.5t-24.5 48.5t-10 77.5q0 65 21 154q-40 3 -89 3h-27q-73 -110 -140.5 -159t-135.5 -49q-49 0 -84.5 21t-56 59.5t-20.5 91.5q0 21 5 50t20 61.5t42.5 65t72.5 55t100 22.5q57 0 85.5 -27.5
t28.5 -68.5q0 -29 -13.5 -60.5t-38.5 -58t-59.5 -42.5t-73.5 -16q-11 0 -11 5q0 2 2 4t6 2q25 0 57.5 20t63 65t30.5 84q0 27 -18 43.5t-55 16.5q-38 0 -73.5 -22t-61.5 -58t-40.5 -78.5t-14.5 -80.5q0 -51 27.5 -84t81.5 -33q44 0 89.5 29t90 90t110.5 181t94.5 165
t56 78.5t57.5 57t58.5 32.5t50.5 9q20 0 42 4.5t44 19.5t29 15q5 0 9.5 -5t4.5 -12q0 -6 -13.5 -17t-35.5 -20q-52 -66 -100 -152t-84.5 -174.5t-57 -170.5t-20.5 -140q0 -55 19 -85.5t58 -30.5zM748 647q-31 0 -70 -41t-114 -178t-108 -189q30 -5 75 -5l29 1
q17 61 50.5 146t80 162t84.5 105zM733 777q0 12 14 20t28 8q11 0 20 -6.5t9 -17.5q0 -15 -13 -25.5t-29 -10.5q-11 0 -20 7.5t-9 24.5zM853 776q1 13 13.5 21.5t24.5 8.5q10 0 19 -7.5t9 -22.5v-1q0 -14 -12.5 -23t-24.5 -9q-11 0 -20 8t-9 25z" />
    <glyph glyph-name="Aring" unicode="&#xc5;" horiz-adv-x="730" 
d="M665 -89q4 0 6 -3t2 -6q0 -5 -5 -10t-14 -5q-32 0 -52.5 10.5t-35 27.5t-24.5 48.5t-10 77.5q0 65 21 154q-40 3 -89 3h-27q-73 -110 -140.5 -159t-135.5 -49q-49 0 -84.5 21t-56 59.5t-20.5 91.5q0 21 5 50t20 61.5t42.5 65t72.5 55t100 22.5q57 0 85.5 -27.5
t28.5 -68.5q0 -29 -13.5 -60.5t-38.5 -58t-59.5 -42.5t-73.5 -16q-11 0 -11 5q0 2 2 4t6 2q25 0 57.5 20t63 65t30.5 84q0 27 -18 43.5t-55 16.5q-38 0 -73.5 -22t-61.5 -58t-40.5 -78.5t-14.5 -80.5q0 -51 27.5 -84t81.5 -33q44 0 89.5 29t90 90t110.5 181t94.5 165
t56 78.5t57.5 57t58.5 32.5t50.5 9q20 0 42 4.5t44 19.5t29 15q5 0 9.5 -5t4.5 -12q0 -6 -13.5 -17t-35.5 -20q-52 -66 -100 -152t-84.5 -174.5t-57 -170.5t-20.5 -140q0 -55 19 -85.5t58 -30.5zM748 647q-31 0 -70 -41t-114 -178t-108 -189q30 -5 75 -5l29 1
q17 61 50.5 146t80 162t84.5 105zM818 738q-18 0 -28.5 11.5t-10.5 27.5q0 19 15.5 34.5t42.5 15.5q16 0 26.5 -9t10.5 -26q0 -21 -18 -37.5t-38 -16.5zM804 778q0 -7 4 -11.5t10 -4.5q10 0 20.5 8t11.5 17q0 16 -14 16q-17 0 -24.5 -8t-7.5 -17z" />
    <glyph glyph-name="AE" unicode="&#xc6;" horiz-adv-x="1027" 
d="M770 679q27 0 85 11.5t88 11.5q28 0 43 -17.5t15 -45.5q0 -29 -16 -64t-46 -65q-6 -6 -15 -6q-5 0 -8.5 3t-3.5 7q0 7 9 16q18 18 34.5 46.5t16.5 58.5q0 18 -8.5 30t-22.5 12q-27 0 -55.5 -12t-53.5 -39.5t-42 -68t-17 -86.5q0 -35 12 -59t34 -29h7q23 0 25 -13v-5
q0 -15 -13 -15l-10 2q-64 0 -113.5 -17.5t-81.5 -46t-47.5 -63t-15.5 -69.5q0 -24 10.5 -53t39.5 -51t72 -22q58 0 108 21t86 54t55 69.5t19 66.5q0 25 -14.5 40t-41.5 15q-24 0 -51 -10.5t-49.5 -35.5t-36.5 -53.5t-28.5 -69t-19.5 -40.5q-7 0 -7 18q0 31 17 73.5
t45.5 77.5t66 52t75.5 17q19 0 38.5 -8.5t31.5 -30.5t12 -50q0 -37 -20 -79t-59 -78.5t-98 -59t-132 -22.5q-52 0 -91 19t-63 54.5t-24 83.5q0 64 45.5 122t129.5 86l-106 2l-52 -1q-80 -146 -139.5 -220.5t-116.5 -108.5t-112 -34q-49 0 -84 21t-55.5 59.5t-20.5 91.5
q0 21 5 50t20 61.5t42.5 65t72.5 55t100 22.5q56 0 85 -27.5t29 -68.5q0 -29 -14 -61t-39 -58.5t-59.5 -42.5t-73.5 -16q-10 0 -10 6q0 2 2 4t6 2q25 0 57.5 20t63 65t30.5 84q0 27 -18 43.5t-55 16.5q-48 0 -94 -36.5t-71.5 -95t-25.5 -107.5q0 -51 27.5 -84t82.5 -33
q44 0 89.5 29t90 90t110.5 181t94.5 165t56 78.5t57.5 57t58.5 32.5t50.5 9zM714 472q0 45 23.5 94t63.5 83l-54 -2q-23 0 -47 -19.5t-53 -60t-100 -170.5q51 -7 129 -7q43 0 65 2q-12 14 -19.5 36t-7.5 44z" />
    <glyph glyph-name="Ccedilla" unicode="&#xc7;" horiz-adv-x="484" 
d="M108 -76l4 -2q0 -2 -3 -4.5t-6 -2.5q-13 0 -23.5 -18t-10.5 -36q0 -12 6.5 -21.5t20.5 -9.5q12 0 28 9.5t28.5 31t12.5 40.5q0 15 -12.5 34.5t-12.5 28.5q0 5 2.5 12.5t5.5 10.5q-43 10 -65 48.5t-22 95.5q0 52 17 117q-39 11 -59.5 41.5t-20.5 69.5q0 27 11 57t30.5 53
t48 37t61.5 14q5 0 11 -2t6 -6q0 -12 -16 -12q-18 0 -42 -18t-45.5 -59t-21.5 -77q0 -24 11.5 -42.5t34.5 -25.5q30 91 79.5 169t104.5 131t108.5 76.5t98.5 23.5q44 0 65.5 -17t21.5 -46q0 -30 -25.5 -79t-74.5 -101t-99.5 -90t-105.5 -64.5t-103 -34.5q-29 -89 -29 -154
q0 -36 11.5 -57t33.5 -21q34 0 67 14t68.5 44t63.5 76.5t28 72.5q0 14 4.5 22t10.5 8t11.5 -8.5t5.5 -21.5q0 -29 -19.5 -70t-54 -79.5t-80.5 -63.5t-95 -25l-23 2q-4 -8 -4 -15q0 -10 17 -28t17 -36q0 -25 -18.5 -50t-41.5 -36t-41 -11t-27 10.5t-9 27.5q0 24 16 45.5
t39 21.5zM525 636q0 22 -21 22q-25 0 -58 -11t-69.5 -39t-69.5 -68t-70.5 -103t-68.5 -148q45 10 101 43t112.5 88t89.5 102.5t43.5 74t10.5 39.5z" />
    <glyph glyph-name="Egrave" unicode="&#xc8;" horiz-adv-x="517" 
d="M317 383q23 0 24 -18q0 -15 -13 -15l-10 2q-59 0 -106.5 -18.5t-79 -49t-47.5 -67t-16 -71.5q0 -49 30 -82.5t84 -33.5q58 0 108 21t85.5 54t54.5 69.5t19 66.5q0 25 -14.5 40t-41.5 15q-24 0 -51 -10.5t-49.5 -35.5t-36.5 -53.5t-28.5 -69t-19.5 -40.5q-7 0 -7 18
q0 31 17 73.5t45.5 77.5t66 52t75.5 17q19 0 38.5 -8.5t31.5 -30.5t12 -50q0 -37 -20 -79t-59 -78.5t-98 -59t-132 -22.5q-52 0 -91 19t-63 54.5t-24 83.5q0 55 32 103t86 79.5t128 41.5q-21 14 -31 35l-44 -2q-55 0 -83.5 33t-28.5 80q0 25 11.5 60t41 62.5t68.5 27.5
q4 0 11.5 -1.5t7.5 -5.5q0 -3 -6.5 -5.5t-17.5 -2.5q-30 0 -52 -40.5t-22 -87.5q0 -28 9.5 -50.5t26.5 -32t34 -9.5q24 0 35 2q-3 15 -3 31q0 37 16.5 78t47 75.5t73.5 55.5t92 21q27 0 42.5 -17.5t15.5 -45.5q0 -43 -33 -93t-84.5 -81t-103.5 -43q13 -33 39 -39h8zM263 471
l1 -19q54 16 100 52t69.5 76.5t23.5 66.5q0 13 -7 21.5t-19 8.5q-29 0 -59 -13t-54 -41.5t-39.5 -68.5t-15.5 -83zM396 853q0 6 7 11.5t13 5.5q15 0 45 -34q22 -25 42.5 -55.5t20.5 -41.5q0 -5 -3 -5q-9 0 -39 25.5t-50 48.5q-6 7 -21 22.5t-15 22.5z" />
    <glyph glyph-name="Eacute" unicode="&#xc9;" horiz-adv-x="517" 
d="M317 383q23 0 24 -18q0 -15 -13 -15l-10 2q-59 0 -106.5 -18.5t-79 -49t-47.5 -67t-16 -71.5q0 -49 30 -82.5t84 -33.5q58 0 108 21t85.5 54t54.5 69.5t19 66.5q0 25 -14.5 40t-41.5 15q-24 0 -51 -10.5t-49.5 -35.5t-36.5 -53.5t-28.5 -69t-19.5 -40.5q-7 0 -7 18
q0 31 17 73.5t45.5 77.5t66 52t75.5 17q19 0 38.5 -8.5t31.5 -30.5t12 -50q0 -37 -20 -79t-59 -78.5t-98 -59t-132 -22.5q-52 0 -91 19t-63 54.5t-24 83.5q0 55 32 103t86 79.5t128 41.5q-21 14 -31 35l-44 -2q-55 0 -83.5 33t-28.5 80q0 25 11.5 60t41 62.5t68.5 27.5
q4 0 11.5 -1.5t7.5 -5.5q0 -3 -6.5 -5.5t-17.5 -2.5q-30 0 -52 -40.5t-22 -87.5q0 -28 9.5 -50.5t26.5 -32t34 -9.5q24 0 35 2q-3 15 -3 31q0 37 16.5 78t47 75.5t73.5 55.5t92 21q27 0 42.5 -17.5t15.5 -45.5q0 -43 -33 -93t-84.5 -81t-103.5 -43q13 -33 39 -39h8zM263 471
l1 -19q54 16 100 52t69.5 76.5t23.5 66.5q0 13 -7 21.5t-19 8.5q-29 0 -59 -13t-54 -41.5t-39.5 -68.5t-15.5 -83zM525 845q-1 -4 -21 -26.5t-46.5 -47t-41.5 -24.5q-7 0 -7 8q0 5 15.5 29.5t41 54.5t36.5 30q10 0 17.5 -4.5t7.5 -11.5z" />
    <glyph glyph-name="Ecircumflex" unicode="&#xca;" horiz-adv-x="517" 
d="M317 383q23 0 24 -18q0 -15 -13 -15l-10 2q-59 0 -106.5 -18.5t-79 -49t-47.5 -67t-16 -71.5q0 -49 30 -82.5t84 -33.5q58 0 108 21t85.5 54t54.5 69.5t19 66.5q0 25 -14.5 40t-41.5 15q-24 0 -51 -10.5t-49.5 -35.5t-36.5 -53.5t-28.5 -69t-19.5 -40.5q-7 0 -7 18
q0 31 17 73.5t45.5 77.5t66 52t75.5 17q19 0 38.5 -8.5t31.5 -30.5t12 -50q0 -37 -20 -79t-59 -78.5t-98 -59t-132 -22.5q-52 0 -91 19t-63 54.5t-24 83.5q0 55 32 103t86 79.5t128 41.5q-21 14 -31 35l-44 -2q-55 0 -83.5 33t-28.5 80q0 25 11.5 60t41 62.5t68.5 27.5
q4 0 11.5 -1.5t7.5 -5.5q0 -3 -6.5 -5.5t-17.5 -2.5q-30 0 -52 -40.5t-22 -87.5q0 -28 9.5 -50.5t26.5 -32t34 -9.5q24 0 35 2q-3 15 -3 31q0 37 16.5 78t47 75.5t73.5 55.5t92 21q27 0 42.5 -17.5t15.5 -45.5q0 -43 -33 -93t-84.5 -81t-103.5 -43q13 -33 39 -39h8zM263 471
l1 -19q54 16 100 52t69.5 76.5t23.5 66.5q0 13 -7 21.5t-19 8.5q-29 0 -59 -13t-54 -41.5t-39.5 -68.5t-15.5 -83zM450 837h7l7 2q5 0 13 -8q5 -5 16.5 -38t11.5 -50q0 -7 -4.5 -13t-10.5 -6q-7 0 -11 12q-13 40 -31 63q-10 -9 -58 -44t-53 -35h-5q-10 0 -10 5v2q2 8 11 17
q7 6 23.5 21t48.5 43.5t45 28.5z" />
    <glyph glyph-name="Edieresis" unicode="&#xcb;" horiz-adv-x="517" 
d="M317 383q23 0 24 -18q0 -15 -13 -15l-10 2q-59 0 -106.5 -18.5t-79 -49t-47.5 -67t-16 -71.5q0 -49 30 -82.5t84 -33.5q58 0 108 21t85.5 54t54.5 69.5t19 66.5q0 25 -14.5 40t-41.5 15q-24 0 -51 -10.5t-49.5 -35.5t-36.5 -53.5t-28.5 -69t-19.5 -40.5q-7 0 -7 18
q0 31 17 73.5t45.5 77.5t66 52t75.5 17q19 0 38.5 -8.5t31.5 -30.5t12 -50q0 -37 -20 -79t-59 -78.5t-98 -59t-132 -22.5q-52 0 -91 19t-63 54.5t-24 83.5q0 55 32 103t86 79.5t128 41.5q-21 14 -31 35l-44 -2q-55 0 -83.5 33t-28.5 80q0 25 11.5 60t41 62.5t68.5 27.5
q4 0 11.5 -1.5t7.5 -5.5q0 -3 -6.5 -5.5t-17.5 -2.5q-30 0 -52 -40.5t-22 -87.5q0 -28 9.5 -50.5t26.5 -32t34 -9.5q24 0 35 2q-3 15 -3 31q0 37 16.5 78t47 75.5t73.5 55.5t92 21q27 0 42.5 -17.5t15.5 -45.5q0 -43 -33 -93t-84.5 -81t-103.5 -43q13 -33 39 -39h8zM263 471
l1 -19q54 16 100 52t69.5 76.5t23.5 66.5q0 13 -7 21.5t-19 8.5q-29 0 -59 -13t-54 -41.5t-39.5 -68.5t-15.5 -83zM363 773q0 12 14 20t28 8q11 0 20 -6.5t9 -17.5q0 -15 -13 -25.5t-29 -10.5q-11 0 -20 7.5t-9 24.5zM483 772q1 13 13.5 21.5t24.5 8.5q10 0 19 -7.5t9 -22.5
v-1q0 -14 -12.5 -23t-24.5 -9q-11 0 -20 8t-9 25z" />
    <glyph glyph-name="Igrave" unicode="&#xcc;" horiz-adv-x="536" 
d="M286 16q-20 -12 -49 -19t-56 -7q-54 0 -92.5 17.5t-61 50.5t-22.5 79q0 33 14.5 69t50.5 71t81.5 53t79.5 18q37 0 60.5 -19.5t23.5 -57.5q0 -35 -19.5 -65t-51 -47.5t-72.5 -17.5q-20 0 -20 5q0 3 5 6q27 0 55.5 14.5t48.5 45t20 58.5q0 26 -14.5 39.5t-38.5 13.5
q-25 0 -55.5 -14t-57.5 -39.5t-44 -60.5t-17 -74q0 -46 31 -78t95 -32q31 0 62.5 14.5t66.5 54.5t89 160q-44 21 -69.5 64t-25.5 93q0 48 23 95.5t70.5 87t121.5 63t168 23.5q12 0 19 -5.5t7 -10.5q0 -7 -9 -7l-32 -1q-22 -11 -46 -40.5t-47.5 -79t-60.5 -144t-55 -134.5
l17 -1q15 0 25 -3.5t10 -7.5t-9 -6.5t-24 -2.5l-28 2q-77 -172 -167 -223zM351 394q0 -38 15 -69.5t42 -48.5q6 15 42.5 103t60 135t47 80t48.5 54q-63 -12 -106.5 -35.5t-74 -53t-52.5 -73.5t-22 -92zM596 840q0 6 7 11.5t13 5.5q15 0 45 -34q22 -25 42.5 -55.5t20.5 -41.5
q0 -5 -3 -5q-9 0 -39 25.5t-50 48.5q-6 7 -21 22.5t-15 22.5z" />
    <glyph glyph-name="Iacute" unicode="&#xcd;" horiz-adv-x="536" 
d="M286 16q-20 -12 -49 -19t-56 -7q-54 0 -92.5 17.5t-61 50.5t-22.5 79q0 33 14.5 69t50.5 71t81.5 53t79.5 18q37 0 60.5 -19.5t23.5 -57.5q0 -35 -19.5 -65t-51 -47.5t-72.5 -17.5q-20 0 -20 5q0 3 5 6q27 0 55.5 14.5t48.5 45t20 58.5q0 26 -14.5 39.5t-38.5 13.5
q-25 0 -55.5 -14t-57.5 -39.5t-44 -60.5t-17 -74q0 -46 31 -78t95 -32q31 0 62.5 14.5t66.5 54.5t89 160q-44 21 -69.5 64t-25.5 93q0 48 23 95.5t70.5 87t121.5 63t168 23.5q12 0 19 -5.5t7 -10.5q0 -7 -9 -7l-32 -1q-22 -11 -46 -40.5t-47.5 -79t-60.5 -144t-55 -134.5
l17 -1q15 0 25 -3.5t10 -7.5t-9 -6.5t-24 -2.5l-28 2q-77 -172 -167 -223zM351 394q0 -38 15 -69.5t42 -48.5q6 15 42.5 103t60 135t47 80t48.5 54q-63 -12 -106.5 -35.5t-74 -53t-52.5 -73.5t-22 -92zM729 833q-1 -4 -21 -26.5t-46.5 -47t-41.5 -24.5q-7 0 -7 8
q0 5 15.5 29.5t41 54.5t36.5 30q10 0 17.5 -4.5t7.5 -11.5z" />
    <glyph glyph-name="Icircumflex" unicode="&#xce;" horiz-adv-x="536" 
d="M286 16q-20 -12 -49 -19t-56 -7q-54 0 -92.5 17.5t-61 50.5t-22.5 79q0 33 14.5 69t50.5 71t81.5 53t79.5 18q37 0 60.5 -19.5t23.5 -57.5q0 -35 -19.5 -65t-51 -47.5t-72.5 -17.5q-20 0 -20 5q0 3 5 6q27 0 55.5 14.5t48.5 45t20 58.5q0 26 -14.5 39.5t-38.5 13.5
q-25 0 -55.5 -14t-57.5 -39.5t-44 -60.5t-17 -74q0 -46 31 -78t95 -32q31 0 62.5 14.5t66.5 54.5t89 160q-44 21 -69.5 64t-25.5 93q0 48 23 95.5t70.5 87t121.5 63t168 23.5q12 0 19 -5.5t7 -10.5q0 -7 -9 -7l-32 -1q-22 -11 -46 -40.5t-47.5 -79t-60.5 -144t-55 -134.5
l17 -1q15 0 25 -3.5t10 -7.5t-9 -6.5t-24 -2.5l-28 2q-77 -172 -167 -223zM351 394q0 -38 15 -69.5t42 -48.5q6 15 42.5 103t60 135t47 80t48.5 54q-63 -12 -106.5 -35.5t-74 -53t-52.5 -73.5t-22 -92zM679 848h7l7 2q5 0 13 -8q5 -5 16.5 -38t11.5 -50q0 -7 -4.5 -13
t-10.5 -6q-7 0 -11 12q-13 40 -31 63q-10 -9 -58 -44t-53 -35h-5q-10 0 -10 5v2q2 8 11 17q7 6 23.5 21t48.5 43.5t45 28.5z" />
    <glyph glyph-name="Idieresis" unicode="&#xcf;" horiz-adv-x="536" 
d="M286 16q-20 -12 -49 -19t-56 -7q-54 0 -92.5 17.5t-61 50.5t-22.5 79q0 33 14.5 69t50.5 71t81.5 53t79.5 18q37 0 60.5 -19.5t23.5 -57.5q0 -35 -19.5 -65t-51 -47.5t-72.5 -17.5q-20 0 -20 5q0 3 5 6q27 0 55.5 14.5t48.5 45t20 58.5q0 26 -14.5 39.5t-38.5 13.5
q-25 0 -55.5 -14t-57.5 -39.5t-44 -60.5t-17 -74q0 -46 31 -78t95 -32q31 0 62.5 14.5t66.5 54.5t89 160q-44 21 -69.5 64t-25.5 93q0 48 23 95.5t70.5 87t121.5 63t168 23.5q12 0 19 -5.5t7 -10.5q0 -7 -9 -7l-32 -1q-22 -11 -46 -40.5t-47.5 -79t-60.5 -144t-55 -134.5
l17 -1q15 0 25 -3.5t10 -7.5t-9 -6.5t-24 -2.5l-28 2q-77 -172 -167 -223zM351 394q0 -38 15 -69.5t42 -48.5q6 15 42.5 103t60 135t47 80t48.5 54q-63 -12 -106.5 -35.5t-74 -53t-52.5 -73.5t-22 -92zM579 772q0 12 14 20t28 8q11 0 20 -6.5t9 -17.5q0 -15 -13 -25.5
t-29 -10.5q-11 0 -20 7.5t-9 24.5zM699 771q1 13 13.5 21.5t24.5 8.5q10 0 19 -7.5t9 -22.5v-1q0 -14 -12.5 -23t-24.5 -9q-11 0 -20 8t-9 25z" />
    <glyph glyph-name="Eth" unicode="&#xd0;" horiz-adv-x="606" 
d="M339 682q52 0 101 -17q42 29 87 29q16 0 29.5 -3t13.5 -8q-3 -4 -7 -4q-21 0 -42.5 -9t-39.5 -24q35 -21 59.5 -53.5t37.5 -75.5t13 -99q0 -65 -18 -129.5t-51 -117.5q26 15 50 37t29 22q4 0 4 -4q0 -10 -18 -32.5t-46 -41.5t-55 -31q-53 -62 -125 -97t-156 -35
q-27 0 -69 11q-33 -30 -67 -30q-31 0 -50 13t-19 30q0 15 15.5 25.5t43.5 10.5q19 0 61 -10q25 33 53 97q-23 18 -46.5 49.5t-37.5 78.5t-14 96q0 59 19 117t54 104.5t84.5 73.5t106.5 27zM232 152q48 -24 114 -24q36 0 76 7q51 60 81.5 139t30.5 152q0 35 -8 73.5t-28 68.5
t-46 49q-27 -31 -59 -88.5t-76 -169.5q90 -2 90 -9q-1 -12 -2.5 -15t-14.5 -3l-84 1q-60 -150 -63.5 -158t-10.5 -23zM171 350v1q1 10 16 10h72q37 96 73.5 166.5t78.5 112.5q-37 14 -67 14q-34 0 -71 -17.5t-69.5 -57.5t-54.5 -99t-22 -125q0 -52 16.5 -98t48.5 -76l57 153
q-40 0 -59 3t-19 13zM162 29q29 -8 48 -8q44 0 88.5 19t82.5 53q-22 -3 -48 -3q-71 0 -120 23q-24 -49 -51 -84zM58 19h-1q-10 0 -16 -3.5t-6 -7.5t5.5 -7.5t14.5 -3.5q21 0 39 15q-24 7 -36 7z" />
    <glyph glyph-name="Ntilde" unicode="&#xd1;" horiz-adv-x="825" 
d="M611 758v1q0 14 16.5 29t47.5 26t50 11q12 0 25.5 -3t26 -10t39.5 -27.5t47 -20.5q15 0 28 6.5t25 20.5t16 14h1q7 0 7 -14t-9.5 -29.5t-30.5 -25.5t-41 -10q-34 0 -69.5 27t-48 31t-20.5 4q-22 0 -58 -16.5t-48 -16.5zM166 -18q-52 0 -88.5 21t-57 60t-20.5 93
q0 41 13.5 84t38 77.5t59 55.5t73.5 21q31 0 59.5 -10.5t44.5 -37t16 -59.5t-15.5 -71t-43 -61t-53.5 -23q-3 0 -9 1.5t-6 6.5q0 8 14 8q22 0 43.5 27t30.5 59t9 53q0 33 -17 54t-51 21q-32 0 -62 -20t-53 -52.5t-36 -71t-13 -74.5q0 -51 29 -86t91 -35q42 0 90.5 23.5
t97 76.5t93 128t81.5 168q-12 83 -12 151q0 43 7 73.5t19.5 42t25.5 11.5q23 0 34.5 -20.5t11.5 -56.5q0 -66 -35 -171q23 -147 64 -320q31 111 82 228.5t103 195.5t106.5 117t106.5 39q58 0 88 -29.5t30 -74.5q0 -22 -8.5 -50t-32.5 -60t-59.5 -50t-71.5 -18q-41 0 -61 15
t-20 39q0 28 24.5 60.5t54 48t53.5 15.5q8 0 15 -4t7 -8q-2 -4 -7 -4q-31 0 -62 -20.5t-44.5 -42.5t-13.5 -36q0 -34 54 -34q32 0 63 23t48.5 60t17.5 68q0 33 -19.5 54t-57.5 21q-45 0 -102 -57t-121.5 -180.5t-110 -256t-45.5 -182.5q0 -7 -8 -11t-17 -4q-10 0 -18 4
t-9 11l-7 32q-44 194 -63 309q-32 -70 -73 -135t-89 -117t-101 -82.5t-105 -30.5zM585 645q0 18 -7 18q-19 0 -19 -59q0 -17 4 -69q22 77 22 110z" />
    <glyph glyph-name="Ograve" unicode="&#xd2;" horiz-adv-x="545" 
d="M428 684q14 0 22 -4t8 -9q0 -3 -4 -5.5t-9 -2.5q-33 0 -76 -18t-93 -65t-98.5 -120t-82.5 -164.5t-34 -160.5q0 -56 24.5 -88.5t73.5 -32.5q48 0 104 44.5t108 116.5q-16 3 -33.5 11t-29.5 26q-22 -17 -47 -27.5t-45 -10.5q-21 0 -32 17.5t-11 47.5q0 22 8 59.5t30 86.5
t61 103.5t98.5 95t124.5 40.5q34 0 51.5 -25t17.5 -68q0 -62 -33 -151.5t-86 -170.5q25 4 48 16.5t44 33t28 20.5q4 0 4 -5q0 -14 -21 -37.5t-53 -41t-74 -21.5q-28 -38 -71 -83t-97 -75.5t-108 -30.5q-46 0 -78 18t-49.5 53t-17.5 88q0 75 36.5 169.5t90 168t104 116
t99.5 64.5t98 22zM448 426q0 -14 -10 -42t-35 -67t-56 -70q5 -15 17.5 -26t28.5 -14q58 87 97 183t39 153q0 26 -9.5 40.5t-28.5 14.5q-27 0 -61.5 -23t-82 -85t-87.5 -149t-40 -124q0 -16 9 -16q26 0 67 36q-6 18 -6 41q0 28 14 68.5t47.5 73.5t73.5 33q11 0 17 -7.5
t6 -19.5zM420 433q-13 0 -30 -17t-32.5 -57t-15.5 -75q34 39 59 82t25 59q0 8 -6 8zM427 793q0 6 7 11.5t13 5.5q15 0 45 -34q22 -25 42.5 -55.5t20.5 -41.5q0 -5 -3 -5q-9 0 -39 25.5t-50 48.5q-6 7 -21 22.5t-15 22.5z" />
    <glyph glyph-name="Oacute" unicode="&#xd3;" horiz-adv-x="545" 
d="M428 684q14 0 22 -4t8 -9q0 -3 -4 -5.5t-9 -2.5q-33 0 -76 -18t-93 -65t-98.5 -120t-82.5 -164.5t-34 -160.5q0 -56 24.5 -88.5t73.5 -32.5q48 0 104 44.5t108 116.5q-16 3 -33.5 11t-29.5 26q-22 -17 -47 -27.5t-45 -10.5q-21 0 -32 17.5t-11 47.5q0 22 8 59.5t30 86.5
t61 103.5t98.5 95t124.5 40.5q34 0 51.5 -25t17.5 -68q0 -62 -33 -151.5t-86 -170.5q25 4 48 16.5t44 33t28 20.5q4 0 4 -5q0 -14 -21 -37.5t-53 -41t-74 -21.5q-28 -38 -71 -83t-97 -75.5t-108 -30.5q-46 0 -78 18t-49.5 53t-17.5 88q0 75 36.5 169.5t90 168t104 116
t99.5 64.5t98 22zM448 426q0 -14 -10 -42t-35 -67t-56 -70q5 -15 17.5 -26t28.5 -14q58 87 97 183t39 153q0 26 -9.5 40.5t-28.5 14.5q-27 0 -61.5 -23t-82 -85t-87.5 -149t-40 -124q0 -16 9 -16q26 0 67 36q-6 18 -6 41q0 28 14 68.5t47.5 73.5t73.5 33q11 0 17 -7.5
t6 -19.5zM420 433q-13 0 -30 -17t-32.5 -57t-15.5 -75q34 39 59 82t25 59q0 8 -6 8zM587 796q-1 -4 -21 -26.5t-46.5 -47t-41.5 -24.5q-7 0 -7 8q0 5 15.5 29.5t41 54.5t36.5 30q10 0 17.5 -4.5t7.5 -11.5z" />
    <glyph glyph-name="Ocircumflex" unicode="&#xd4;" horiz-adv-x="545" 
d="M428 684q14 0 22 -4t8 -9q0 -3 -4 -5.5t-9 -2.5q-33 0 -76 -18t-93 -65t-98.5 -120t-82.5 -164.5t-34 -160.5q0 -56 24.5 -88.5t73.5 -32.5q48 0 104 44.5t108 116.5q-16 3 -33.5 11t-29.5 26q-22 -17 -47 -27.5t-45 -10.5q-21 0 -32 17.5t-11 47.5q0 22 8 59.5t30 86.5
t61 103.5t98.5 95t124.5 40.5q34 0 51.5 -25t17.5 -68q0 -62 -33 -151.5t-86 -170.5q25 4 48 16.5t44 33t28 20.5q4 0 4 -5q0 -14 -21 -37.5t-53 -41t-74 -21.5q-28 -38 -71 -83t-97 -75.5t-108 -30.5q-46 0 -78 18t-49.5 53t-17.5 88q0 75 36.5 169.5t90 168t104 116
t99.5 64.5t98 22zM448 426q0 -14 -10 -42t-35 -67t-56 -70q5 -15 17.5 -26t28.5 -14q58 87 97 183t39 153q0 26 -9.5 40.5t-28.5 14.5q-27 0 -61.5 -23t-82 -85t-87.5 -149t-40 -124q0 -16 9 -16q26 0 67 36q-6 18 -6 41q0 28 14 68.5t47.5 73.5t73.5 33q11 0 17 -7.5
t6 -19.5zM420 433q-13 0 -30 -17t-32.5 -57t-15.5 -75q34 39 59 82t25 59q0 8 -6 8zM527 814h7l7 2q5 0 13 -8q5 -5 16.5 -38t11.5 -50q0 -7 -4.5 -13t-10.5 -6q-7 0 -11 12q-13 40 -31 63q-10 -9 -58 -44t-53 -35h-5q-10 0 -10 5v2q2 8 11 17q7 6 23.5 21t48.5 43.5
t45 28.5z" />
    <glyph glyph-name="Otilde" unicode="&#xd5;" horiz-adv-x="545" 
d="M408 724q0 9 10 19.5t30.5 17t34.5 6.5q23 0 49.5 -18.5t36 -21t15.5 -2.5q22 2 31.5 15t12.5 13q5 0 5 -10q0 -14 -12 -28.5t-36 -14.5q-17 0 -30 5.5t-35.5 21.5t-37.5 16t-42 -11t-30 -11zM428 684q14 0 22 -4t8 -9q0 -3 -4 -5.5t-9 -2.5q-33 0 -76 -18t-93 -65
t-98.5 -120t-82.5 -164.5t-34 -160.5q0 -56 24.5 -88.5t73.5 -32.5q48 0 104 44.5t108 116.5q-16 3 -33.5 11t-29.5 26q-22 -17 -47 -27.5t-45 -10.5q-21 0 -32 17.5t-11 47.5q0 22 8 59.5t30 86.5t61 103.5t98.5 95t124.5 40.5q34 0 51.5 -25t17.5 -68q0 -62 -33 -151.5
t-86 -170.5q25 4 48 16.5t44 33t28 20.5q4 0 4 -5q0 -14 -21 -37.5t-53 -41t-74 -21.5q-28 -38 -71 -83t-97 -75.5t-108 -30.5q-46 0 -78 18t-49.5 53t-17.5 88q0 75 36.5 169.5t90 168t104 116t99.5 64.5t98 22zM448 426q0 -14 -10 -42t-35 -67t-56 -70q5 -15 17.5 -26
t28.5 -14q58 87 97 183t39 153q0 26 -9.5 40.5t-28.5 14.5q-27 0 -61.5 -23t-82 -85t-87.5 -149t-40 -124q0 -16 9 -16q26 0 67 36q-6 18 -6 41q0 28 14 68.5t47.5 73.5t73.5 33q11 0 17 -7.5t6 -19.5zM420 433q-13 0 -30 -17t-32.5 -57t-15.5 -75q34 39 59 82t25 59
q0 8 -6 8z" />
    <glyph glyph-name="Odieresis" unicode="&#xd6;" horiz-adv-x="545" 
d="M428 684q14 0 22 -4t8 -9q0 -3 -4 -5.5t-9 -2.5q-33 0 -76 -18t-93 -65t-98.5 -120t-82.5 -164.5t-34 -160.5q0 -56 24.5 -88.5t73.5 -32.5q48 0 104 44.5t108 116.5q-16 3 -33.5 11t-29.5 26q-22 -17 -47 -27.5t-45 -10.5q-21 0 -32 17.5t-11 47.5q0 22 8 59.5t30 86.5
t61 103.5t98.5 95t124.5 40.5q34 0 51.5 -25t17.5 -68q0 -62 -33 -151.5t-86 -170.5q25 4 48 16.5t44 33t28 20.5q4 0 4 -5q0 -14 -21 -37.5t-53 -41t-74 -21.5q-28 -38 -71 -83t-97 -75.5t-108 -30.5q-46 0 -78 18t-49.5 53t-17.5 88q0 75 36.5 169.5t90 168t104 116
t99.5 64.5t98 22zM448 426q0 -14 -10 -42t-35 -67t-56 -70q5 -15 17.5 -26t28.5 -14q58 87 97 183t39 153q0 26 -9.5 40.5t-28.5 14.5q-27 0 -61.5 -23t-82 -85t-87.5 -149t-40 -124q0 -16 9 -16q26 0 67 36q-6 18 -6 41q0 28 14 68.5t47.5 73.5t73.5 33q11 0 17 -7.5
t6 -19.5zM420 433q-13 0 -30 -17t-32.5 -57t-15.5 -75q34 39 59 82t25 59q0 8 -6 8zM409 750q0 12 14 20t28 8q11 0 20 -6.5t9 -17.5q0 -15 -13 -25.5t-29 -10.5q-11 0 -20 7.5t-9 24.5zM529 749q1 13 13.5 21.5t24.5 8.5q10 0 19 -7.5t9 -22.5v-1q0 -14 -12.5 -23t-24.5 -9
q-11 0 -20 8t-9 25z" />
    <glyph glyph-name="multiply" unicode="&#xd7;" horiz-adv-x="343" 
d="M46 166q-4 6 -4 11q0 26 97 114l-6 5q-55 44 -68.5 58.5t-13.5 22.5l2 6q3 4 8 4q4 -1 11.5 -5.5t27.5 -20t62 -50.5l68 60q21 18 36 18q12 0 19 -4t7 -11q0 -8 -10 -24t-33 -37t-46 -35q94 -77 94 -88v-1q-9 -13 -10 -13.5t-2 -0.5q-5 0 -21 12.5t-48 40.5t-36 31
q-42 -36 -64 -53.5t-39.5 -30t-23.5 -12.5q-4 0 -7 3z" />
    <glyph glyph-name="Oslash" unicode="&#xd8;" horiz-adv-x="491" 
d="M567 766l-76 -142h4q34 0 51.5 -25t17.5 -68q0 -33 -12 -84.5t-42.5 -119t-74 -132.5t-92 -111t-95.5 -71t-94 -27q-29 -54 -40 -80l-5 -1q-9 0 -9 16q0 4 29 65q-41 3 -70 21.5t-44 53.5t-15 83q0 75 36.5 169.5t90 168t104 116t99.5 64.5t98 22q14 0 22 -4t8 -9
q0 -3 -4 -5.5t-9 -2.5q-33 0 -76 -18t-93 -65t-98.5 -120t-82.5 -164.5t-34 -160.5q0 -52 20.5 -83.5t61.5 -36.5l81 159h-8q-21 0 -32 17.5t-11 47.5q0 32 14.5 83.5t44.5 104t64 91.5t76 66.5t86 35.5q88 159 100 159q2 -1 5.5 -4t3.5 -9zM426 425q8 14 16 14q6 0 6 -13
q0 -16 -11 -45.5t-40.5 -73t-68 -78t-71.5 -47.5l-88 -168q50 5 105 52.5t102 115t80 133.5t53 126.5t20 101.5q0 26 -9.5 40.5t-28.5 14.5l-14 -2l-204 -384q30 15 63 51.5t61.5 88t28.5 73.5zM237 201q122 236 199 379q-46 -29 -98 -102.5t-85 -152t-33 -108.5
q0 -16 9 -16h8z" />
    <glyph glyph-name="Ugrave" unicode="&#xd9;" horiz-adv-x="569" 
d="M571 171q23 28 34 28q8 0 8 -8t-8 -20q-44 -66 -72 -100.5t-53.5 -52t-51.5 -17.5q-27 0 -40.5 19.5t-13.5 54.5q0 88 73 259q-74 -115 -138.5 -191.5t-107.5 -108.5t-71 -32q-70 0 -70 64q0 32 19.5 87t81.5 179.5t81 177.5t19 83q0 56 -60 56q-34 0 -75.5 -18
t-86 -61.5t-69.5 -95t-25 -85.5q0 -28 16 -44.5t48 -16.5q31 0 55.5 16t40 42.5t15.5 54.5q0 19 -8 30.5t-24 11.5q-5 0 -8.5 2t-3.5 5q0 8 19 8q23 0 36 -18t13 -45q0 -22 -10 -47.5t-28 -45.5t-46.5 -33t-64.5 -13q-33 0 -54.5 16t-28.5 39t-7 43q0 32 14.5 76t45 85
t66.5 69t80.5 44.5t92.5 16.5q64 0 92 -27.5t28 -73.5q0 -40 -18.5 -95.5t-46 -112.5t-87.5 -171t-60 -146q0 -20 19 -20q32 0 92 59.5t142.5 170t169.5 244.5q31 56 56 90t36 34q16 0 26.5 -11.5t11.5 -19.5q0 -2 -47 -89t-78 -149q-126 -246 -126 -315q0 -11 5 -18.5
t13 -7.5q18 0 47 28t92 116zM395 753q0 6 7 11.5t13 5.5q15 0 45 -34q22 -25 42.5 -55.5t20.5 -41.5q0 -5 -3 -5q-9 0 -39 25.5t-50 48.5q-6 7 -21 22.5t-15 22.5z" />
    <glyph glyph-name="Uacute" unicode="&#xda;" horiz-adv-x="569" 
d="M571 171q23 28 34 28q8 0 8 -8t-8 -20q-44 -66 -72 -100.5t-53.5 -52t-51.5 -17.5q-27 0 -40.5 19.5t-13.5 54.5q0 88 73 259q-74 -115 -138.5 -191.5t-107.5 -108.5t-71 -32q-70 0 -70 64q0 32 19.5 87t81.5 179.5t81 177.5t19 83q0 56 -60 56q-34 0 -75.5 -18
t-86 -61.5t-69.5 -95t-25 -85.5q0 -28 16 -44.5t48 -16.5q31 0 55.5 16t40 42.5t15.5 54.5q0 19 -8 30.5t-24 11.5q-5 0 -8.5 2t-3.5 5q0 8 19 8q23 0 36 -18t13 -45q0 -22 -10 -47.5t-28 -45.5t-46.5 -33t-64.5 -13q-33 0 -54.5 16t-28.5 39t-7 43q0 32 14.5 76t45 85
t66.5 69t80.5 44.5t92.5 16.5q64 0 92 -27.5t28 -73.5q0 -40 -18.5 -95.5t-46 -112.5t-87.5 -171t-60 -146q0 -20 19 -20q32 0 92 59.5t142.5 170t169.5 244.5q31 56 56 90t36 34q16 0 26.5 -11.5t11.5 -19.5q0 -2 -47 -89t-78 -149q-126 -246 -126 -315q0 -11 5 -18.5
t13 -7.5q18 0 47 28t92 116zM556 749q-1 -4 -21 -26.5t-46.5 -47t-41.5 -24.5q-7 0 -7 8q0 5 15.5 29.5t41 54.5t36.5 30q10 0 17.5 -4.5t7.5 -11.5z" />
    <glyph glyph-name="Ucircumflex" unicode="&#xdb;" horiz-adv-x="569" 
d="M571 171q23 28 34 28q8 0 8 -8t-8 -20q-44 -66 -72 -100.5t-53.5 -52t-51.5 -17.5q-27 0 -40.5 19.5t-13.5 54.5q0 88 73 259q-74 -115 -138.5 -191.5t-107.5 -108.5t-71 -32q-70 0 -70 64q0 32 19.5 87t81.5 179.5t81 177.5t19 83q0 56 -60 56q-34 0 -75.5 -18
t-86 -61.5t-69.5 -95t-25 -85.5q0 -28 16 -44.5t48 -16.5q31 0 55.5 16t40 42.5t15.5 54.5q0 19 -8 30.5t-24 11.5q-5 0 -8.5 2t-3.5 5q0 8 19 8q23 0 36 -18t13 -45q0 -22 -10 -47.5t-28 -45.5t-46.5 -33t-64.5 -13q-33 0 -54.5 16t-28.5 39t-7 43q0 32 14.5 76t45 85
t66.5 69t80.5 44.5t92.5 16.5q64 0 92 -27.5t28 -73.5q0 -40 -18.5 -95.5t-46 -112.5t-87.5 -171t-60 -146q0 -20 19 -20q32 0 92 59.5t142.5 170t169.5 244.5q31 56 56 90t36 34q16 0 26.5 -11.5t11.5 -19.5q0 -2 -47 -89t-78 -149q-126 -246 -126 -315q0 -11 5 -18.5
t13 -7.5q18 0 47 28t92 116zM508 764h7l7 2q5 0 13 -8q5 -5 16.5 -38t11.5 -50q0 -7 -4.5 -13t-10.5 -6q-7 0 -11 12q-13 40 -31 63q-10 -9 -58 -44t-53 -35h-5q-10 0 -10 5v2q2 8 11 17q7 6 23.5 21t48.5 43.5t45 28.5z" />
    <glyph glyph-name="Udieresis" unicode="&#xdc;" horiz-adv-x="569" 
d="M571 171q23 28 34 28q8 0 8 -8t-8 -20q-44 -66 -72 -100.5t-53.5 -52t-51.5 -17.5q-27 0 -40.5 19.5t-13.5 54.5q0 88 73 259q-74 -115 -138.5 -191.5t-107.5 -108.5t-71 -32q-70 0 -70 64q0 32 19.5 87t81.5 179.5t81 177.5t19 83q0 56 -60 56q-34 0 -75.5 -18
t-86 -61.5t-69.5 -95t-25 -85.5q0 -28 16 -44.5t48 -16.5q31 0 55.5 16t40 42.5t15.5 54.5q0 19 -8 30.5t-24 11.5q-5 0 -8.5 2t-3.5 5q0 8 19 8q23 0 36 -18t13 -45q0 -22 -10 -47.5t-28 -45.5t-46.5 -33t-64.5 -13q-33 0 -54.5 16t-28.5 39t-7 43q0 32 14.5 76t45 85
t66.5 69t80.5 44.5t92.5 16.5q64 0 92 -27.5t28 -73.5q0 -40 -18.5 -95.5t-46 -112.5t-87.5 -171t-60 -146q0 -20 19 -20q32 0 92 59.5t142.5 170t169.5 244.5q31 56 56 90t36 34q16 0 26.5 -11.5t11.5 -19.5q0 -2 -47 -89t-78 -149q-126 -246 -126 -315q0 -11 5 -18.5
t13 -7.5q18 0 47 28t92 116zM395 714q0 12 14 20t28 8q11 0 20 -6.5t9 -17.5q0 -15 -13 -25.5t-29 -10.5q-11 0 -20 7.5t-9 24.5zM515 713q1 13 13.5 21.5t24.5 8.5q10 0 19 -7.5t9 -22.5v-1q0 -14 -12.5 -23t-24.5 -9q-11 0 -20 8t-9 25z" />
    <glyph glyph-name="Yacute" unicode="&#xdd;" horiz-adv-x="593" 
d="M751 681q11 0 19.5 -6.5t8.5 -13.5q0 -4 -5 -7.5t-13 -3.5q-18 0 -40.5 -12t-45.5 -43.5t-48 -84t-81 -211.5t-88.5 -228.5t-63 -118t-67.5 -85t-81.5 -57.5t-94.5 -21q-38 0 -67.5 11.5t-48.5 32t-28 48t-9 54.5q0 40 16 82t46 76.5t72.5 55.5t91.5 21q53 0 80.5 -23
t27.5 -58t-26.5 -77t-74.5 -68.5t-98 -26.5q-10 0 -10 6q0 2 2 4t6 2q26 0 61.5 19.5t69.5 62.5t34 78q0 22 -16.5 35t-51.5 13q-32 0 -64.5 -21t-61.5 -60.5t-41 -79t-12 -65.5q0 -43 25 -69.5t76 -26.5q25 0 57 11.5t68.5 48t78 110.5t101.5 235t75 198
q-26 -37 -67.5 -87.5t-92.5 -89.5t-92 -39q-83 0 -83 64q0 16 5.5 39.5t17 52t52 117.5t40.5 131q0 58 -72 58q-46 0 -94 -29t-86.5 -74.5t-61.5 -94.5t-23 -86q0 -28 15.5 -45t46.5 -17q26 0 53 14.5t46 47.5t19 61q0 17 -7.5 28t-21.5 11q-5 0 -8.5 2.5t-3.5 5.5
q0 4 5.5 7t14.5 3q23 0 36 -18t13 -45q0 -22 -10 -47.5t-28 -45.5t-46.5 -33t-64.5 -13q-33 0 -54.5 16t-28.5 39t-7 43q0 32 14.5 76t45 85t66.5 69t80.5 44.5t92.5 16.5q140 0 140 -96q0 -18 -6.5 -45.5t-21.5 -63t-56 -116t-41 -104.5q0 -21 23 -21q32 0 84.5 39.5
t120 120.5t100.5 136q43 71 82 108.5t85 37.5zM622 772q-1 -4 -21 -26.5t-46.5 -47t-41.5 -24.5q-7 0 -7 8q0 5 15.5 29.5t41 54.5t36.5 30q10 0 17.5 -4.5t7.5 -11.5z" />
    <glyph glyph-name="Thorn" unicode="&#xde;" horiz-adv-x="673" 
d="M268 296q-38 0 -60 24t-22 61q0 33 18.5 69t56 66.5t95.5 49.5t132 19q28 0 63 -5q55 104 124 104q9 0 16 -5.5t7 -11.5q0 -5 -6.5 -9.5t-18.5 -4.5q-43 0 -79 -84q59 -19 94.5 -60.5t35.5 -103.5q0 -38 -19 -76.5t-55 -71t-88.5 -54.5t-116.5 -27q-55 -101 -121 -145.5
t-144 -44.5q-56 0 -94.5 16.5t-60.5 47t-22 71.5q0 29 12 58.5t35 53t54.5 37.5t68.5 14q54 0 85.5 -32.5t31.5 -75.5q0 -28 -15 -53t-39.5 -35t-47.5 -10q-7 0 -12 2.5t-5 6.5t5 7t13 3q31 0 49 22.5t18 52.5q0 24 -11.5 46.5t-30 32t-35.5 9.5q-43 0 -73 -25t-41 -54.5
t-11 -51.5q0 -21 10.5 -48t41 -47t77.5 -20q38 0 68 13.5t57 36.5t65.5 84t91.5 213t76 200q-28 4 -45 4q-52 0 -101.5 -11.5t-85.5 -36t-57 -59t-21 -71.5q0 -29 13.5 -48.5t34.5 -19.5q17 0 42.5 10t46.5 36t21 57q0 16 -9 26.5t-25 10.5q-17 0 -17 7q0 3 6.5 6t16.5 3
q25 0 38.5 -14t13.5 -37q0 -27 -16 -56t-54 -50.5t-75 -21.5zM585 549q-13 -34 -42 -122t-48.5 -139.5t-38.5 -89.5q41 9 79.5 33.5t68.5 57.5t47 70t17 70q0 44 -22.5 74.5t-60.5 45.5z" />
    <glyph glyph-name="germandbls" unicode="&#xdf;" horiz-adv-x="377" 
d="M333 640q-23 0 -47 -16.5t-55 -68t-89 -214.5t-81 -216.5t-45 -97t-59.5 -94.5t-90.5 -85t-118 -34q-55 0 -82.5 35.5t-27.5 103.5q0 2 1.5 7t5.5 5q3 0 6 -5t3 -14q0 -107 97 -107q44 0 87.5 29.5t89 103.5t109.5 245.5t74.5 198t23 54t26.5 54t35.5 58t53 56t69.5 24.5
q26 0 52 -8t41 -27t15 -43q0 -19 -10 -39.5t-25.5 -34t-29.5 -20.5q-33 -17 -53.5 -50.5t-20.5 -103.5q0 -32 7.5 -101.5t7.5 -98.5q0 -76 -38.5 -108.5t-113.5 -32.5q-34 0 -53.5 10t-19.5 24l2 6q1 -1 6.5 -5.5t15 -9.5t22.5 -7.5t26 -2.5q52 0 72.5 25t20.5 73
q0 25 -8 93.5t-8 102.5q0 66 29.5 120.5t103.5 94.5q18 10 27 26.5t9 32.5q0 25 -17.5 43.5t-45.5 18.5z" />
    <glyph glyph-name="agrave" unicode="&#xe0;" horiz-adv-x="426" 
d="M465 171l-7 -10q-67 -91 -110.5 -124.5t-77.5 -33.5q-61 0 -61 60q0 14 4 33.5t11.5 40.5t6.5 21l-2 -3q-33 -70 -77.5 -111t-92.5 -41q-29 0 -43.5 22t-14.5 59q0 29 9 65.5t28.5 79t46.5 75.5t55 49.5t55 16.5q36 0 62 -21t31 -47q33 40 50.5 55.5t28.5 15.5
q8 0 17.5 -11.5t9.5 -17.5l-1 -2q-72 -101 -109 -171.5t-37 -102.5q0 -13 7 -21.5t23 -8.5q49 0 154 133q23 28 34 28q8 0 8 -8t-8 -20zM63 37q18 0 38 11.5t41 35t41.5 55.5t42 71.5t26.5 47.5q6 11 6 23q0 20 -13.5 37.5t-32.5 17.5t-44 -20.5t-51.5 -64t-48 -97.5
t-21.5 -89q0 -12 4 -20t12 -8zM238 564q0 6 7 11.5t13 5.5q15 0 45 -34q22 -25 42.5 -55.5t20.5 -41.5q0 -5 -3 -5q-9 0 -39 25.5t-50 48.5q-6 7 -21 22.5t-15 22.5z" />
    <glyph glyph-name="aacute" unicode="&#xe1;" horiz-adv-x="426" 
d="M465 171l-7 -10q-67 -91 -110.5 -124.5t-77.5 -33.5q-61 0 -61 60q0 14 4 33.5t11.5 40.5t6.5 21l-2 -3q-33 -70 -77.5 -111t-92.5 -41q-29 0 -43.5 22t-14.5 59q0 29 9 65.5t28.5 79t46.5 75.5t55 49.5t55 16.5q36 0 62 -21t31 -47q33 40 50.5 55.5t28.5 15.5
q8 0 17.5 -11.5t9.5 -17.5l-1 -2q-72 -101 -109 -171.5t-37 -102.5q0 -13 7 -21.5t23 -8.5q49 0 154 133q23 28 34 28q8 0 8 -8t-8 -20zM63 37q18 0 38 11.5t41 35t41.5 55.5t42 71.5t26.5 47.5q6 11 6 23q0 20 -13.5 37.5t-32.5 17.5t-44 -20.5t-51.5 -64t-48 -97.5
t-21.5 -89q0 -12 4 -20t12 -8zM358 547q-1 -4 -21 -26.5t-46.5 -47t-41.5 -24.5q-7 0 -7 8q0 5 15.5 29.5t41 54.5t36.5 30q10 0 17.5 -4.5t7.5 -11.5z" />
    <glyph glyph-name="acircumflex" unicode="&#xe2;" horiz-adv-x="426" 
d="M465 171l-7 -10q-67 -91 -110.5 -124.5t-77.5 -33.5q-61 0 -61 60q0 14 4 33.5t11.5 40.5t6.5 21l-2 -3q-33 -70 -77.5 -111t-92.5 -41q-29 0 -43.5 22t-14.5 59q0 29 9 65.5t28.5 79t46.5 75.5t55 49.5t55 16.5q36 0 62 -21t31 -47q33 40 50.5 55.5t28.5 15.5
q8 0 17.5 -11.5t9.5 -17.5l-1 -2q-72 -101 -109 -171.5t-37 -102.5q0 -13 7 -21.5t23 -8.5q49 0 154 133q23 28 34 28q8 0 8 -8t-8 -20zM63 37q18 0 38 11.5t41 35t41.5 55.5t42 71.5t26.5 47.5q6 11 6 23q0 20 -13.5 37.5t-32.5 17.5t-44 -20.5t-51.5 -64t-48 -97.5
t-21.5 -89q0 -12 4 -20t12 -8zM315 562h7l7 2q5 0 13 -8q5 -5 16.5 -38t11.5 -50q0 -7 -4.5 -13t-10.5 -6q-7 0 -11 12q-13 40 -31 63q-10 -9 -58 -44t-53 -35h-5q-10 0 -10 5v2q2 8 11 17q7 6 23.5 21t48.5 43.5t45 28.5z" />
    <glyph glyph-name="atilde" unicode="&#xe3;" horiz-adv-x="426" 
d="M181 477q0 9 10 19.5t30.5 17t34.5 6.5q23 0 49.5 -18.5t36 -21t15.5 -2.5q22 2 31.5 15t12.5 13q5 0 5 -10q0 -14 -12 -28.5t-36 -14.5q-17 0 -30 5.5t-35.5 21.5t-37.5 16t-42 -11t-30 -11zM465 171l-7 -10q-67 -91 -110.5 -124.5t-77.5 -33.5q-61 0 -61 60
q0 14 4 33.5t11.5 40.5t6.5 21l-2 -3q-33 -70 -77.5 -111t-92.5 -41q-29 0 -43.5 22t-14.5 59q0 29 9 65.5t28.5 79t46.5 75.5t55 49.5t55 16.5q36 0 62 -21t31 -47q33 40 50.5 55.5t28.5 15.5q8 0 17.5 -11.5t9.5 -17.5l-1 -2q-72 -101 -109 -171.5t-37 -102.5
q0 -13 7 -21.5t23 -8.5q49 0 154 133q23 28 34 28q8 0 8 -8t-8 -20zM63 37q18 0 38 11.5t41 35t41.5 55.5t42 71.5t26.5 47.5q6 11 6 23q0 20 -13.5 37.5t-32.5 17.5t-44 -20.5t-51.5 -64t-48 -97.5t-21.5 -89q0 -12 4 -20t12 -8z" />
    <glyph glyph-name="adieresis" unicode="&#xe4;" horiz-adv-x="426" 
d="M174 514q1 10 15.5 16.5t33.5 6.5q5 -1 14 -9.5t9 -13.5v-1q-1 -12 -21.5 -23.5t-35.5 -11.5h-3q-13 1 -13 22zM294 509v4q1 9 13.5 16t32.5 7h3q5 -1 11 -7t6 -16v-6q-1 -12 -16.5 -20t-27.5 -8h-4q-9 1 -13.5 11t-4.5 19zM465 171l-7 -10q-67 -91 -110.5 -124.5
t-77.5 -33.5q-61 0 -61 60q0 14 4 33.5t11.5 40.5t6.5 21l-2 -3q-33 -70 -77.5 -111t-92.5 -41q-29 0 -43.5 22t-14.5 59q0 29 9 65.5t28.5 79t46.5 75.5t55 49.5t55 16.5q36 0 62 -21t31 -47q33 40 50.5 55.5t28.5 15.5q8 0 17.5 -11.5t9.5 -17.5l-1 -2
q-72 -101 -109 -171.5t-37 -102.5q0 -13 7 -21.5t23 -8.5q49 0 154 133q23 28 34 28q8 0 8 -8t-8 -20zM63 37q18 0 38 11.5t41 35t41.5 55.5t42 71.5t26.5 47.5q6 11 6 23q0 20 -13.5 37.5t-32.5 17.5t-44 -20.5t-51.5 -64t-48 -97.5t-21.5 -89q0 -12 4 -20t12 -8z" />
    <glyph glyph-name="aring" unicode="&#xe5;" horiz-adv-x="426" 
d="M465 171l-7 -10q-67 -91 -110.5 -124.5t-77.5 -33.5q-61 0 -61 60q0 14 4 33.5t11.5 40.5t6.5 21l-2 -3q-33 -70 -77.5 -111t-92.5 -41q-29 0 -43.5 22t-14.5 59q0 29 9 65.5t28.5 79t46.5 75.5t55 49.5t55 16.5q36 0 62 -21t31 -47q33 40 50.5 55.5t28.5 15.5
q8 0 17.5 -11.5t9.5 -17.5l-1 -2q-72 -101 -109 -171.5t-37 -102.5q0 -13 7 -21.5t23 -8.5q49 0 154 133q23 28 34 28q8 0 8 -8t-8 -20zM63 37q18 0 38 11.5t41 35t41.5 55.5t42 71.5t26.5 47.5q6 11 6 23q0 20 -13.5 37.5t-32.5 17.5t-44 -20.5t-51.5 -64t-48 -97.5
t-21.5 -89q0 -12 4 -20t12 -8zM249 449q-18 0 -28.5 11.5t-10.5 27.5q0 19 15.5 34.5t42.5 15.5q16 0 26.5 -9t10.5 -26q0 -21 -18 -37.5t-38 -16.5zM235 489q0 -7 4 -11.5t10 -4.5q10 0 20.5 8t11.5 17q0 16 -14 16q-17 0 -24.5 -8t-7.5 -17z" />
    <glyph glyph-name="ae" unicode="&#xe6;" horiz-adv-x="510" 
d="M546 195q8 0 8 -8t-8 -20q-45 -65 -89 -104.5t-78.5 -57t-68.5 -17.5q-23 0 -46.5 10t-36.5 35t-13 59q0 20 2 31q-37 -64 -78 -94t-79 -30q-29 0 -43.5 22t-14.5 59q0 29 9 65.5t28.5 79t46.5 75.5t55 49.5t55 16.5q37 0 64.5 -23t32.5 -55q33 41 77 66t90 25
q41 0 41 -32q0 -18 -15.5 -48t-53.5 -71.5t-82 -67.5t-75 -26q-6 -24 -6 -49q0 -36 14 -50.5t33 -14.5q23 0 56 16.5t73 55t68 75.5q23 28 34 28zM63 33q14 0 32.5 8.5t41.5 32t45 58.5t44 75t26 47q6 11 6 23q0 20 -13.5 37.5t-32.5 17.5t-44 -21t-51.5 -64t-48 -97.5
t-21.5 -89.5q0 -12 4 -19.5t12 -7.5zM456 346q-24 0 -65 -37t-74.5 -84t-33.5 -58l2 -3q14 0 41.5 16.5t63 53t55 65t19.5 40.5q0 7 -8 7z" />
    <glyph glyph-name="ccedilla" unicode="&#xe7;" horiz-adv-x="291" 
d="M33 -63l4 -2q-3 -5 -7 -5q-13 0 -21 -13t-8 -26q0 -10 5.5 -17t16.5 -7q21 0 35 19t14 40q0 12 -6.5 28t-6.5 23q0 9 5 17q-32 6 -47.5 31.5t-15.5 63.5q0 41 17.5 92t46.5 95.5t65 72.5t70 28q29 0 42.5 -12.5t13.5 -33.5q0 -18 -11.5 -47t-35 -59.5t-34.5 -30.5
q-6 0 -6 6q0 10 27.5 62t27.5 68q0 12 -12 12q-22 0 -55.5 -33.5t-68 -107t-34.5 -125.5q0 -53 40 -53q43 0 102 47.5t100 100.5q23 28 35 28q8 0 8 -9q0 -3 -2 -8.5t-15 -22.5q-31 -42 -71 -80.5t-82 -63t-81 -24.5l-12 1q-3 -6 -3 -11q0 -8 13.5 -22t13.5 -28
q0 -22 -15.5 -42t-34.5 -28t-32 -8q-15 0 -22 9.5t-7 21.5q0 19 13 36t31 17z" />
    <glyph glyph-name="egrave" unicode="&#xe8;" horiz-adv-x="295" 
d="M334 199q8 0 8 -8q0 -6 -15 -29q-44 -62 -87 -99.5t-76.5 -54t-65.5 -16.5q-23 0 -46.5 10t-37 35.5t-13.5 59.5q0 20 6.5 50.5t23.5 67.5t47 75t75 65.5t94 27.5q41 0 41 -32q0 -18 -15.5 -48t-53.5 -71.5t-82 -67.5t-75 -26q-6 -24 -6 -49q0 -36 14 -50.5t33 -14.5
q23 0 56 17t73 55.5t68 75.5q19 19 25 23t9 4zM244 350q-20 0 -48.5 -22.5t-58 -57t-48.5 -63t-19 -36.5l2 -3q14 0 41.5 16.5t63.5 53t55.5 65t19.5 40.5q0 7 -8 7zM206 570q0 6 7 11.5t13 5.5q15 0 45 -34q22 -25 42.5 -55.5t20.5 -41.5q0 -5 -3 -5q-9 0 -39 25.5
t-50 48.5q-6 7 -21 22.5t-15 22.5z" />
    <glyph glyph-name="eacute" unicode="&#xe9;" horiz-adv-x="295" 
d="M334 199q8 0 8 -8q0 -6 -15 -29q-44 -62 -87 -99.5t-76.5 -54t-65.5 -16.5q-23 0 -46.5 10t-37 35.5t-13.5 59.5q0 20 6.5 50.5t23.5 67.5t47 75t75 65.5t94 27.5q41 0 41 -32q0 -18 -15.5 -48t-53.5 -71.5t-82 -67.5t-75 -26q-6 -24 -6 -49q0 -36 14 -50.5t33 -14.5
q23 0 56 17t73 55.5t68 75.5q19 19 25 23t9 4zM244 350q-20 0 -48.5 -22.5t-58 -57t-48.5 -63t-19 -36.5l2 -3q14 0 41.5 16.5t63.5 53t55.5 65t19.5 40.5q0 7 -8 7zM329 527q-1 -4 -21 -26.5t-46.5 -47t-41.5 -24.5q-7 0 -7 8q0 5 15.5 29.5t41 54.5t36.5 30
q10 0 17.5 -4.5t7.5 -11.5z" />
    <glyph glyph-name="ecircumflex" unicode="&#xea;" horiz-adv-x="295" 
d="M334 199q8 0 8 -8q0 -6 -15 -29q-44 -62 -87 -99.5t-76.5 -54t-65.5 -16.5q-23 0 -46.5 10t-37 35.5t-13.5 59.5q0 20 6.5 50.5t23.5 67.5t47 75t75 65.5t94 27.5q41 0 41 -32q0 -18 -15.5 -48t-53.5 -71.5t-82 -67.5t-75 -26q-6 -24 -6 -49q0 -36 14 -50.5t33 -14.5
q23 0 56 17t73 55.5t68 75.5q19 19 25 23t9 4zM244 350q-20 0 -48.5 -22.5t-58 -57t-48.5 -63t-19 -36.5l2 -3q14 0 41.5 16.5t63.5 53t55.5 65t19.5 40.5q0 7 -8 7zM290 548h7l7 2q5 0 13 -8q5 -5 16.5 -38t11.5 -50q0 -7 -4.5 -13t-10.5 -6q-7 0 -11 12q-13 40 -31 63
q-10 -9 -58 -44t-53 -35h-5q-10 0 -10 5v2q2 8 11 17q7 6 23.5 21t48.5 43.5t45 28.5z" />
    <glyph glyph-name="edieresis" unicode="&#xeb;" horiz-adv-x="295" 
d="M334 199q8 0 8 -8q0 -6 -15 -29q-44 -62 -87 -99.5t-76.5 -54t-65.5 -16.5q-23 0 -46.5 10t-37 35.5t-13.5 59.5q0 20 6.5 50.5t23.5 67.5t47 75t75 65.5t94 27.5q41 0 41 -32q0 -18 -15.5 -48t-53.5 -71.5t-82 -67.5t-75 -26q-6 -24 -6 -49q0 -36 14 -50.5t33 -14.5
q23 0 56 17t73 55.5t68 75.5q19 19 25 23t9 4zM244 350q-20 0 -48.5 -22.5t-58 -57t-48.5 -63t-19 -36.5l2 -3q14 0 41.5 16.5t63.5 53t55.5 65t19.5 40.5q0 7 -8 7zM156 480q0 12 14 20t28 8q11 0 20 -6.5t9 -17.5q0 -15 -13 -25.5t-29 -10.5q-11 0 -20 7.5t-9 24.5z
M276 479q1 13 13.5 21.5t24.5 8.5q10 0 19 -7.5t9 -22.5v-1q0 -14 -12.5 -23t-24.5 -9q-11 0 -20 8t-9 25z" />
    <glyph glyph-name="igrave" unicode="&#xec;" 
d="M28 2q-17 0 -30 11.5t-13 49.5q0 27 17.5 78t44.5 109t53.5 97t39.5 39q11 0 19.5 -9t8.5 -25q0 -11 -56.5 -111t-72.5 -137.5t-16 -52.5q0 -14 12 -14q27 0 69 38t84 95q23 28 35 28q8 0 8 -8q0 -4 -5 -13.5t-11 -16.5q-52 -72 -98.5 -115t-88.5 -43zM114 556
q0 6 7 11.5t13 5.5q15 0 45 -34q22 -25 42.5 -55.5t20.5 -41.5q0 -5 -3 -5q-9 0 -39 25.5t-50 48.5q-6 7 -21 22.5t-15 22.5z" />
    <glyph glyph-name="iacute" unicode="&#xed;" 
d="M293 541q0 -11 -38 -44t-58 -33q-3 0 -7.5 4t-4.5 9q0 12 34.5 55t48.5 43q12 0 18 -11t7 -23zM28 2q-17 0 -30 11.5t-13 49.5q0 27 17.5 78t44.5 109t53.5 97t39.5 39q11 0 19.5 -9t8.5 -25q0 -11 -56.5 -111t-72.5 -137.5t-16 -52.5q0 -14 12 -14q27 0 69 38t84 95
q23 28 35 28q8 0 8 -8q0 -4 -5 -13.5t-11 -16.5q-52 -72 -98.5 -115t-88.5 -43z" />
    <glyph glyph-name="icircumflex" unicode="&#xee;" 
d="M28 2q-17 0 -30 11.5t-13 49.5q0 27 17.5 78t44.5 109t53.5 97t39.5 39q11 0 19.5 -9t8.5 -25q0 -11 -56.5 -111t-72.5 -137.5t-16 -52.5q0 -14 12 -14q27 0 69 38t84 95q23 28 35 28q8 0 8 -8q0 -4 -5 -13.5t-11 -16.5q-52 -72 -98.5 -115t-88.5 -43zM228 559h7l7 2
q5 0 13 -8q5 -5 16.5 -38t11.5 -50q0 -7 -4.5 -13t-10.5 -6q-7 0 -11 12q-13 40 -31 63q-10 -9 -58 -44t-53 -35h-5q-10 0 -10 5v2q2 8 11 17q7 6 23.5 21t48.5 43.5t45 28.5z" />
    <glyph glyph-name="idieresis" unicode="&#xef;" 
d="M28 2q-17 0 -30 11.5t-13 49.5q0 27 17.5 78t44.5 109t53.5 97t39.5 39q11 0 19.5 -9t8.5 -25q0 -11 -56.5 -111t-72.5 -137.5t-16 -52.5q0 -14 12 -14q27 0 69 38t84 95q23 28 35 28q8 0 8 -8q0 -4 -5 -13.5t-11 -16.5q-52 -72 -98.5 -115t-88.5 -43zM117 502
q0 12 14 20t28 8q11 0 20 -6.5t9 -17.5q0 -15 -13 -25.5t-29 -10.5q-11 0 -20 7.5t-9 24.5zM237 501q1 13 13.5 21.5t24.5 8.5q10 0 19 -7.5t9 -22.5v-1q0 -14 -12.5 -23t-24.5 -9q-11 0 -20 8t-9 25z" />
    <glyph glyph-name="eth" unicode="&#xf0;" horiz-adv-x="375" 
d="M177 491q-5 0 -9 3.5t-4 8.5q0 4 4 8.5t15 8.5t12 5l111 55q-40 84 -135 84q-16 0 -16 6q0 4 10.5 9.5t19.5 5.5q52 0 91.5 -23.5t63.5 -64.5q90 44 108 44q4 0 7 -6.5t3 -11.5q0 -2 -3 -6.5t-27 -14.5l-74 -33q12 -28 18.5 -65.5t6.5 -73.5q0 -73 -18.5 -140.5
t-44 -118.5t-60.5 -90.5t-77.5 -62.5t-88.5 -23q-23 0 -45 8.5t-34.5 31t-12.5 53.5q0 41 22 97.5t60.5 103t73 65.5t61.5 19q39 0 62.5 -20t28.5 -57q7 36 15 87.5t8 75.5q0 50 -12 92q-92 -45 -110.5 -52.5t-29.5 -7.5zM90 27q33 0 67.5 24t62.5 62t44.5 81t16.5 78
q0 43 -14.5 55.5t-38.5 12.5q-13 0 -32.5 -9.5t-42.5 -33t-46.5 -60t-40.5 -82t-17 -77.5q0 -23 10 -37t31 -14z" />
    <glyph glyph-name="ntilde" unicode="&#xf1;" horiz-adv-x="379" 
d="M143 477q0 9 10 19.5t30.5 17t34.5 6.5q23 0 49.5 -18.5t36 -21t15.5 -2.5q22 2 31.5 15t12.5 13q5 0 5 -10q0 -14 -12 -28.5t-36 -14.5q-17 0 -30 5.5t-35.5 21.5t-37.5 16t-42 -11t-30 -11zM138 378q17 0 10 -17q0 -1 -2 -5t-37.5 -81.5t-38.5 -93.5q1 1 45.5 64
t76.5 92.5t52.5 39t34.5 9.5q56 0 56 -64q0 -15 -5.5 -39t-20 -57.5t-49 -99.5t-34.5 -79q0 -7 5 -7q27 0 69 38t84 95q23 28 35 28q8 0 8 -8q0 -4 -5.5 -15t-11.5 -17q-38 -52 -69.5 -85.5t-60.5 -52t-56 -18.5q-52 0 -52 58q0 15 6 38.5t20.5 56.5t51.5 103.5t37 86.5
q0 10 -7 10q-18 0 -44 -18t-63.5 -65.5t-96.5 -143t-65 -104.5t-16 -20t-14 -11q-11 0 -21 4t-10 9q5 11 10 23.5t34.5 86.5t43.5 107q5 11 16 37.5t18.5 44t18.5 36.5t23.5 26.5t23.5 7.5z" />
    <glyph glyph-name="ograve" unicode="&#xf2;" horiz-adv-x="329" 
d="M201 380q43 0 63.5 -21t20.5 -57q0 -27 -11 -62q-5 -19 -5 -44q0 -22 6.5 -36t17.5 -14q16 0 41 29q19 23 29 23q8 0 8 -8q0 -15 -18 -36q-34 -38 -64 -38q-34 0 -54 39q-37 -64 -86.5 -112t-83.5 -48q-15 0 -30.5 7.5t-24 28t-8.5 47.5q0 20 7 57t30.5 88.5t52 86.5
t56 52.5t53.5 17.5zM73 24q28 0 72.5 54.5t75.5 121.5q-4 23 -4 44t9.5 44.5t25.5 34.5q-5 34 -37 34q-24 0 -57.5 -40t-68 -125t-34.5 -135q0 -14 5 -23.5t13 -9.5zM202 563q0 6 7 11.5t13 5.5q15 0 45 -34q22 -25 42.5 -55.5t20.5 -41.5q0 -5 -3 -5q-9 0 -39 25.5
t-50 48.5q-6 7 -21 22.5t-15 22.5z" />
    <glyph glyph-name="oacute" unicode="&#xf3;" horiz-adv-x="329" 
d="M201 380q43 0 63.5 -21t20.5 -57q0 -27 -11 -62q-5 -19 -5 -44q0 -22 6.5 -36t17.5 -14q16 0 41 29q19 23 29 23q8 0 8 -8q0 -15 -18 -36q-34 -38 -64 -38q-34 0 -54 39q-37 -64 -86.5 -112t-83.5 -48q-15 0 -30.5 7.5t-24 28t-8.5 47.5q0 20 7 57t30.5 88.5t52 86.5
t56 52.5t53.5 17.5zM73 24q28 0 72.5 54.5t75.5 121.5q-4 23 -4 44t9.5 44.5t25.5 34.5q-5 34 -37 34q-24 0 -57.5 -40t-68 -125t-34.5 -135q0 -14 5 -23.5t13 -9.5zM360 559q-1 -4 -21 -26.5t-46.5 -47t-41.5 -24.5q-7 0 -7 8q0 5 15.5 29.5t41 54.5t36.5 30
q10 0 17.5 -4.5t7.5 -11.5z" />
    <glyph glyph-name="ocircumflex" unicode="&#xf4;" horiz-adv-x="329" 
d="M201 380q43 0 63.5 -21t20.5 -57q0 -27 -11 -62q-5 -19 -5 -44q0 -22 6.5 -36t17.5 -14q16 0 41 29q19 23 29 23q8 0 8 -8q0 -15 -18 -36q-34 -38 -64 -38q-34 0 -54 39q-37 -64 -86.5 -112t-83.5 -48q-15 0 -30.5 7.5t-24 28t-8.5 47.5q0 20 7 57t30.5 88.5t52 86.5
t56 52.5t53.5 17.5zM73 24q28 0 72.5 54.5t75.5 121.5q-4 23 -4 44t9.5 44.5t25.5 34.5q-5 34 -37 34q-24 0 -57.5 -40t-68 -125t-34.5 -135q0 -14 5 -23.5t13 -9.5zM307 564h7l7 2q5 0 13 -8q5 -5 16.5 -38t11.5 -50q0 -7 -4.5 -13t-10.5 -6q-7 0 -11 12q-13 40 -31 63
q-10 -9 -58 -44t-53 -35h-5q-10 0 -10 5v2q2 8 11 17q7 6 23.5 21t48.5 43.5t45 28.5z" />
    <glyph glyph-name="otilde" unicode="&#xf5;" horiz-adv-x="329" 
d="M160 470q0 9 10 19.5t30.5 17t34.5 6.5q23 0 49.5 -18.5t36 -21t15.5 -2.5q22 2 31.5 15t12.5 13q5 0 5 -10q0 -14 -12 -28.5t-36 -14.5q-17 0 -30 5.5t-35.5 21.5t-37.5 16t-42 -11t-30 -11zM201 380q43 0 63.5 -21t20.5 -57q0 -27 -11 -62q-5 -19 -5 -44q0 -22 6.5 -36
t17.5 -14q16 0 41 29q19 23 29 23q8 0 8 -8q0 -15 -18 -36q-34 -38 -64 -38q-34 0 -54 39q-37 -64 -86.5 -112t-83.5 -48q-15 0 -30.5 7.5t-24 28t-8.5 47.5q0 20 7 57t30.5 88.5t52 86.5t56 52.5t53.5 17.5zM73 24q28 0 72.5 54.5t75.5 121.5q-4 23 -4 44t9.5 44.5
t25.5 34.5q-5 34 -37 34q-24 0 -57.5 -40t-68 -125t-34.5 -135q0 -14 5 -23.5t13 -9.5z" />
    <glyph glyph-name="odieresis" unicode="&#xf6;" horiz-adv-x="329" 
d="M201 380q43 0 63.5 -21t20.5 -57q0 -27 -11 -62q-5 -19 -5 -44q0 -22 6.5 -36t17.5 -14q16 0 41 29q19 23 29 23q8 0 8 -8q0 -15 -18 -36q-34 -38 -64 -38q-34 0 -54 39q-37 -64 -86.5 -112t-83.5 -48q-15 0 -30.5 7.5t-24 28t-8.5 47.5q0 20 7 57t30.5 88.5t52 86.5
t56 52.5t53.5 17.5zM73 24q28 0 72.5 54.5t75.5 121.5q-4 23 -4 44t9.5 44.5t25.5 34.5q-5 34 -37 34q-24 0 -57.5 -40t-68 -125t-34.5 -135q0 -14 5 -23.5t13 -9.5zM197 505q0 12 14 20t28 8q11 0 20 -6.5t9 -17.5q0 -15 -13 -25.5t-29 -10.5q-11 0 -20 7.5t-9 24.5z
M317 504q1 13 13.5 21.5t24.5 8.5q10 0 19 -7.5t9 -22.5v-1q0 -14 -12.5 -23t-24.5 -9q-11 0 -20 8t-9 25z" />
    <glyph glyph-name="divide" unicode="&#xf7;" horiz-adv-x="302" 
d="M45 287v-1q0 -5 10.5 -10.5t88.5 -5.5l120 -2q10 0 13 2t4 16q1 11 -220 11q-15 0 -16 -10zM165 202q0 -22 -14 -35t-29 -13q-8 0 -14 5t-6 13q0 22 15 38t30 16q7 0 12.5 -6.5t5.5 -17.5zM222 386q0 -18 -14 -31.5t-28 -13.5q-7 0 -12.5 5.5t-5.5 14.5q0 19 13.5 32
t28.5 13q7 0 12.5 -5.5t5.5 -14.5z" />
    <glyph glyph-name="oslash" unicode="&#xf8;" horiz-adv-x="329" 
d="M201 380l17 -1l4 7q39 74 49 74q8 -1 8 -10v-2l-37 -75q43 -15 43 -71q0 -27 -11 -62q-5 -19 -5 -44q0 -22 6.5 -36t17.5 -14q16 0 41 29q19 23 29 23q8 0 8 -8q0 -15 -18 -36q-34 -38 -64 -38q-34 0 -54 39q-37 -64 -86.5 -112t-83.5 -48h-5l-37 -76l-4 -2q-3 0 -6 4
t-3 12q0 6 27 67q-35 17 -35 78q0 20 7 57t30.5 88.5t52 86.5t56 52.5t53.5 17.5zM252 323q-3 23 -19 30l-159 -329q28 1 72 55t75 121q-4 23 -4 44t9.5 44.5t25.5 34.5zM56 43q59 131 150 313q-23 -6 -55.5 -48t-64 -122.5t-31.5 -128.5z" />
    <glyph glyph-name="ugrave" unicode="&#xf9;" horiz-adv-x="416" 
d="M261 1q-42 0 -42 57q0 6 1.5 24t10 51.5t8.5 34.5q-3 -3 -28 -36.5t-42 -52.5t-35.5 -36t-41 -29.5t-43.5 -12.5q-29 0 -43 17t-14 47q0 36 22 98.5t65 129t63 66.5q11 0 19 -5t8 -14q0 -2 -3 -10t-49.5 -88t-62 -121.5t-15.5 -61.5q0 -26 11 -26q15 0 37 15.5t51 52
t99 140.5t99 104q6 0 11.5 -2.5t5.5 -14.5q0 -2 -27.5 -75.5t-41 -113.5t-18 -61t-4.5 -30q0 -12 6 -12q26 0 68 38t86 96q6 7 17 17.5t17 10.5q8 0 8 -9q0 -7 -8 -19q-26 -41 -62 -82.5t-70.5 -62.5t-62.5 -24zM236 546q0 6 7 11.5t13 5.5q15 0 45 -34q22 -25 42.5 -55.5
t20.5 -41.5q0 -5 -3 -5q-9 0 -39 25.5t-50 48.5q-6 7 -21 22.5t-15 22.5z" />
    <glyph glyph-name="uacute" unicode="&#xfa;" horiz-adv-x="416" 
d="M261 1q-42 0 -42 57q0 6 1.5 24t10 51.5t8.5 34.5q-3 -3 -28 -36.5t-42 -52.5t-35.5 -36t-41 -29.5t-43.5 -12.5q-29 0 -43 17t-14 47q0 36 22 98.5t65 129t63 66.5q11 0 19 -5t8 -14q0 -2 -3 -10t-49.5 -88t-62 -121.5t-15.5 -61.5q0 -26 11 -26q15 0 37 15.5t51 52
t99 140.5t99 104q6 0 11.5 -2.5t5.5 -14.5q0 -2 -27.5 -75.5t-41 -113.5t-18 -61t-4.5 -30q0 -12 6 -12q26 0 68 38t86 96q6 7 17 17.5t17 10.5q8 0 8 -9q0 -7 -8 -19q-26 -41 -62 -82.5t-70.5 -62.5t-62.5 -24zM363 518q-1 -4 -21 -26.5t-46.5 -47t-41.5 -24.5q-7 0 -7 8
q0 5 15.5 29.5t41 54.5t36.5 30q10 0 17.5 -4.5t7.5 -11.5z" />
    <glyph glyph-name="ucircumflex" unicode="&#xfb;" horiz-adv-x="416" 
d="M261 1q-42 0 -42 57q0 6 1.5 24t10 51.5t8.5 34.5q-3 -3 -28 -36.5t-42 -52.5t-35.5 -36t-41 -29.5t-43.5 -12.5q-29 0 -43 17t-14 47q0 36 22 98.5t65 129t63 66.5q11 0 19 -5t8 -14q0 -2 -3 -10t-49.5 -88t-62 -121.5t-15.5 -61.5q0 -26 11 -26q15 0 37 15.5t51 52
t99 140.5t99 104q6 0 11.5 -2.5t5.5 -14.5q0 -2 -27.5 -75.5t-41 -113.5t-18 -61t-4.5 -30q0 -12 6 -12q26 0 68 38t86 96q6 7 17 17.5t17 10.5q8 0 8 -9q0 -7 -8 -19q-26 -41 -62 -82.5t-70.5 -62.5t-62.5 -24zM333 560h7l7 2q5 0 13 -8q5 -5 16.5 -38t11.5 -50
q0 -7 -4.5 -13t-10.5 -6q-7 0 -11 12q-13 40 -31 63q-10 -9 -58 -44t-53 -35h-5q-10 0 -10 5v2q2 8 11 17q7 6 23.5 21t48.5 43.5t45 28.5z" />
    <glyph glyph-name="udieresis" unicode="&#xfc;" horiz-adv-x="416" 
d="M261 1q-42 0 -42 57q0 6 1.5 24t10 51.5t8.5 34.5q-3 -3 -28 -36.5t-42 -52.5t-35.5 -36t-41 -29.5t-43.5 -12.5q-29 0 -43 17t-14 47q0 36 22 98.5t65 129t63 66.5q11 0 19 -5t8 -14q0 -2 -3 -10t-49.5 -88t-62 -121.5t-15.5 -61.5q0 -26 11 -26q15 0 37 15.5t51 52
t99 140.5t99 104q6 0 11.5 -2.5t5.5 -14.5q0 -2 -27.5 -75.5t-41 -113.5t-18 -61t-4.5 -30q0 -12 6 -12q26 0 68 38t86 96q6 7 17 17.5t17 10.5q8 0 8 -9q0 -7 -8 -19q-26 -41 -62 -82.5t-70.5 -62.5t-62.5 -24zM206 495q0 12 14 20t28 8q11 0 20 -6.5t9 -17.5
q0 -15 -13 -25.5t-29 -10.5q-11 0 -20 7.5t-9 24.5zM326 494q1 13 13.5 21.5t24.5 8.5q10 0 19 -7.5t9 -22.5v-1q0 -14 -12.5 -23t-24.5 -9q-11 0 -20 8t-9 25z" />
    <glyph glyph-name="yacute" unicode="&#xfd;" horiz-adv-x="417" 
d="M286 -98q0 -5 -4 -9t-8 -4q-12 0 -38 -4q-41 -116 -92 -174.5t-110 -58.5q-18 0 -34 8.5t-23 26t-7 33.5v6q3 31 26.5 64.5t68.5 65t109 48.5q4 12 33 109.5t47 148t25 66.5q-18 -33 -72.5 -101.5t-96 -102.5t-64.5 -34q-29 0 -43 18.5t-14 71.5q0 45 39.5 123t71.5 117
t44 39q8 0 15.5 -3.5t7.5 -12.5q0 -5 -8 -24.5t-50.5 -100t-59 -117t-19.5 -50t-3 -17.5q0 -11 8 -11q13 0 35.5 12.5t58 50t69 81t108 145.5t94.5 102q11 0 19.5 -10.5t8.5 -33.5q0 -3 -11 -15t-18.5 -22t-15.5 -21.5t-16.5 -27t-21.5 -41.5t-30.5 -75.5t-34.5 -118.5
q-1 -2 -2.5 -8t-11.5 -49.5t-20 -75.5l26 1q5 0 9.5 -3.5t4.5 -11.5zM3 -279v-5q0 -31 27 -31q29 0 63.5 45.5t66.5 133.5q-29 -12 -64.5 -33t-62.5 -51.5t-30 -58.5zM363 516q-1 -4 -21 -26.5t-46.5 -47t-41.5 -24.5q-7 0 -7 8q0 5 15.5 29.5t41 54.5t36.5 30
q10 0 17.5 -4.5t7.5 -11.5z" />
    <glyph glyph-name="thorn" unicode="&#xfe;" horiz-adv-x="366" 
d="M210 1q-41 0 -41 43q0 14 5.5 37.5t20 58.5t50 108t35.5 87q0 7 -5 7q-9 0 -34 -17.5t-63.5 -58.5t-87 -111.5t-104 -188t-96.5 -273.5q-1 -4 -7 -7t-12 -3q-10 0 -18.5 7.5t-8.5 24.5q0 22 85.5 241t183.5 447t110 228q8 0 16 -7t8 -18q0 -10 -17.5 -54.5t-48 -112
t-54.5 -119.5t-45.5 -98t-22.5 -47q57 79 118.5 140t94.5 61q42 0 42 -47q0 -28 -15 -72.5t-50.5 -123t-35.5 -91.5q0 -6 4 -6q27 0 69.5 38.5t84.5 95.5q14 15 21.5 21.5t12.5 6.5q8 0 8 -8t-8 -20q-117 -169 -195 -169z" />
    <glyph glyph-name="ydieresis" unicode="&#xff;" horiz-adv-x="417" 
d="M286 -98q0 -5 -4 -9t-8 -4q-12 0 -38 -4q-41 -116 -92 -174.5t-110 -58.5q-18 0 -34 8.5t-23 26t-7 33.5v6q3 31 26.5 64.5t68.5 65t109 48.5q4 12 33 109.5t47 148t25 66.5q-18 -33 -72.5 -101.5t-96 -102.5t-64.5 -34q-29 0 -43 18.5t-14 71.5q0 45 39.5 123t71.5 117
t44 39q8 0 15.5 -3.5t7.5 -12.5q0 -5 -8 -24.5t-50.5 -100t-59 -117t-19.5 -50t-3 -17.5q0 -11 8 -11q13 0 35.5 12.5t58 50t69 81t108 145.5t94.5 102q11 0 19.5 -10.5t8.5 -33.5q0 -3 -11 -15t-18.5 -22t-15.5 -21.5t-16.5 -27t-21.5 -41.5t-30.5 -75.5t-34.5 -118.5
q-1 -2 -2.5 -8t-11.5 -49.5t-20 -75.5l26 1q5 0 9.5 -3.5t4.5 -11.5zM3 -279v-5q0 -31 27 -31q29 0 63.5 45.5t66.5 133.5q-29 -12 -64.5 -33t-62.5 -51.5t-30 -58.5zM225 509q0 12 14 20t28 8q11 0 20 -6.5t9 -17.5q0 -15 -13 -25.5t-29 -10.5q-11 0 -20 7.5t-9 24.5z
M345 508q1 13 13.5 21.5t24.5 8.5q10 0 19 -7.5t9 -22.5v-1q0 -14 -12.5 -23t-24.5 -9q-11 0 -20 8t-9 25z" />
    <glyph glyph-name="Amacron" unicode="&#x100;" horiz-adv-x="730" 
d="M665 -89q4 0 6 -3t2 -6q0 -5 -5 -10t-14 -5q-32 0 -52.5 10.5t-35 27.5t-24.5 48.5t-10 77.5q0 65 21 154q-40 3 -89 3h-27q-73 -110 -140.5 -159t-135.5 -49q-49 0 -84.5 21t-56 59.5t-20.5 91.5q0 21 5 50t20 61.5t42.5 65t72.5 55t100 22.5q57 0 85.5 -27.5
t28.5 -68.5q0 -29 -13.5 -60.5t-38.5 -58t-59.5 -42.5t-73.5 -16q-11 0 -11 5q0 2 2 4t6 2q25 0 57.5 20t63 65t30.5 84q0 27 -18 43.5t-55 16.5q-38 0 -73.5 -22t-61.5 -58t-40.5 -78.5t-14.5 -80.5q0 -51 27.5 -84t81.5 -33q44 0 89.5 29t90 90t110.5 181t94.5 165
t56 78.5t57.5 57t58.5 32.5t50.5 9q20 0 42 4.5t44 19.5t29 15q5 0 9.5 -5t4.5 -12q0 -6 -13.5 -17t-35.5 -20q-52 -66 -100 -152t-84.5 -174.5t-57 -170.5t-20.5 -140q0 -55 19 -85.5t58 -30.5zM748 647q-31 0 -70 -41t-114 -178t-108 -189q30 -5 75 -5l29 1
q17 61 50.5 146t80 162t84.5 105zM706 790v1q1 10 16 10q221 0 220 -11q-1 -12 -2.5 -15t-14.5 -3l-120 2q-67 0 -83 4t-16 12z" />
    <glyph glyph-name="amacron" unicode="&#x101;" horiz-adv-x="426" 
d="M465 171l-7 -10q-67 -91 -110.5 -124.5t-77.5 -33.5q-61 0 -61 60q0 14 4 33.5t11.5 40.5t6.5 21l-2 -3q-33 -70 -77.5 -111t-92.5 -41q-29 0 -43.5 22t-14.5 59q0 29 9 65.5t28.5 79t46.5 75.5t55 49.5t55 16.5q36 0 62 -21t31 -47q33 40 50.5 55.5t28.5 15.5
q8 0 17.5 -11.5t9.5 -17.5l-1 -2q-72 -101 -109 -171.5t-37 -102.5q0 -13 7 -21.5t23 -8.5q49 0 154 133q23 28 34 28q8 0 8 -8t-8 -20zM63 37q18 0 38 11.5t41 35t41.5 55.5t42 71.5t26.5 47.5q6 11 6 23q0 20 -13.5 37.5t-32.5 17.5t-44 -20.5t-51.5 -64t-48 -97.5
t-21.5 -89q0 -12 4 -20t12 -8zM180 486v1q1 10 16 10q221 0 220 -11q-1 -12 -2.5 -15t-14.5 -3l-120 2q-67 0 -83 4t-16 12z" />
    <glyph glyph-name="Abreve" unicode="&#x102;" horiz-adv-x="730" 
d="M665 -89q4 0 6 -3t2 -6q0 -5 -5 -10t-14 -5q-32 0 -52.5 10.5t-35 27.5t-24.5 48.5t-10 77.5q0 65 21 154q-40 3 -89 3h-27q-73 -110 -140.5 -159t-135.5 -49q-49 0 -84.5 21t-56 59.5t-20.5 91.5q0 21 5 50t20 61.5t42.5 65t72.5 55t100 22.5q57 0 85.5 -27.5
t28.5 -68.5q0 -29 -13.5 -60.5t-38.5 -58t-59.5 -42.5t-73.5 -16q-11 0 -11 5q0 2 2 4t6 2q25 0 57.5 20t63 65t30.5 84q0 27 -18 43.5t-55 16.5q-38 0 -73.5 -22t-61.5 -58t-40.5 -78.5t-14.5 -80.5q0 -51 27.5 -84t81.5 -33q44 0 89.5 29t90 90t110.5 181t94.5 165
t56 78.5t57.5 57t58.5 32.5t50.5 9q20 0 42 4.5t44 19.5t29 15q5 0 9.5 -5t4.5 -12q0 -6 -13.5 -17t-35.5 -20q-52 -66 -100 -152t-84.5 -174.5t-57 -170.5t-20.5 -140q0 -55 19 -85.5t58 -30.5zM748 647q-31 0 -70 -41t-114 -178t-108 -189q30 -5 75 -5l29 1
q17 61 50.5 146t80 162t84.5 105zM765 848q0 7 4.5 13t10.5 6q9 0 11 -12q8 -59 45 -59q38 0 109 68l3 1q2 0 4.5 -2t2.5 -4v-2q-4 -15 -21 -38.5t-49.5 -44t-59.5 -20.5q-19 0 -33.5 12t-20.5 35t-6 47z" />
    <glyph glyph-name="abreve" unicode="&#x103;" horiz-adv-x="426" 
d="M465 171l-7 -10q-67 -91 -110.5 -124.5t-77.5 -33.5q-61 0 -61 60q0 14 4 33.5t11.5 40.5t6.5 21l-2 -3q-33 -70 -77.5 -111t-92.5 -41q-29 0 -43.5 22t-14.5 59q0 29 9 65.5t28.5 79t46.5 75.5t55 49.5t55 16.5q36 0 62 -21t31 -47q33 40 50.5 55.5t28.5 15.5
q8 0 17.5 -11.5t9.5 -17.5l-1 -2q-72 -101 -109 -171.5t-37 -102.5q0 -13 7 -21.5t23 -8.5q49 0 154 133q23 28 34 28q8 0 8 -8t-8 -20zM63 37q18 0 38 11.5t41 35t41.5 55.5t42 71.5t26.5 47.5q6 11 6 23q0 20 -13.5 37.5t-32.5 17.5t-44 -20.5t-51.5 -64t-48 -97.5
t-21.5 -89q0 -12 4 -20t12 -8zM236 532q0 7 4.5 13t10.5 6q9 0 11 -12q8 -59 45 -59q38 0 109 68l3 1q2 0 4.5 -2t2.5 -4v-2q-4 -15 -21 -38.5t-49.5 -44t-59.5 -20.5q-19 0 -33.5 12t-20.5 35t-6 47z" />
    <glyph glyph-name="Aogonek" unicode="&#x104;" horiz-adv-x="730" 
d="M673 -155q1 2 5 3.5t7 1.5q4 0 7.5 -2.5t3.5 -5.5q-10 -24 -30 -36t-42 -12q-19 0 -33 9t-14 23q0 28 54 63q-50 8 -74.5 51t-24.5 111q0 65 21 154q-40 3 -89 3h-27q-73 -110 -140.5 -159t-135.5 -49q-49 0 -84.5 21t-56 59.5t-20.5 91.5q0 21 5 50t20 61.5t42.5 65
t72.5 55t100 22.5q57 0 85.5 -27.5t28.5 -68.5q0 -29 -13.5 -60.5t-38.5 -58t-59.5 -42.5t-73.5 -16q-11 0 -11 5q0 2 2 4t6 2q25 0 57.5 20t63 65t30.5 84q0 27 -18 43.5t-55 16.5q-38 0 -73.5 -22t-61.5 -58t-40.5 -78.5t-14.5 -80.5q0 -51 27.5 -84t81.5 -33
q44 0 89.5 29t90 90t110.5 181t94.5 165t56 78.5t57.5 57t58.5 32.5t50.5 9q20 0 42 4.5t44 19.5t29 15q5 0 9.5 -5t4.5 -12q0 -6 -13.5 -17t-35.5 -20q-52 -66 -100 -152t-84.5 -174.5t-57 -170.5t-20.5 -140q0 -55 19 -85.5t58 -30.5q4 0 6 -3t2 -6q0 -2 -2.5 -6t-5.5 -6
v-1l-1 -1q-17 -8 -31.5 -22.5t-14.5 -32.5q0 -8 4 -13.5t11 -5.5q17 0 40 31zM748 647q-31 0 -70 -41t-114 -178t-108 -189q30 -5 75 -5l29 1q17 61 50.5 146t80 162t84.5 105z" />
    <glyph glyph-name="aogonek" unicode="&#x105;" horiz-adv-x="426" 
d="M330 -24q1 2 5 3.5t7 1.5q4 0 7.5 -2.5t3.5 -5.5q-10 -24 -30 -36t-42 -12q-19 0 -33 9t-14 23q0 10 7.5 22t22.5 24q-55 3 -55 60q0 14 4 33.5t11.5 40.5t6.5 21l-2 -3q-33 -70 -77.5 -111t-92.5 -41q-29 0 -43.5 22t-14.5 59q0 29 9 65.5t28.5 79t46.5 75.5t55 49.5
t55 16.5q36 0 62 -21t31 -47q33 40 50.5 55.5t28.5 15.5q8 0 17.5 -11.5t9.5 -17.5l-1 -2q-72 -101 -109 -171.5t-37 -102.5q0 -13 7 -21.5t23 -8.5q49 0 154 133q23 28 34 28q8 0 8 -8t-8 -20l-7 -10q-55 -75 -90.5 -107.5t-62.5 -43.5q-14 -9 -22 -22t-8 -24q0 -8 4 -13.5
t11 -5.5q17 0 40 31zM63 37q18 0 38 11.5t41 35t41.5 55.5t42 71.5t26.5 47.5q6 11 6 23q0 20 -13.5 37.5t-32.5 17.5t-44 -20.5t-51.5 -64t-48 -97.5t-21.5 -89q0 -12 4 -20t12 -8z" />
    <glyph glyph-name="Cacute" unicode="&#x106;" horiz-adv-x="484" 
d="M130 105q0 -78 44 -78q8 44 31 89t55 80.5t66.5 56.5t63.5 21q22 0 33.5 -12.5t11.5 -33.5q0 -36 -32.5 -91.5t-89 -95.5t-113.5 -44l-1 -17q0 -42 -4 -58q-12 0 -18.5 12t-6.5 44v19q-53 4 -80 43.5t-27 102.5q0 53 17 118q-39 11 -59.5 41.5t-20.5 69.5q0 27 11 57
t30.5 53t48 37t61.5 14q4 0 10.5 -1.5t6.5 -6.5q-1 -3 -4 -8t-10 -5h-1q-28 0 -56.5 -31t-41 -65t-12.5 -57q0 -24 11.5 -42.5t35.5 -25.5q29 90 78.5 168t104.5 131t108.5 76.5t98.5 23.5q44 0 65.5 -17t21.5 -46q0 -21 -13 -53.5t-45.5 -76t-78 -86t-97.5 -77.5
t-97.5 -52.5t-76.5 -22.5q-29 -89 -29 -154zM527 639q0 22 -21 22q-25 0 -58 -11t-69.5 -39t-69.5 -68t-70.5 -103t-68.5 -148q45 10 101 43t112.5 88t89.5 102.5t43.5 74t10.5 39.5zM402 231q0 3 -1.5 5.5t-3.5 2.5q-15 0 -39 -12.5t-55 -43.5t-58 -74t-38 -79q19 4 48 18
t64 48t59 75.5t24 59.5zM592 829q-1 -4 -21 -26.5t-46.5 -47t-41.5 -24.5q-7 0 -7 8q0 5 15.5 29.5t41 54.5t36.5 30q10 0 17.5 -4.5t7.5 -11.5z" />
    <glyph glyph-name="cacute" unicode="&#x107;" horiz-adv-x="291" 
d="M296 171q23 28 35 28q8 0 8 -9q0 -3 -2 -8.5t-15 -22.5q-31 -42 -71 -80.5t-82 -63t-81 -24.5q-21 0 -42 9t-33 33t-12 56q0 41 17.5 92t46.5 95.5t65 72.5t70 28q29 0 42.5 -12.5t13.5 -33.5q0 -18 -11.5 -47t-35 -59.5t-34.5 -30.5q-6 0 -6 6q0 10 27.5 62t27.5 68
q0 12 -12 12q-22 0 -55.5 -33.5t-68 -107t-34.5 -125.5q0 -53 40 -53q43 0 102 47.5t100 100.5zM346 538q-1 -4 -21 -26.5t-46.5 -47t-41.5 -24.5q-7 0 -7 8q0 5 15.5 29.5t41 54.5t36.5 30q10 0 17.5 -4.5t7.5 -11.5z" />
    <glyph glyph-name="Ccircumflex" unicode="&#x108;" horiz-adv-x="484" 
d="M130 105q0 -78 44 -78q8 44 31 89t55 80.5t66.5 56.5t63.5 21q22 0 33.5 -12.5t11.5 -33.5q0 -36 -32.5 -91.5t-89 -95.5t-113.5 -44l-1 -17q0 -42 -4 -58q-12 0 -18.5 12t-6.5 44v19q-53 4 -80 43.5t-27 102.5q0 53 17 118q-39 11 -59.5 41.5t-20.5 69.5q0 27 11 57
t30.5 53t48 37t61.5 14q4 0 10.5 -1.5t6.5 -6.5q-1 -3 -4 -8t-10 -5h-1q-28 0 -56.5 -31t-41 -65t-12.5 -57q0 -24 11.5 -42.5t35.5 -25.5q29 90 78.5 168t104.5 131t108.5 76.5t98.5 23.5q44 0 65.5 -17t21.5 -46q0 -21 -13 -53.5t-45.5 -76t-78 -86t-97.5 -77.5
t-97.5 -52.5t-76.5 -22.5q-29 -89 -29 -154zM527 639q0 22 -21 22q-25 0 -58 -11t-69.5 -39t-69.5 -68t-70.5 -103t-68.5 -148q45 10 101 43t112.5 88t89.5 102.5t43.5 74t10.5 39.5zM402 231q0 3 -1.5 5.5t-3.5 2.5q-15 0 -39 -12.5t-55 -43.5t-58 -74t-38 -79q19 4 48 18
t64 48t59 75.5t24 59.5zM541 839h7l7 2q5 0 13 -8q5 -5 16.5 -38t11.5 -50q0 -7 -4.5 -13t-10.5 -6q-7 0 -11 12q-13 40 -31 63q-10 -9 -58 -44t-53 -35h-5q-10 0 -10 5v2q2 8 11 17q7 6 23.5 21t48.5 43.5t45 28.5z" />
    <glyph glyph-name="ccircumflex" unicode="&#x109;" horiz-adv-x="291" 
d="M296 171q23 28 35 28q8 0 8 -9q0 -3 -2 -8.5t-15 -22.5q-31 -42 -71 -80.5t-82 -63t-81 -24.5q-21 0 -42 9t-33 33t-12 56q0 41 17.5 92t46.5 95.5t65 72.5t70 28q29 0 42.5 -12.5t13.5 -33.5q0 -18 -11.5 -47t-35 -59.5t-34.5 -30.5q-6 0 -6 6q0 10 27.5 62t27.5 68
q0 12 -12 12q-22 0 -55.5 -33.5t-68 -107t-34.5 -125.5q0 -53 40 -53q43 0 102 47.5t100 100.5zM277 558h7l7 2q5 0 13 -8q5 -5 16.5 -38t11.5 -50q0 -7 -4.5 -13t-10.5 -6q-7 0 -11 12q-13 40 -31 63q-10 -9 -58 -44t-53 -35h-5q-10 0 -10 5v2q2 8 11 17q7 6 23.5 21
t48.5 43.5t45 28.5z" />
    <glyph glyph-name="Cdotaccent" unicode="&#x10a;" horiz-adv-x="484" 
d="M130 105q0 -78 44 -78q8 44 31 89t55 80.5t66.5 56.5t63.5 21q22 0 33.5 -12.5t11.5 -33.5q0 -36 -32.5 -91.5t-89 -95.5t-113.5 -44l-1 -17q0 -42 -4 -58q-12 0 -18.5 12t-6.5 44v19q-53 4 -80 43.5t-27 102.5q0 53 17 118q-39 11 -59.5 41.5t-20.5 69.5q0 27 11 57
t30.5 53t48 37t61.5 14q4 0 10.5 -1.5t6.5 -6.5q-1 -3 -4 -8t-10 -5h-1q-28 0 -56.5 -31t-41 -65t-12.5 -57q0 -24 11.5 -42.5t35.5 -25.5q29 90 78.5 168t104.5 131t108.5 76.5t98.5 23.5q44 0 65.5 -17t21.5 -46q0 -21 -13 -53.5t-45.5 -76t-78 -86t-97.5 -77.5
t-97.5 -52.5t-76.5 -22.5q-29 -89 -29 -154zM527 639q0 22 -21 22q-25 0 -58 -11t-69.5 -39t-69.5 -68t-70.5 -103t-68.5 -148q45 10 101 43t112.5 88t89.5 102.5t43.5 74t10.5 39.5zM402 231q0 3 -1.5 5.5t-3.5 2.5q-15 0 -39 -12.5t-55 -43.5t-58 -74t-38 -79q19 4 48 18
t64 48t59 75.5t24 59.5zM514 766q1 15 15 24.5t27 9.5q12 0 22 -8.5t10 -25.5v-1q0 -15 -13.5 -25.5t-27.5 -10.5t-23.5 10t-9.5 27z" />
    <glyph glyph-name="cdotaccent" unicode="&#x10b;" horiz-adv-x="291" 
d="M296 171q23 28 35 28q8 0 8 -9q0 -3 -2 -8.5t-15 -22.5q-31 -42 -71 -80.5t-82 -63t-81 -24.5q-21 0 -42 9t-33 33t-12 56q0 41 17.5 92t46.5 95.5t65 72.5t70 28q29 0 42.5 -12.5t13.5 -33.5q0 -18 -11.5 -47t-35 -59.5t-34.5 -30.5q-6 0 -6 6q0 10 27.5 62t27.5 68
q0 12 -12 12q-22 0 -55.5 -33.5t-68 -107t-34.5 -125.5q0 -53 40 -53q43 0 102 47.5t100 100.5zM227 471q1 15 15 24.5t27 9.5q12 0 22 -8.5t10 -25.5v-1q0 -15 -13.5 -25.5t-27.5 -10.5t-23.5 10t-9.5 27z" />
    <glyph glyph-name="Ccaron" unicode="&#x10c;" horiz-adv-x="484" 
d="M130 105q0 -78 44 -78q8 44 31 89t55 80.5t66.5 56.5t63.5 21q22 0 33.5 -12.5t11.5 -33.5q0 -36 -32.5 -91.5t-89 -95.5t-113.5 -44l-1 -17q0 -42 -4 -58q-12 0 -18.5 12t-6.5 44v19q-53 4 -80 43.5t-27 102.5q0 53 17 118q-39 11 -59.5 41.5t-20.5 69.5q0 27 11 57
t30.5 53t48 37t61.5 14q4 0 10.5 -1.5t6.5 -6.5q-1 -3 -4 -8t-10 -5h-1q-28 0 -56.5 -31t-41 -65t-12.5 -57q0 -24 11.5 -42.5t35.5 -25.5q29 90 78.5 168t104.5 131t108.5 76.5t98.5 23.5q44 0 65.5 -17t21.5 -46q0 -21 -13 -53.5t-45.5 -76t-78 -86t-97.5 -77.5
t-97.5 -52.5t-76.5 -22.5q-29 -89 -29 -154zM527 639q0 22 -21 22q-25 0 -58 -11t-69.5 -39t-69.5 -68t-70.5 -103t-68.5 -148q45 10 101 43t112.5 88t89.5 102.5t43.5 74t10.5 39.5zM402 231q0 3 -1.5 5.5t-3.5 2.5q-15 0 -39 -12.5t-55 -43.5t-58 -74t-38 -79q19 4 48 18
t64 48t59 75.5t24 59.5zM536 724h-7l-7 -2q-5 0 -13 8q-5 5 -16.5 38t-11.5 50q0 7 4.5 13t10.5 6q7 0 11 -12q13 -40 31 -63q10 9 58 44t53 35h5q10 0 10 -5v-2q-2 -8 -11 -17q-7 -6 -23.5 -21t-48.5 -43.5t-45 -28.5z" />
    <glyph glyph-name="ccaron" unicode="&#x10d;" horiz-adv-x="291" 
d="M296 171q23 28 35 28q8 0 8 -9q0 -3 -2 -8.5t-15 -22.5q-31 -42 -71 -80.5t-82 -63t-81 -24.5q-21 0 -42 9t-33 33t-12 56q0 41 17.5 92t46.5 95.5t65 72.5t70 28q29 0 42.5 -12.5t13.5 -33.5q0 -18 -11.5 -47t-35 -59.5t-34.5 -30.5q-6 0 -6 6q0 10 27.5 62t27.5 68
q0 12 -12 12q-22 0 -55.5 -33.5t-68 -107t-34.5 -125.5q0 -53 40 -53q43 0 102 47.5t100 100.5zM249 421h-7l-7 -2q-5 0 -13 8q-5 5 -16.5 38t-11.5 50q0 7 4.5 13t10.5 6q7 0 11 -12q13 -40 31 -63q10 9 58 44t53 35h5q10 0 10 -5v-2q-2 -8 -11 -17q-7 -6 -23.5 -21
t-48.5 -43.5t-45 -28.5z" />
    <glyph glyph-name="Dcaron" unicode="&#x10e;" horiz-adv-x="606" 
d="M339 682q52 0 101 -17q42 29 87 29q16 0 29.5 -3t13.5 -8q-3 -4 -7 -4q-21 0 -42.5 -9t-39.5 -24q35 -21 59.5 -53.5t37.5 -75.5t13 -99q0 -65 -18 -129.5t-51 -117.5q26 15 50 37t29 22q4 0 4 -4q0 -10 -18 -32.5t-46 -41.5t-55 -31q-53 -62 -125 -97t-156 -35
q-27 0 -69 11q-33 -30 -67 -30q-31 0 -50 13t-19 30q0 15 15.5 25.5t43.5 10.5q19 0 61 -10q25 33 53 97q-23 18 -46.5 49.5t-37.5 78.5t-14 96q0 59 19 117t54 104.5t84.5 73.5t106.5 27zM232 152q48 -24 114 -24q36 0 76 7q51 60 81.5 139t30.5 152q0 35 -8 73.5t-28 68.5
t-46 49q-59 -69 -130 -246.5t-90 -218.5zM411 640q-37 14 -67 14q-34 0 -71 -17.5t-69.5 -57.5t-54.5 -99t-22 -125q0 -52 16.5 -98t48.5 -76q12 30 56.5 150t82.5 194t80 115zM162 29q29 -8 48 -8q44 0 88.5 19t82.5 53q-22 -3 -48 -3q-71 0 -120 23q-24 -49 -51 -84z
M58 19h-1q-10 0 -16 -3.5t-6 -7.5t5.5 -7.5t14.5 -3.5q21 0 39 15q-24 7 -36 7zM491 726h-7l-7 -2q-5 0 -13 8q-5 5 -16.5 38t-11.5 50q0 7 4.5 13t10.5 6q7 0 11 -12q13 -40 31 -63q10 9 58 44t53 35h5q10 0 10 -5v-2q-2 -8 -11 -17q-7 -6 -23.5 -21t-48.5 -43.5t-45 -28.5
z" />
    <glyph glyph-name="dcaron" unicode="&#x10f;" horiz-adv-x="436" 
d="M235 146q-2 -2 -20.5 -34.5t-32.5 -49t-28 -28t-35.5 -22t-51.5 -10.5q-24 0 -40 14t-21 34.5t-5 38.5q0 30 11.5 74.5t43 99.5t75.5 87.5t85 32.5q33 0 52 -27t19 -76l-1 -17q77 147 145.5 261t84.5 114q8 0 17.5 -9t9.5 -17q0 -6 -11.5 -29t-80 -142.5t-98.5 -177
t-44.5 -91t-24.5 -63.5t-10 -51q0 -20 15 -20q19 0 50.5 25.5t102.5 108.5q21 21 26 24.5t9 3.5q8 0 8 -9q0 -7 -8 -19q-29 -44 -62 -82t-67 -62.5t-66 -24.5q-55 0 -55 68q0 18 9 73zM75 30q29 0 61.5 30.5t59.5 77t42.5 89.5t15.5 69q0 23 -10.5 35.5t-29.5 12.5
q-21 0 -50.5 -30.5t-56.5 -78t-43.5 -92.5t-16.5 -75q0 -38 28 -38zM591 690q22 0 38 -15.5t16 -45.5q0 -14 -10.5 -34.5t-31.5 -39t-33 -18.5q-2 0 -4 1.5t-2 3.5q0 4 15 36.5t15 52.5q0 19 -3.5 36.5t-3.5 18.5q0 4 4 4z" />
    <glyph glyph-name="Dcroat" unicode="&#x110;" horiz-adv-x="606" 
d="M339 682q52 0 101 -17q42 29 87 29q16 0 29.5 -3t13.5 -8q-3 -4 -7 -4q-21 0 -42.5 -9t-39.5 -24q35 -21 59.5 -53.5t37.5 -75.5t13 -99q0 -65 -18 -129.5t-51 -117.5q26 15 50 37t29 22q4 0 4 -4q0 -10 -18 -32.5t-46 -41.5t-55 -31q-53 -62 -125 -97t-156 -35
q-27 0 -69 11q-33 -30 -67 -30q-31 0 -50 13t-19 30q0 15 15.5 25.5t43.5 10.5q19 0 61 -10q25 33 53 97q-23 18 -46.5 49.5t-37.5 78.5t-14 96q0 59 19 117t54 104.5t84.5 73.5t106.5 27zM232 152q48 -24 114 -24q36 0 76 7q51 60 81.5 139t30.5 152q0 35 -8 73.5t-28 68.5
t-46 49q-27 -31 -59 -88.5t-76 -169.5q90 -2 90 -9q-1 -12 -2.5 -15t-14.5 -3l-84 1q-60 -150 -63.5 -158t-10.5 -23zM171 350v1q1 10 16 10h72q37 96 73.5 166.5t78.5 112.5q-37 14 -67 14q-34 0 -71 -17.5t-69.5 -57.5t-54.5 -99t-22 -125q0 -52 16.5 -98t48.5 -76l57 153
q-40 0 -59 3t-19 13zM162 29q29 -8 48 -8q44 0 88.5 19t82.5 53q-22 -3 -48 -3q-71 0 -120 23q-24 -49 -51 -84zM58 19h-1q-10 0 -16 -3.5t-6 -7.5t5.5 -7.5t14.5 -3.5q21 0 39 15q-24 7 -36 7z" />
    <glyph glyph-name="dcroat" unicode="&#x111;" horiz-adv-x="436" 
d="M477 200q8 0 8 -9q0 -7 -8 -19q-29 -44 -62 -82t-67 -62.5t-66 -24.5q-55 0 -55 68q0 18 9 73l-1 2q-1 0 -2.5 -2t-16.5 -30t-38.5 -55.5t-52.5 -41.5t-59 -14q-16 0 -31.5 8t-24.5 29t-9 49q0 53 30 126t82 121t103 48q18 0 35 -11t26.5 -36t9.5 -53l-1 -20
q51 98 105 192q-35 0 -52.5 3.5t-17.5 12.5v1q1 10 16 10h69q91 156 110 156q9 0 17 -11t8 -21q0 -13 -64 -127q60 -4 60 -8q-1 -12 -2.5 -15t-14.5 -3l-57 1q-113 -202 -151 -283.5t-38 -113.5q0 -20 15 -20q19 0 50.5 25.5t102.5 108.5q21 21 26 24.5t9 3.5zM75 30
q29 0 61.5 30.5t59.5 77t42.5 89.5t15.5 69q0 23 -10.5 35.5t-29.5 12.5q-21 0 -50.5 -30.5t-56.5 -78t-43.5 -92.5t-16.5 -75q0 -38 28 -38z" />
    <glyph glyph-name="Emacron" unicode="&#x112;" horiz-adv-x="517" 
d="M317 383q23 0 24 -18q0 -15 -13 -15l-10 2q-59 0 -106.5 -18.5t-79 -49t-47.5 -67t-16 -71.5q0 -49 30 -82.5t84 -33.5q58 0 108 21t85.5 54t54.5 69.5t19 66.5q0 25 -14.5 40t-41.5 15q-24 0 -51 -10.5t-49.5 -35.5t-36.5 -53.5t-28.5 -69t-19.5 -40.5q-7 0 -7 18
q0 31 17 73.5t45.5 77.5t66 52t75.5 17q19 0 38.5 -8.5t31.5 -30.5t12 -50q0 -37 -20 -79t-59 -78.5t-98 -59t-132 -22.5q-52 0 -91 19t-63 54.5t-24 83.5q0 55 32 103t86 79.5t128 41.5q-21 14 -31 35l-44 -2q-55 0 -83.5 33t-28.5 80q0 25 11.5 60t41 62.5t68.5 27.5
q4 0 11.5 -1.5t7.5 -5.5q0 -3 -6.5 -5.5t-17.5 -2.5q-30 0 -52 -40.5t-22 -87.5q0 -28 9.5 -50.5t26.5 -32t34 -9.5q24 0 35 2q-3 15 -3 31q0 37 16.5 78t47 75.5t73.5 55.5t92 21q27 0 42.5 -17.5t15.5 -45.5q0 -43 -33 -93t-84.5 -81t-103.5 -43q13 -33 39 -39h8zM263 471
l1 -19q54 16 100 52t69.5 76.5t23.5 66.5q0 13 -7 21.5t-19 8.5q-29 0 -59 -13t-54 -41.5t-39.5 -68.5t-15.5 -83zM324 772v1q1 10 16 10q221 0 220 -11q-1 -12 -2.5 -15t-14.5 -3l-120 2q-67 0 -83 4t-16 12z" />
    <glyph glyph-name="emacron" unicode="&#x113;" horiz-adv-x="295" 
d="M334 199q8 0 8 -8q0 -6 -15 -29q-44 -62 -87 -99.5t-76.5 -54t-65.5 -16.5q-23 0 -46.5 10t-37 35.5t-13.5 59.5q0 20 6.5 50.5t23.5 67.5t47 75t75 65.5t94 27.5q41 0 41 -32q0 -18 -15.5 -48t-53.5 -71.5t-82 -67.5t-75 -26q-6 -24 -6 -49q0 -36 14 -50.5t33 -14.5
q23 0 56 17t73 55.5t68 75.5q19 19 25 23t9 4zM244 350q-20 0 -48.5 -22.5t-58 -57t-48.5 -63t-19 -36.5l2 -3q14 0 41.5 16.5t63.5 53t55.5 65t19.5 40.5q0 7 -8 7zM135 467v1q1 10 16 10q221 0 220 -11q-1 -12 -2.5 -15t-14.5 -3l-120 2q-67 0 -83 4t-16 12z" />
    <glyph glyph-name="Ebreve" unicode="&#x114;" horiz-adv-x="517" 
d="M317 383q23 0 24 -18q0 -15 -13 -15l-10 2q-59 0 -106.5 -18.5t-79 -49t-47.5 -67t-16 -71.5q0 -49 30 -82.5t84 -33.5q58 0 108 21t85.5 54t54.5 69.5t19 66.5q0 25 -14.5 40t-41.5 15q-24 0 -51 -10.5t-49.5 -35.5t-36.5 -53.5t-28.5 -69t-19.5 -40.5q-7 0 -7 18
q0 31 17 73.5t45.5 77.5t66 52t75.5 17q19 0 38.5 -8.5t31.5 -30.5t12 -50q0 -37 -20 -79t-59 -78.5t-98 -59t-132 -22.5q-52 0 -91 19t-63 54.5t-24 83.5q0 55 32 103t86 79.5t128 41.5q-21 14 -31 35l-44 -2q-55 0 -83.5 33t-28.5 80q0 25 11.5 60t41 62.5t68.5 27.5
q4 0 11.5 -1.5t7.5 -5.5q0 -3 -6.5 -5.5t-17.5 -2.5q-30 0 -52 -40.5t-22 -87.5q0 -28 9.5 -50.5t26.5 -32t34 -9.5q24 0 35 2q-3 15 -3 31q0 37 16.5 78t47 75.5t73.5 55.5t92 21q27 0 42.5 -17.5t15.5 -45.5q0 -43 -33 -93t-84.5 -81t-103.5 -43q13 -33 39 -39h8zM263 471
l1 -19q54 16 100 52t69.5 76.5t23.5 66.5q0 13 -7 21.5t-19 8.5q-29 0 -59 -13t-54 -41.5t-39.5 -68.5t-15.5 -83zM367 837q0 7 4.5 13t10.5 6q9 0 11 -12q8 -59 45 -59q38 0 109 68l3 1q2 0 4.5 -2t2.5 -4v-2q-4 -15 -21 -38.5t-49.5 -44t-59.5 -20.5q-19 0 -33.5 12
t-20.5 35t-6 47z" />
    <glyph glyph-name="ebreve" unicode="&#x115;" horiz-adv-x="295" 
d="M334 199q8 0 8 -8q0 -6 -15 -29q-44 -62 -87 -99.5t-76.5 -54t-65.5 -16.5q-23 0 -46.5 10t-37 35.5t-13.5 59.5q0 20 6.5 50.5t23.5 67.5t47 75t75 65.5t94 27.5q41 0 41 -32q0 -18 -15.5 -48t-53.5 -71.5t-82 -67.5t-75 -26q-6 -24 -6 -49q0 -36 14 -50.5t33 -14.5
q23 0 56 17t73 55.5t68 75.5q19 19 25 23t9 4zM244 350q-20 0 -48.5 -22.5t-58 -57t-48.5 -63t-19 -36.5l2 -3q14 0 41.5 16.5t63.5 53t55.5 65t19.5 40.5q0 7 -8 7zM195 530q0 7 4.5 13t10.5 6q9 0 11 -12q8 -59 45 -59q38 0 109 68l3 1q2 0 4.5 -2t2.5 -4v-2
q-4 -15 -21 -38.5t-49.5 -44t-59.5 -20.5q-19 0 -33.5 12t-20.5 35t-6 47z" />
    <glyph glyph-name="Edotaccent" unicode="&#x116;" horiz-adv-x="517" 
d="M317 383q23 0 24 -18q0 -15 -13 -15l-10 2q-59 0 -106.5 -18.5t-79 -49t-47.5 -67t-16 -71.5q0 -49 30 -82.5t84 -33.5q58 0 108 21t85.5 54t54.5 69.5t19 66.5q0 25 -14.5 40t-41.5 15q-24 0 -51 -10.5t-49.5 -35.5t-36.5 -53.5t-28.5 -69t-19.5 -40.5q-7 0 -7 18
q0 31 17 73.5t45.5 77.5t66 52t75.5 17q19 0 38.5 -8.5t31.5 -30.5t12 -50q0 -37 -20 -79t-59 -78.5t-98 -59t-132 -22.5q-52 0 -91 19t-63 54.5t-24 83.5q0 55 32 103t86 79.5t128 41.5q-21 14 -31 35l-44 -2q-55 0 -83.5 33t-28.5 80q0 25 11.5 60t41 62.5t68.5 27.5
q4 0 11.5 -1.5t7.5 -5.5q0 -3 -6.5 -5.5t-17.5 -2.5q-30 0 -52 -40.5t-22 -87.5q0 -28 9.5 -50.5t26.5 -32t34 -9.5q24 0 35 2q-3 15 -3 31q0 37 16.5 78t47 75.5t73.5 55.5t92 21q27 0 42.5 -17.5t15.5 -45.5q0 -43 -33 -93t-84.5 -81t-103.5 -43q13 -33 39 -39h8zM263 471
l1 -19q54 16 100 52t69.5 76.5t23.5 66.5q0 13 -7 21.5t-19 8.5q-29 0 -59 -13t-54 -41.5t-39.5 -68.5t-15.5 -83zM418 780q1 15 15 24.5t27 9.5q12 0 22 -8.5t10 -25.5v-1q0 -15 -13.5 -25.5t-27.5 -10.5t-23.5 10t-9.5 27z" />
    <glyph glyph-name="edotaccent" unicode="&#x117;" horiz-adv-x="295" 
d="M334 199q8 0 8 -8q0 -6 -15 -29q-44 -62 -87 -99.5t-76.5 -54t-65.5 -16.5q-23 0 -46.5 10t-37 35.5t-13.5 59.5q0 20 6.5 50.5t23.5 67.5t47 75t75 65.5t94 27.5q41 0 41 -32q0 -18 -15.5 -48t-53.5 -71.5t-82 -67.5t-75 -26q-6 -24 -6 -49q0 -36 14 -50.5t33 -14.5
q23 0 56 17t73 55.5t68 75.5q19 19 25 23t9 4zM244 350q-20 0 -48.5 -22.5t-58 -57t-48.5 -63t-19 -36.5l2 -3q14 0 41.5 16.5t63.5 53t55.5 65t19.5 40.5q0 7 -8 7zM239 475q1 15 15 24.5t27 9.5q12 0 22 -8.5t10 -25.5v-1q0 -15 -13.5 -25.5t-27.5 -10.5t-23.5 10t-9.5 27
z" />
    <glyph glyph-name="Eogonek" unicode="&#x118;" horiz-adv-x="517" 
d="M304 -27q1 2 5 3.5t7 1.5q4 0 7.5 -2.5t3.5 -5.5q-10 -24 -30 -36t-42 -12q-19 0 -33 9t-14 23q0 10 8.5 23t23.5 24q-38 -4 -61 -4q-52 0 -91 19t-63 54.5t-24 83.5q0 55 32 103t86 79.5t128 41.5q-21 14 -31 35l-44 -2q-55 0 -83.5 33t-28.5 80q0 25 11.5 60t41 62.5
t68.5 27.5q4 0 11.5 -1.5t7.5 -5.5q0 -3 -6.5 -5.5t-17.5 -2.5q-30 0 -52 -40.5t-22 -87.5q0 -28 9.5 -50.5t26.5 -32t34 -9.5q24 0 35 2q-3 15 -3 31q0 37 16.5 78t47 75.5t73.5 55.5t92 21q27 0 42.5 -17.5t15.5 -45.5q0 -43 -33 -93t-84.5 -81t-103.5 -43q13 -33 39 -39
h8q23 0 24 -18q0 -15 -13 -15l-10 2q-59 0 -106.5 -18.5t-79 -49t-47.5 -67t-16 -71.5q0 -49 30 -82.5t84 -33.5q58 0 108 21t85.5 54t54.5 69.5t19 66.5q0 25 -14.5 40t-41.5 15q-24 0 -51 -10.5t-49.5 -35.5t-36.5 -53.5t-28.5 -69t-19.5 -40.5q-7 0 -7 18q0 31 17 73.5
t45.5 77.5t66 52t75.5 17q19 0 38.5 -8.5t31.5 -30.5t12 -50q0 -30 -13 -63.5t-39 -65.5t-65 -57.5t-87 -38.5q-17 -10 -26 -24t-9 -26q0 -8 4 -13.5t11 -5.5q17 0 40 31zM263 471l1 -19q54 16 100 52t69.5 76.5t23.5 66.5q0 13 -7 21.5t-19 8.5q-29 0 -59 -13t-54 -41.5
t-39.5 -68.5t-15.5 -83z" />
    <glyph glyph-name="eogonek" unicode="&#x119;" horiz-adv-x="299" 
d="M338 199q8 0 8 -8q0 -6 -15 -29q-34 -47 -81 -93t-95 -66q-16 -9 -24.5 -22.5t-8.5 -25.5q0 -8 4 -13.5t11 -5.5q17 0 40 31q1 2 5 3.5t7 1.5q4 0 7.5 -2.5t3.5 -5.5q-10 -24 -30 -36t-42 -12q-19 0 -33 9t-14 23q0 20 28 44h-7q-23 0 -46.5 10t-37 35.5t-13.5 59.5
q0 20 6.5 50.5t23.5 67.5t47 75t75 65.5t94 27.5q41 0 41 -32q0 -18 -15.5 -48t-53.5 -71.5t-82 -67.5t-75 -26q-6 -24 -6 -49q0 -36 14 -50.5t33 -14.5q23 0 56 17t73 55.5t68 75.5q19 19 25 23t9 4zM248 350q-20 0 -48.5 -22.5t-58 -57t-48.5 -63t-19 -36.5l2 -3
q14 0 41.5 16.5t63.5 53t55.5 65t19.5 40.5q0 7 -8 7z" />
    <glyph glyph-name="Ecaron" unicode="&#x11a;" horiz-adv-x="517" 
d="M317 383q23 0 24 -18q0 -15 -13 -15l-10 2q-59 0 -106.5 -18.5t-79 -49t-47.5 -67t-16 -71.5q0 -49 30 -82.5t84 -33.5q58 0 108 21t85.5 54t54.5 69.5t19 66.5q0 25 -14.5 40t-41.5 15q-24 0 -51 -10.5t-49.5 -35.5t-36.5 -53.5t-28.5 -69t-19.5 -40.5q-7 0 -7 18
q0 31 17 73.5t45.5 77.5t66 52t75.5 17q19 0 38.5 -8.5t31.5 -30.5t12 -50q0 -37 -20 -79t-59 -78.5t-98 -59t-132 -22.5q-52 0 -91 19t-63 54.5t-24 83.5q0 55 32 103t86 79.5t128 41.5q-21 14 -31 35l-44 -2q-55 0 -83.5 33t-28.5 80q0 25 11.5 60t41 62.5t68.5 27.5
q4 0 11.5 -1.5t7.5 -5.5q0 -3 -6.5 -5.5t-17.5 -2.5q-30 0 -52 -40.5t-22 -87.5q0 -28 9.5 -50.5t26.5 -32t34 -9.5q24 0 35 2q-3 15 -3 31q0 37 16.5 78t47 75.5t73.5 55.5t92 21q27 0 42.5 -17.5t15.5 -45.5q0 -43 -33 -93t-84.5 -81t-103.5 -43q13 -33 39 -39h8zM263 471
l1 -19q54 16 100 52t69.5 76.5t23.5 66.5q0 13 -7 21.5t-19 8.5q-29 0 -59 -13t-54 -41.5t-39.5 -68.5t-15.5 -83zM443 743h-7l-7 -2q-5 0 -13 8q-5 5 -16.5 38t-11.5 50q0 7 4.5 13t10.5 6q7 0 11 -12q13 -40 31 -63q10 9 58 44t53 35h5q10 0 10 -5v-2q-2 -8 -11 -17
q-7 -6 -23.5 -21t-48.5 -43.5t-45 -28.5z" />
    <glyph glyph-name="ecaron" unicode="&#x11b;" horiz-adv-x="295" 
d="M334 199q8 0 8 -8q0 -6 -15 -29q-44 -62 -87 -99.5t-76.5 -54t-65.5 -16.5q-23 0 -46.5 10t-37 35.5t-13.5 59.5q0 20 6.5 50.5t23.5 67.5t47 75t75 65.5t94 27.5q41 0 41 -32q0 -18 -15.5 -48t-53.5 -71.5t-82 -67.5t-75 -26q-6 -24 -6 -49q0 -36 14 -50.5t33 -14.5
q23 0 56 17t73 55.5t68 75.5q19 19 25 23t9 4zM244 350q-20 0 -48.5 -22.5t-58 -57t-48.5 -63t-19 -36.5l2 -3q14 0 41.5 16.5t63.5 53t55.5 65t19.5 40.5q0 7 -8 7zM277 438h-7l-7 -2q-5 0 -13 8q-5 5 -16.5 38t-11.5 50q0 7 4.5 13t10.5 6q7 0 11 -12q13 -40 31 -63
q10 9 58 44t53 35h5q10 0 10 -5v-2q-2 -8 -11 -17q-7 -6 -23.5 -21t-48.5 -43.5t-45 -28.5z" />
    <glyph glyph-name="Gcircumflex" unicode="&#x11c;" horiz-adv-x="593" 
d="M92 187q70 0 102 -26.5t32 -66.5q0 -30 -17 -64.5t-46.5 -63.5t-67.5 -47t-76 -18q-19 0 -19 8q0 3 4 5.5t9 2.5q25 0 54 17t57 46t44 59.5t16 55.5q0 27 -21.5 43.5t-66.5 16.5q-21 0 -46.5 -14t-54.5 -49.5t-45 -80.5t-16 -81q0 -53 33 -86t101 -33q57 0 116 24.5
t114 84.5t99 149t73 201q-34 -31 -72.5 -55.5t-72 -34.5t-57.5 -10q-53 0 -80 27t-27 73q0 34 12 71q-59 24 -59 92q0 36 17.5 77.5t46.5 77.5t64.5 58.5t69.5 22.5q10 0 15.5 -3t5.5 -6q0 -2 -3 -4t-5 -2q-36 0 -77.5 -35.5t-67.5 -90t-26 -94.5q0 -44 30 -63q22 53 62 108
t92 100.5t112 72.5t118 27q27 0 41.5 -16.5t14.5 -44.5q0 -39 -26.5 -88.5t-77 -95t-112.5 -70t-107.5 -29t-62.5 -4.5h-7q-20 -45 -20 -76q0 -25 15.5 -39.5t47.5 -14.5q28 0 61.5 18t71.5 50.5t88 87t54 54.5q12 0 12 -15q-4 -48 -32.5 -143.5t-74.5 -185.5t-107 -154
t-135 -99.5t-163 -35.5q-55 0 -96 21.5t-59 60t-18 80.5t16 86.5t45 80.5t69.5 58t85.5 22zM564 649q-24 0 -55.5 -15.5t-71.5 -47t-96.5 -94.5t-94.5 -132q32 2 74.5 14t86.5 37.5t85 63t69 80.5t28 69q0 11 -6.5 18t-18.5 7zM627 835h7l7 2q5 0 13 -8q5 -5 16.5 -38
t11.5 -50q0 -7 -4.5 -13t-10.5 -6q-7 0 -11 12q-13 40 -31 63q-10 -9 -58 -44t-53 -35h-5q-10 0 -10 5v2q2 8 11 17q7 6 23.5 21t48.5 43.5t45 28.5z" />
    <glyph glyph-name="gcircumflex" unicode="&#x11d;" horiz-adv-x="395" 
d="M267 223q-5 -9 -43.5 -76t-69 -99.5t-55 -41.5t-41.5 -9q-29 0 -43.5 22t-14.5 59q0 29 9 65.5t28.5 79t46.5 75.5t55 49.5t55 16.5q36 0 62 -21.5t31 -46.5q33 40 50.5 55.5t28.5 15.5q8 0 17 -11.5t9 -17.5v-2q-38 -67 -68.5 -133.5t-58 -163.5t-33.5 -115
q1 0 29.5 7.5t38.5 8.5h2q5 0 8.5 -4t3.5 -8q0 -5 -4 -11t-9 -6q-17 -2 -77 -23q-41 -123 -88.5 -181.5t-107.5 -58.5q-18 0 -34 8.5t-23 25.5t-7 33q0 26 21 59.5t73.5 71t112.5 62.5q1 4 5 16t31.5 113.5t59.5 185.5zM70 31q14 0 35 10t48.5 44.5t61 97t36.5 68.5
q6 11 6 24q0 21 -13.5 38t-32.5 17q-25 0 -58.5 -35.5t-66.5 -111.5t-33 -122q0 -13 4.5 -21.5t12.5 -8.5zM23 -320q30 0 64.5 45t66.5 132q-158 -79 -158 -147q0 -10 6 -20t21 -10zM317 541h7l7 2q5 0 13 -8q5 -5 16.5 -38t11.5 -50q0 -7 -4.5 -13t-10.5 -6q-7 0 -11 12
q-13 40 -31 63q-10 -9 -58 -44t-53 -35h-5q-10 0 -10 5v2q2 8 11 17q7 6 23.5 21t48.5 43.5t45 28.5z" />
    <glyph glyph-name="Gbreve" unicode="&#x11e;" horiz-adv-x="593" 
d="M92 187q70 0 102 -26.5t32 -66.5q0 -30 -17 -64.5t-46.5 -63.5t-67.5 -47t-76 -18q-19 0 -19 8q0 3 4 5.5t9 2.5q25 0 54 17t57 46t44 59.5t16 55.5q0 27 -21.5 43.5t-66.5 16.5q-21 0 -46.5 -14t-54.5 -49.5t-45 -80.5t-16 -81q0 -53 33 -86t101 -33q57 0 116 24.5
t114 84.5t99 149t73 201q-34 -31 -72.5 -55.5t-72 -34.5t-57.5 -10q-53 0 -80 27t-27 73q0 34 12 71q-59 24 -59 92q0 36 17.5 77.5t46.5 77.5t64.5 58.5t69.5 22.5q10 0 15.5 -3t5.5 -6q0 -2 -3 -4t-5 -2q-36 0 -77.5 -35.5t-67.5 -90t-26 -94.5q0 -44 30 -63q22 53 62 108
t92 100.5t112 72.5t118 27q27 0 41.5 -16.5t14.5 -44.5q0 -39 -26.5 -88.5t-77 -95t-112.5 -70t-107.5 -29t-62.5 -4.5h-7q-20 -45 -20 -76q0 -25 15.5 -39.5t47.5 -14.5q28 0 61.5 18t71.5 50.5t88 87t54 54.5q12 0 12 -15q-4 -48 -32.5 -143.5t-74.5 -185.5t-107 -154
t-135 -99.5t-163 -35.5q-55 0 -96 21.5t-59 60t-18 80.5t16 86.5t45 80.5t69.5 58t85.5 22zM564 649q-24 0 -55.5 -15.5t-71.5 -47t-96.5 -94.5t-94.5 -132q32 2 74.5 14t86.5 37.5t85 63t69 80.5t28 69q0 11 -6.5 18t-18.5 7zM544 819q0 7 4.5 13t10.5 6q9 0 11 -12
q8 -59 45 -59q38 0 109 68l3 1q2 0 4.5 -2t2.5 -4v-2q-4 -15 -21 -38.5t-49.5 -44t-59.5 -20.5q-19 0 -33.5 12t-20.5 35t-6 47z" />
    <glyph glyph-name="gbreve" unicode="&#x11f;" horiz-adv-x="395" 
d="M267 223q-5 -9 -43.5 -76t-69 -99.5t-55 -41.5t-41.5 -9q-29 0 -43.5 22t-14.5 59q0 29 9 65.5t28.5 79t46.5 75.5t55 49.5t55 16.5q36 0 62 -21.5t31 -46.5q33 40 50.5 55.5t28.5 15.5q8 0 17 -11.5t9 -17.5v-2q-38 -67 -68.5 -133.5t-58 -163.5t-33.5 -115
q1 0 29.5 7.5t38.5 8.5h2q5 0 8.5 -4t3.5 -8q0 -5 -4 -11t-9 -6q-17 -2 -77 -23q-41 -123 -88.5 -181.5t-107.5 -58.5q-18 0 -34 8.5t-23 25.5t-7 33q0 26 21 59.5t73.5 71t112.5 62.5q1 4 5 16t31.5 113.5t59.5 185.5zM70 31q14 0 35 10t48.5 44.5t61 97t36.5 68.5
q6 11 6 24q0 21 -13.5 38t-32.5 17q-25 0 -58.5 -35.5t-66.5 -111.5t-33 -122q0 -13 4.5 -21.5t12.5 -8.5zM23 -320q30 0 64.5 45t66.5 132q-158 -79 -158 -147q0 -10 6 -20t21 -10zM225 527q0 7 4.5 13t10.5 6q9 0 11 -12q8 -59 45 -59q38 0 109 68l3 1q2 0 4.5 -2t2.5 -4
v-2q-4 -15 -21 -38.5t-49.5 -44t-59.5 -20.5q-19 0 -33.5 12t-20.5 35t-6 47z" />
    <glyph glyph-name="Gdotaccent" unicode="&#x120;" horiz-adv-x="593" 
d="M92 187q70 0 102 -26.5t32 -66.5q0 -30 -17 -64.5t-46.5 -63.5t-67.5 -47t-76 -18q-19 0 -19 8q0 3 4 5.5t9 2.5q25 0 54 17t57 46t44 59.5t16 55.5q0 27 -21.5 43.5t-66.5 16.5q-21 0 -46.5 -14t-54.5 -49.5t-45 -80.5t-16 -81q0 -53 33 -86t101 -33q57 0 116 24.5
t114 84.5t99 149t73 201q-34 -31 -72.5 -55.5t-72 -34.5t-57.5 -10q-53 0 -80 27t-27 73q0 34 12 71q-59 24 -59 92q0 36 17.5 77.5t46.5 77.5t64.5 58.5t69.5 22.5q10 0 15.5 -3t5.5 -6q0 -2 -3 -4t-5 -2q-36 0 -77.5 -35.5t-67.5 -90t-26 -94.5q0 -44 30 -63q22 53 62 108
t92 100.5t112 72.5t118 27q27 0 41.5 -16.5t14.5 -44.5q0 -39 -26.5 -88.5t-77 -95t-112.5 -70t-107.5 -29t-62.5 -4.5h-7q-20 -45 -20 -76q0 -25 15.5 -39.5t47.5 -14.5q28 0 61.5 18t71.5 50.5t88 87t54 54.5q12 0 12 -15q-4 -48 -32.5 -143.5t-74.5 -185.5t-107 -154
t-135 -99.5t-163 -35.5q-55 0 -96 21.5t-59 60t-18 80.5t16 86.5t45 80.5t69.5 58t85.5 22zM564 649q-24 0 -55.5 -15.5t-71.5 -47t-96.5 -94.5t-94.5 -132q32 2 74.5 14t86.5 37.5t85 63t69 80.5t28 69q0 11 -6.5 18t-18.5 7zM588 755q1 15 15 24.5t27 9.5q12 0 22 -8.5
t10 -25.5v-1q0 -15 -13.5 -25.5t-27.5 -10.5t-23.5 10t-9.5 27z" />
    <glyph glyph-name="gdotaccent" unicode="&#x121;" horiz-adv-x="395" 
d="M267 223q-5 -9 -43.5 -76t-69 -99.5t-55 -41.5t-41.5 -9q-29 0 -43.5 22t-14.5 59q0 29 9 65.5t28.5 79t46.5 75.5t55 49.5t55 16.5q36 0 62 -21.5t31 -46.5q33 40 50.5 55.5t28.5 15.5q8 0 17 -11.5t9 -17.5v-2q-38 -67 -68.5 -133.5t-58 -163.5t-33.5 -115
q1 0 29.5 7.5t38.5 8.5h2q5 0 8.5 -4t3.5 -8q0 -5 -4 -11t-9 -6q-17 -2 -77 -23q-41 -123 -88.5 -181.5t-107.5 -58.5q-18 0 -34 8.5t-23 25.5t-7 33q0 26 21 59.5t73.5 71t112.5 62.5q1 4 5 16t31.5 113.5t59.5 185.5zM70 31q14 0 35 10t48.5 44.5t61 97t36.5 68.5
q6 11 6 24q0 21 -13.5 38t-32.5 17q-25 0 -58.5 -35.5t-66.5 -111.5t-33 -122q0 -13 4.5 -21.5t12.5 -8.5zM23 -320q30 0 64.5 45t66.5 132q-158 -79 -158 -147q0 -10 6 -20t21 -10zM276 454q1 15 15 24.5t27 9.5q12 0 22 -8.5t10 -25.5v-1q0 -15 -13.5 -25.5t-27.5 -10.5
t-23.5 10t-9.5 27z" />
    <glyph glyph-name="Gcommaaccent" unicode="&#x122;" horiz-adv-x="593" 
d="M92 187q70 0 102 -26.5t32 -66.5q0 -30 -17 -64.5t-46.5 -63.5t-67.5 -47t-76 -18q-19 0 -19 8q0 3 4 5.5t9 2.5q25 0 54 17t57 46t44 59.5t16 55.5q0 27 -21.5 43.5t-66.5 16.5q-21 0 -46.5 -14t-54.5 -49.5t-45 -80.5t-16 -81q0 -53 33 -86t101 -33q57 0 116 24.5
t114 84.5t99 149t73 201q-34 -31 -72.5 -55.5t-72 -34.5t-57.5 -10q-53 0 -80 27t-27 73q0 34 12 71q-59 24 -59 92q0 36 17.5 77.5t46.5 77.5t64.5 58.5t69.5 22.5q10 0 15.5 -3t5.5 -6q0 -2 -3 -4t-5 -2q-36 0 -77.5 -35.5t-67.5 -90t-26 -94.5q0 -44 30 -63q22 53 62 108
t92 100.5t112 72.5t118 27q27 0 41.5 -16.5t14.5 -44.5q0 -39 -26.5 -88.5t-77 -95t-112.5 -70t-107.5 -29t-62.5 -4.5h-7q-20 -45 -20 -76q0 -25 15.5 -39.5t47.5 -14.5q28 0 61.5 18t71.5 50.5t88 87t54 54.5q12 0 12 -15q-4 -48 -32.5 -143.5t-74.5 -185.5t-107 -154
t-135 -99.5t-163 -35.5q-55 0 -96 21.5t-59 60t-18 80.5t16 86.5t45 80.5t69.5 58t85.5 22zM564 649q-24 0 -55.5 -15.5t-71.5 -47t-96.5 -94.5t-94.5 -132q32 2 74.5 14t86.5 37.5t85 63t69 80.5t28 69q0 11 -6.5 18t-18.5 7zM-17 -249q-4 0 -4 -3q-1 -2 -2 -21.5t-7 -39.5
q-6 -22 -30 -52t-25 -35v-2q2 -5 8 -5q26 0 52 19t37 42.5t11 40.5q0 16 -9 33t-31 23z" />
    <glyph glyph-name="gcommaaccent" unicode="&#x123;" horiz-adv-x="395" 
d="M274 419q-8 0 -8 9q0 16 23 53q16 26 16 54l-2 29q0 8 7 8q13 0 27.5 -21.5t14.5 -46.5q0 -22 -13.5 -44t-31.5 -31.5t-33 -9.5zM267 223q-5 -9 -43.5 -76t-69 -99.5t-55 -41.5t-41.5 -9q-29 0 -43.5 22t-14.5 59q0 29 9 65.5t28.5 79t46.5 75.5t55 49.5t55 16.5
q36 0 62 -21.5t31 -46.5q33 40 50.5 55.5t28.5 15.5q8 0 17 -11.5t9 -17.5v-2q-38 -67 -68.5 -133.5t-58 -163.5t-33.5 -115q1 0 29.5 7.5t38.5 8.5h2q5 0 8.5 -4t3.5 -8q0 -5 -4 -11t-9 -6q-17 -2 -77 -23q-41 -123 -88.5 -181.5t-107.5 -58.5q-18 0 -34 8.5t-23 25.5
t-7 33q0 26 21 59.5t73.5 71t112.5 62.5q1 4 5 16t31.5 113.5t59.5 185.5zM70 31q14 0 35 10t48.5 44.5t61 97t36.5 68.5q6 11 6 24q0 21 -13.5 38t-32.5 17q-25 0 -58.5 -35.5t-66.5 -111.5t-33 -122q0 -13 4.5 -21.5t12.5 -8.5zM23 -320q30 0 64.5 45t66.5 132
q-158 -79 -158 -147q0 -10 6 -20t21 -10z" />
    <glyph glyph-name="Hcircumflex" unicode="&#x124;" horiz-adv-x="801" 
d="M609 416l11 3q4 0 8.5 -3.5t4.5 -13.5v-4q0 -10 -26 -60q21 4 59 16q40 101 89.5 177.5t99.5 118.5t95 42q15 0 23.5 -9.5t10.5 -19.5l1 -15q0 -31 -17 -72.5t-50.5 -85.5t-83.5 -84t-112 -67q-34 -81 -54.5 -158.5t-20.5 -128.5q0 -81 52 -81q7 0 15 -5t8 -10
q0 -9 -26 -9q-46 0 -68.5 37t-22.5 100q0 35 9.5 94t36.5 136l-64 -14q-26 -54 -31 -94l-2 -4q-3 0 -9 14l-1 22q0 30 7 57l-46 -3q-43 -113 -94.5 -175t-109.5 -87.5t-121 -25.5q-57 0 -96.5 17t-61 48t-21.5 74q0 16 4.5 38.5t17 48t34 50.5t53.5 42.5t67 17.5
q48 0 77 -17t39 -45q66 39 153 47q3 8 46.5 130.5t77.5 174.5q-14 1 -57 6t-69.5 6.5t-45.5 1.5q-53 0 -87 -11t-58.5 -28.5t-40.5 -49.5t-16 -77q0 -28 10.5 -50t29.5 -31t38 -9q21 0 51 10.5t55 36t25 53.5q0 12 5 12q3 0 6 -4.5t3 -10.5q0 -22 -9 -45t-32 -44.5
t-55.5 -33t-58.5 -11.5q-36 0 -61.5 15.5t-40.5 45.5t-15 69q0 53 21 91.5t57 61.5t82.5 33.5t98.5 10.5q18 0 55.5 -2.5t82 -7.5t50.5 -6q38 41 81 41q20 0 31.5 -7.5t11.5 -18.5q0 -28 -21.5 -39.5t-61.5 -11.5h-18q-5 -9 -16.5 -35.5t-42.5 -131.5t-40 -132l45 4
q12 32 27 58t19 27zM182 127q0 27 21.5 64.5t61.5 67.5q-6 23 -24.5 36.5t-50.5 13.5q-28 0 -59 -18t-55 -61t-24 -85q0 -22 10 -48.5t40.5 -45.5t80.5 -19q44 0 85.5 22t82 76.5t81.5 157.5q-36 -5 -71 -18t-61 -30q0 -23 -11.5 -55.5t-36.5 -60t-48 -27.5q-10 0 -16 8.5
t-6 21.5zM946 667q-32 0 -87 -72.5t-116 -206.5q42 23 77.5 54.5t66 71.5t50 83.5t19.5 54.5v2q0 13 -10 13zM202 118q18 0 38.5 31t25.5 67q-31 -26 -49 -54t-18 -40q0 -3 3 -4zM674 672q-19 0 -34 -15h14q29 0 29 11q-3 4 -9 4zM796 845h7l7 2q5 0 13 -8q5 -5 16.5 -38
t11.5 -50q0 -7 -4.5 -13t-10.5 -6q-7 0 -11 12q-13 40 -31 63q-10 -9 -58 -44t-53 -35h-5q-10 0 -10 5v2q2 8 11 17q7 6 23.5 21t48.5 43.5t45 28.5z" />
    <glyph glyph-name="hcircumflex" unicode="&#x125;" horiz-adv-x="369" 
d="M320 638q37 0 37 -34t-36 -90t-88 -107.5t-96 -83.5q-55 -110 -61 -128l4 5q138 174 198 174q59 0 59 -52q0 -29 -18 -74.5t-60 -120.5t-42 -86q0 -3 4 -4q27 0 69 38t84 95q23 28 35 28q8 0 8 -8t-15 -30q-52 -72 -99 -115t-89 -43q-46 0 -46 41q0 13 6 35.5t21 54
t54.5 105t39.5 90.5q0 10 -9 10q-23 0 -70.5 -42.5t-114 -134.5t-95.5 -156l-4 -1q-4 0 -14.5 2.5t-16 8t-5.5 10.5q0 9 53 133t115.5 243.5t111.5 178t80 58.5zM321 610q-9 0 -28.5 -22.5t-52.5 -77t-77 -138.5q72 67 119.5 134t47.5 93q0 11 -9 11zM381 773h7l7 2
q5 0 13 -8q5 -5 16.5 -38t11.5 -50q0 -7 -4.5 -13t-10.5 -6q-7 0 -11 12q-13 40 -31 63q-10 -9 -58 -44t-53 -35h-5q-10 0 -10 5v2q2 8 11 17q7 6 23.5 21t48.5 43.5t45 28.5z" />
    <glyph glyph-name="Hbar" unicode="&#x126;" horiz-adv-x="801" 
d="M442 472q1 10 23 10h37q38 103 68 148q-14 1 -57 6t-69.5 6.5t-45.5 1.5q-53 0 -87 -11t-58.5 -28.5t-40.5 -49.5t-16 -77q0 -28 10.5 -50t29.5 -31t38 -9q21 0 51 10.5t55 36t25 53.5q0 12 5 12q3 0 6 -4.5t3 -10.5q0 -22 -9 -45t-32 -44.5t-55.5 -33t-58.5 -11.5
q-36 0 -61.5 15.5t-40.5 45.5t-15 69q0 53 21 91.5t57 61.5t82.5 33.5t98.5 10.5q18 0 55.5 -2.5t82 -7.5t50.5 -6q38 41 81 41q20 0 31.5 -7.5t11.5 -18.5q0 -28 -21.5 -39.5t-61.5 -11.5h-18q-21 -37 -52 -142l163 3q23 42 59 90.5t79.5 81.5t83.5 33q15 0 23.5 -9.5
t10.5 -19.5l1 -15q0 -31 -17 -72.5t-50.5 -85.5t-83.5 -84t-112 -67q-34 -81 -54.5 -158.5t-20.5 -128.5q0 -81 52 -81q7 0 15 -5t8 -10q0 -9 -26 -9q-46 0 -68.5 37t-22.5 100q0 35 9.5 94t36.5 136l-64 -14q-26 -54 -31 -94l-2 -4q-3 0 -9 14l-1 22q0 30 7 57l-46 -3
q-43 -113 -94.5 -175t-109.5 -87.5t-121 -25.5q-57 0 -96.5 17t-61 48t-21.5 74q0 16 4.5 38.5t17 48t34 50.5t53.5 42.5t67 17.5q48 0 77 -17t39 -45q66 39 153 47l48 135q-52 2 -52 11v1zM182 127q0 27 21.5 64.5t61.5 67.5q-6 23 -24.5 36.5t-50.5 13.5q-28 0 -59 -18
t-55 -61t-24 -85q0 -22 10 -48.5t40.5 -45.5t80.5 -19q44 0 85.5 22t82 76.5t81.5 157.5q-36 -5 -71 -18t-61 -30q0 -23 -11.5 -55.5t-36.5 -60t-48 -27.5q-10 0 -16 8.5t-6 21.5zM946 667q-25 0 -64.5 -44t-90.5 -137q18 -1 30 -4v-6t-3 -8.5t-21 -3.5h-18l-36 -76
q42 23 77.5 54.5t66 71.5t50 83.5t19.5 54.5v2q0 13 -10 13zM609 416l11 3q4 0 8.5 -3.5t4.5 -13.5v-4q0 -10 -26 -60q21 4 59 16q22 57 48 107l-156 -3q-22 -77 -40 -131l45 4q12 32 27 58t19 27zM202 118q18 0 38.5 31t25.5 67q-31 -26 -49 -54t-18 -40q0 -3 3 -4z
M674 672q-19 0 -34 -15h14q29 0 29 11q-3 4 -9 4z" />
    <glyph glyph-name="hbar" unicode="&#x127;" horiz-adv-x="369" 
d="M320 638q37 0 37 -34q0 -27 -24 -70t-65 -90q58 0 58 -5q-1 -12 -2.5 -15t-14.5 -3l-66 -5q-49 -51 -106 -93q-56 -113 -61 -128l4 5q138 174 198 174q59 0 59 -52q0 -29 -18 -74.5t-60 -120.5t-42 -86q0 -3 4 -4q27 0 69 38t84 95q23 28 35 28q8 0 8 -8t-15 -30
q-52 -72 -99 -115t-89 -43q-46 0 -46 41q0 13 6 35.5t21 54t54.5 105t39.5 90.5q0 10 -9 10q-23 0 -70.5 -42.5t-114 -134.5t-95.5 -156l-4 -1q-4 0 -14.5 2.5t-16 8t-5.5 10.5q0 4 23.5 62.5t63.5 148.5t86 175q-57 2 -57 17v1q1 10 16 10l57 1q110 198 171 198zM321 610
q-14 0 -47 -47.5t-73 -120.5l31 1q44 50 71 93.5t27 62.5q0 11 -9 11zM205 413l-21 -1l-21 -40z" />
    <glyph glyph-name="Itilde" unicode="&#x128;" horiz-adv-x="536" 
d="M286 16q-20 -12 -49 -19t-56 -7q-54 0 -92.5 17.5t-61 50.5t-22.5 79q0 33 14.5 69t50.5 71t81.5 53t79.5 18q37 0 60.5 -19.5t23.5 -57.5q0 -35 -19.5 -65t-51 -47.5t-72.5 -17.5q-20 0 -20 5q0 3 5 6q27 0 55.5 14.5t48.5 45t20 58.5q0 26 -14.5 39.5t-38.5 13.5
q-25 0 -55.5 -14t-57.5 -39.5t-44 -60.5t-17 -74q0 -46 31 -78t95 -32q31 0 62.5 14.5t66.5 54.5t89 160q-44 21 -69.5 64t-25.5 93q0 48 23 95.5t70.5 87t121.5 63t168 23.5q12 0 19 -5.5t7 -10.5q0 -7 -9 -7l-32 -1q-22 -11 -46 -40.5t-47.5 -79t-60.5 -144t-55 -134.5
l17 -1q15 0 25 -3.5t10 -7.5t-9 -6.5t-24 -2.5l-28 2q-77 -172 -167 -223zM351 394q0 -38 15 -69.5t42 -48.5q6 15 42.5 103t60 135t47 80t48.5 54q-63 -12 -106.5 -35.5t-74 -53t-52.5 -73.5t-22 -92zM537 753q0 9 10 19.5t30.5 17t34.5 6.5q23 0 49.5 -18.5t36 -21
t15.5 -2.5q22 2 31.5 15t12.5 13q5 0 5 -10q0 -14 -12 -28.5t-36 -14.5q-17 0 -30 5.5t-35.5 21.5t-37.5 16t-42 -11t-30 -11z" />
    <glyph glyph-name="itilde" unicode="&#x129;" 
d="M28 2q-17 0 -30 11.5t-13 49.5q0 27 17.5 78t44.5 109t53.5 97t39.5 39q11 0 19.5 -9t8.5 -25q0 -11 -56.5 -111t-72.5 -137.5t-16 -52.5q0 -14 12 -14q27 0 69 38t84 95q23 28 35 28q8 0 8 -8q0 -4 -5 -13.5t-11 -16.5q-52 -72 -98.5 -115t-88.5 -43zM64 452
q0 9 10 19.5t30.5 17t34.5 6.5q23 0 49.5 -18.5t36 -21t15.5 -2.5q22 2 31.5 15t12.5 13q5 0 5 -10q0 -14 -12 -28.5t-36 -14.5q-17 0 -30 5.5t-35.5 21.5t-37.5 16t-42 -11t-30 -11z" />
    <glyph glyph-name="Imacron" unicode="&#x12a;" horiz-adv-x="536" 
d="M286 16q-20 -12 -49 -19t-56 -7q-54 0 -92.5 17.5t-61 50.5t-22.5 79q0 33 14.5 69t50.5 71t81.5 53t79.5 18q37 0 60.5 -19.5t23.5 -57.5q0 -35 -19.5 -65t-51 -47.5t-72.5 -17.5q-20 0 -20 5q0 3 5 6q27 0 55.5 14.5t48.5 45t20 58.5q0 26 -14.5 39.5t-38.5 13.5
q-25 0 -55.5 -14t-57.5 -39.5t-44 -60.5t-17 -74q0 -46 31 -78t95 -32q31 0 62.5 14.5t66.5 54.5t89 160q-44 21 -69.5 64t-25.5 93q0 48 23 95.5t70.5 87t121.5 63t168 23.5q12 0 19 -5.5t7 -10.5q0 -7 -9 -7l-32 -1q-22 -11 -46 -40.5t-47.5 -79t-60.5 -144t-55 -134.5
l17 -1q15 0 25 -3.5t10 -7.5t-9 -6.5t-24 -2.5l-28 2q-77 -172 -167 -223zM351 394q0 -38 15 -69.5t42 -48.5q6 15 42.5 103t60 135t47 80t48.5 54q-63 -12 -106.5 -35.5t-74 -53t-52.5 -73.5t-22 -92zM532 764v1q1 10 16 10q221 0 220 -11q-1 -12 -2.5 -15t-14.5 -3l-120 2
q-67 0 -83 4t-16 12z" />
    <glyph glyph-name="imacron" unicode="&#x12b;" 
d="M92 485v1q1 10 16 10l90 1q101 0 100 -8q-1 -12 -2.5 -15t-14.5 -3l-90 -2q-67 0 -83 4t-16 12zM28 2q-17 0 -30 11.5t-13 49.5q0 27 17.5 78t44.5 109t53.5 97t39.5 39q11 0 19.5 -9t8.5 -25q0 -11 -56.5 -111t-72.5 -137.5t-16 -52.5q0 -14 12 -14q27 0 69 38t84 95
q23 28 35 28q8 0 8 -8q0 -4 -5 -13.5t-11 -16.5q-52 -72 -98.5 -115t-88.5 -43z" />
    <glyph glyph-name="Ibreve" unicode="&#x12c;" horiz-adv-x="536" 
d="M286 16q-20 -12 -49 -19t-56 -7q-54 0 -92.5 17.5t-61 50.5t-22.5 79q0 33 14.5 69t50.5 71t81.5 53t79.5 18q37 0 60.5 -19.5t23.5 -57.5q0 -35 -19.5 -65t-51 -47.5t-72.5 -17.5q-20 0 -20 5q0 3 5 6q27 0 55.5 14.5t48.5 45t20 58.5q0 26 -14.5 39.5t-38.5 13.5
q-25 0 -55.5 -14t-57.5 -39.5t-44 -60.5t-17 -74q0 -46 31 -78t95 -32q31 0 62.5 14.5t66.5 54.5t89 160q-44 21 -69.5 64t-25.5 93q0 48 23 95.5t70.5 87t121.5 63t168 23.5q12 0 19 -5.5t7 -10.5q0 -7 -9 -7l-32 -1q-22 -11 -46 -40.5t-47.5 -79t-60.5 -144t-55 -134.5
l17 -1q15 0 25 -3.5t10 -7.5t-9 -6.5t-24 -2.5l-28 2q-77 -172 -167 -223zM351 394q0 -38 15 -69.5t42 -48.5q6 15 42.5 103t60 135t47 80t48.5 54q-63 -12 -106.5 -35.5t-74 -53t-52.5 -73.5t-22 -92zM589 832q0 7 4.5 13t10.5 6q9 0 11 -12q8 -59 45 -59q38 0 109 68l3 1
q2 0 4.5 -2t2.5 -4v-2q-4 -15 -21 -38.5t-49.5 -44t-59.5 -20.5q-19 0 -33.5 12t-20.5 35t-6 47z" />
    <glyph glyph-name="ibreve" unicode="&#x12d;" 
d="M28 2q-17 0 -30 11.5t-13 49.5q0 27 17.5 78t44.5 109t53.5 97t39.5 39q11 0 19.5 -9t8.5 -25q0 -11 -56.5 -111t-72.5 -137.5t-16 -52.5q0 -14 12 -14q27 0 69 38t84 95q23 28 35 28q8 0 8 -8q0 -4 -5 -13.5t-11 -16.5q-52 -72 -98.5 -115t-88.5 -43zM130 541
q0 7 4.5 13t10.5 6q9 0 11 -12q8 -59 45 -59q38 0 109 68l3 1q2 0 4.5 -2t2.5 -4v-2q-4 -15 -21 -38.5t-49.5 -44t-59.5 -20.5q-19 0 -33.5 12t-20.5 35t-6 47z" />
    <glyph glyph-name="Iogonek" unicode="&#x12e;" horiz-adv-x="536" 
d="M195 1q-61 0 -104 17.5t-67 50.5t-24 78q0 37 17 74.5t49 68t77.5 49t98.5 18.5q17 0 34.5 -7.5t28 -26t10.5 -41.5q0 -35 -19.5 -65t-51 -47.5t-72.5 -17.5q-20 0 -20 5q0 3 5 6q27 0 55.5 14.5t48.5 45t20 58.5q0 22 -13.5 35.5t-39.5 13.5q-44 0 -86.5 -27.5
t-66.5 -72.5t-24 -84q0 -33 16.5 -58t48 -38.5t76.5 -13.5q55 0 103.5 53t102.5 176q-44 21 -69.5 64t-25.5 93q0 48 23 95.5t70.5 87t121.5 63t168 23.5q12 0 19 -5.5t7 -10.5q0 -7 -9 -7l-32 -1q-22 -11 -46 -40.5t-47.5 -79t-60.5 -144t-55 -134.5l17 -1q15 0 25 -3.5
t10 -7.5t-9 -6.5t-24 -2.5l-28 2q-51 -112 -103 -169.5t-111 -73.5q-22 -10 -33.5 -25t-11.5 -29q0 -8 4 -13.5t11 -5.5q17 0 40 31q1 2 5 3.5t7 1.5q4 0 7.5 -2.5t3.5 -5.5q-10 -24 -30 -36t-42 -12q-19 0 -33 9t-14 23q0 26 42 55zM351 405q0 -38 15 -69.5t42 -48.5
q6 15 42.5 103t60 135t47 80t48.5 54q-63 -12 -106.5 -35.5t-74 -53t-52.5 -73.5t-22 -92z" />
    <glyph glyph-name="iogonek" unicode="&#x12f;" 
d="M80 -30q1 2 5 3.5t7 1.5q4 0 7.5 -2.5t3.5 -5.5q-10 -24 -30 -36t-42 -12q-19 0 -33 9t-14 23q0 10 9.5 24t27.5 27q-36 4 -36 61q0 27 17.5 78t44.5 109t53.5 97t39.5 39q11 0 19.5 -9t8.5 -25q0 -11 -56.5 -111t-72.5 -137.5t-16 -52.5q0 -14 12 -14q27 0 69 38t84 95
q23 28 35 28q8 0 8 -8q0 -4 -5 -13.5t-11 -16.5q-87 -122 -150 -150q-20 -9 -30 -24t-10 -28q0 -8 4 -13.5t11 -5.5q17 0 40 31zM174 486q1 15 15 24.5t27 9.5q12 0 22 -8.5t10 -25.5v-1q0 -15 -13.5 -25.5t-27.5 -10.5t-23.5 10t-9.5 27z" />
    <glyph glyph-name="Idotaccent" unicode="&#x130;" horiz-adv-x="536" 
d="M286 16q-20 -12 -49 -19t-56 -7q-54 0 -92.5 17.5t-61 50.5t-22.5 79q0 33 14.5 69t50.5 71t81.5 53t79.5 18q37 0 60.5 -19.5t23.5 -57.5q0 -35 -19.5 -65t-51 -47.5t-72.5 -17.5q-20 0 -20 5q0 3 5 6q27 0 55.5 14.5t48.5 45t20 58.5q0 26 -14.5 39.5t-38.5 13.5
q-25 0 -55.5 -14t-57.5 -39.5t-44 -60.5t-17 -74q0 -46 31 -78t95 -32q31 0 62.5 14.5t66.5 54.5t89 160q-44 21 -69.5 64t-25.5 93q0 48 23 95.5t70.5 87t121.5 63t168 23.5q12 0 19 -5.5t7 -10.5q0 -7 -9 -7l-32 -1q-22 -11 -46 -40.5t-47.5 -79t-60.5 -144t-55 -134.5
l17 -1q15 0 25 -3.5t10 -7.5t-9 -6.5t-24 -2.5l-28 2q-77 -172 -167 -223zM351 394q0 -38 15 -69.5t42 -48.5q6 15 42.5 103t60 135t47 80t48.5 54q-63 -12 -106.5 -35.5t-74 -53t-52.5 -73.5t-22 -92zM640 764q1 15 15 24.5t27 9.5q12 0 22 -8.5t10 -25.5v-1
q0 -15 -13.5 -25.5t-27.5 -10.5t-23.5 10t-9.5 27z" />
    <glyph glyph-name="dotlessi" unicode="&#x131;" 
d="M28 2q-17 0 -30 11.5t-13 49.5q0 27 17.5 78t44.5 109t53.5 97t39.5 39q11 0 19.5 -9t8.5 -25q0 -11 -56.5 -111t-72.5 -137.5t-16 -52.5q0 -14 12 -14q27 0 69 38t84 95q23 28 35 28q8 0 8 -8q0 -4 -5 -13.5t-11 -16.5q-52 -72 -98.5 -115t-88.5 -43z" />
    </font>
</defs>
</svg>
